<?xml version="1.0" standalone="no"?>
<!DOCTYPE svg PUBLIC "-//W3C//DTD SVG 1.1//EN" "http://www.w3.org/Graphics/SVG/1.1/DTD/svg11.dtd" >
<svg xmlns="http://www.w3.org/2000/svg" xmlns:xlink="http://www.w3.org/1999/xlink" version="1.1">
<metadata>
Created by FontForge 20201107 at Sat Feb 15 09:00:12 2014
 By Jimmy Wärting
The typeface was designed at ParaType \(ParaGraph\) in 1989-2004 by Vladimir Yefimov and Olga Chaeva. A spin-off from Encyclopedia-4 type family of the Polygraphmash type design bureau \(1987, Vladimir Yefimov and Isay Slutsker\). Inspired by Helvetica \(Neue Haas Grotesk\) of Haas typefoundry, 1957 by Eduard Hoffman and Max Miedinger. Based on the 19th century Grotesque designs, Helvetica brought a new level of mathematical accuracy to the sans serif category. Widely used for many applications, from magazines and books to advertising and headlines. 4 basic styles of Pragmatica were developed in 1989 by Vladimir Yefimov. Eight additional styles were developed in 2003 by Olga Chaeva. Condensed styles were developed in 1993-2004 by Vladimir Yefimov, Alexander Tarbeev and Manvel Shmavonyan, with participation of Dmitry Kirsanov. Extended styles were developed in 2004 by Olga Chaeva and Manvel Shmavonyan.
</metadata>
<defs>
<font id="Pragmatica-Medium" horiz-adv-x="600" >
  <font-face 
    font-family="Pragmatica"
    font-weight="500"
    font-stretch="normal"
    units-per-em="1000"
    panose-1="2 11 6 3 4 5 2 2 2 4"
    ascent="800"
    descent="-200"
    x-height="508"
    cap-height="700"
    bbox="-440 -270 1314 982"
    underline-thickness="50"
    underline-position="-100"
    unicode-range="U+000D-FB04"
  />
<missing-glyph horiz-adv-x="500" 
d="M58 8h384v496h-384v-496zM50 0v512h400v-512h-400z" />
    <glyph glyph-name="afii10017.var.accented" unicode="&#x410;`" horiz-adv-x="648" 
d="M184 147l-51 -147h-137l264 700h128l264 -700h-137l-51 147h-280zM218 253h212l-106 311zM321 900h136l-118 -140h-96z" />
    <glyph glyph-name="afii10022.var.accented" unicode="&#x415;`" horiz-adv-x="638" 
d="M316 900h136l-118 -140h-96zM213 412h356v-106h-356v-200h408v-106h-536v700h525v-106h-397v-182z" />
    <glyph glyph-name="afii10026.var.accented" unicode="&#x418;`" horiz-adv-x="756" 
d="M213 188l333 512h125v-700h-128v512l-333 -512h-125v700h128v-512zM375 900h136l-118 -140h-96z" />
    <glyph glyph-name="afii10032.var.accented" unicode="&#x41e;`" horiz-adv-x="776" 
d="M385 900h136l-118 -140h-96zM388 721c61 0 343 -8 343 -371s-282 -371 -343 -371s-343 8 -343 371s282 371 343 371zM388 615c-172 0 -206 -157 -206 -265s34 -265 206 -265s206 157 206 265s-34 265 -206 265z" />
    <glyph glyph-name="afii10037.var.accented" unicode="&#x423;`" horiz-adv-x="623" 
d="M345 322l148 378h134l-235 -564c-59 -144 -137 -146 -198 -146c-33 0 -56 0 -91 11v111c23 -7 46 -12 73 -12c45 0 84 15 100 84l-267 516h157zM308 900h136l-118 -140h-96z" />
    <glyph glyph-name="afii10045.var.accented" unicode="&#x42b;`" horiz-adv-x="908" 
d="M213 700v-270h182c76 0 243 -15 243 -219c0 -88 -44 -211 -244 -211h-309v700h128zM213 324v-218h156c68 0 137 15 137 111c0 100 -81 107 -134 107h-159zM695 700h128v-700h-128v700zM451 900h136l-118 -140h-96z" />
    <glyph glyph-name="afii10047.var.accented" unicode="&#x42d;`" horiz-adv-x="748" 
d="M259 412h306c-5 89 -55 203 -206 203c-111 0 -166 -53 -177 -121h-127c8 95 66 227 300 227c261 0 348 -184 348 -383c0 -239 -143 -359 -351 -359c-231 0 -299 156 -307 260h127c5 -75 63 -154 186 -154c157 0 202 132 207 221h-306v106zM371 900h136l-118 -140h-96z
" />
    <glyph glyph-name="afii10048.var.accented" unicode="&#x42e;`" horiz-adv-x="1030" 
d="M213 420h90c11 122 85 301 339 301c61 0 343 -8 343 -371s-282 -371 -343 -371c-265 0 -334 191 -342 335h-87v-314h-128v700h128v-280zM642 85c172 0 206 157 206 265s-34 265 -206 265s-206 -157 -206 -265s34 -265 206 -265zM512 900h136l-118 -140h-96z" />
    <glyph glyph-name="afii10049.var.accented" unicode="&#x42f;`" horiz-adv-x="720" 
d="M507 261h-122l-168 -261h-162l198 275c-65 8 -186 46 -186 206c0 210 181 219 279 219h289v-700h-128v261zM507 594h-167c-35 0 -141 0 -141 -116c0 -102 94 -111 150 -111h158v227zM381 900h136l-118 -140h-96z" />
    <glyph glyph-name="afii10065.var.accented" unicode="&#x430;`" horiz-adv-x="577" 
d="M284 700h130l-110 -132h-90zM164 351h-114c-3 93 66 177 232 177c205 0 219 -120 219 -180v-203c0 -49 2 -65 44 -62v-83c-31 -3 -42 -3 -53 -3c-31 0 -88 4 -99 66c-44 -56 -101 -75 -169 -75c-176 0 -187 104 -187 147c0 105 94 137 117 142c39 11 75 12 118 19
c16 3 33 4 49 7c42 5 60 5 60 55c0 80 -60 88 -99 88c-88 0 -121 -47 -118 -95zM381 226v18c-13 -9 -29 -14 -86 -21c-82 -11 -134 -18 -134 -84c0 -39 23 -69 79 -69c60 0 141 24 141 156z" />
    <glyph glyph-name="afii10070.var.accented" unicode="&#x435;`" horiz-adv-x="594" 
d="M293 700h130l-110 -132h-90zM429 147h114c-13 -66 -60 -167 -242 -167c-51 0 -258 9 -258 265c0 172 84 283 259 283c219 0 244 -176 248 -276c0 -11 1 -18 1 -29h-380c0 -65 32 -161 140 -161c54 0 110 29 118 85zM171 305h253c0 46 -17 141 -121 141
c-93 0 -135 -75 -132 -141z" />
    <glyph glyph-name="afii10074.var.accented" unicode="&#x438;`" horiz-adv-x="634" 
d="M192 142l238 366h132v-508h-120v366l-238 -366h-132v508h120v-366zM313 700h130l-110 -132h-90z" />
    <glyph glyph-name="afii10080.var.accented" unicode="&#x43e;`" horiz-adv-x="610" 
d="M301 700h130l-110 -132h-90zM305 528c216 0 262 -177 262 -274s-46 -274 -262 -274s-262 176 -262 274c0 97 46 274 262 274zM305 446c-43 0 -134 -18 -134 -192s91 -192 134 -192s134 18 134 192s-91 192 -134 192z" />
    <glyph glyph-name="afii10085.var.accented" unicode="&#x443;`" horiz-adv-x="541" 
d="M266 700h130l-110 -132h-90zM105 -183v82c12 -3 27 -6 46 -6c47 0 63 24 80 84l7 24l-231 507h144l153 -378l117 378h120l-194 -552c-16 -46 -42 -145 -167 -145c-23 0 -51 2 -75 6z" />
    <glyph glyph-name="afii10093.var.accented" unicode="&#x44b;`" horiz-adv-x="772" 
d="M72 508h120v-196h117c81 0 211 -5 211 -157c0 -140 -114 -155 -183 -155h-265v508zM192 230v-148h116c47 0 88 20 88 76c0 73 -69 72 -88 72h-116zM580 508h120v-508h-120v508zM382 700h130l-110 -132h-90z" />
    <glyph glyph-name="afii10095.var.accented" unicode="&#x44d;`" horiz-adv-x="588" 
d="M220 220v82h197c-3 68 -44 144 -134 144c-69 0 -123 -34 -130 -97h-114c13 115 115 179 249 179c65 0 257 -15 257 -275c0 -43 -4 -273 -268 -273c-171 0 -232 104 -240 192h114c3 -57 46 -110 124 -110c105 0 139 97 142 158h-197zM290 700h130l-110 -132h-90z" />
    <glyph glyph-name="afii10096.var.accented" unicode="&#x44e;`" horiz-adv-x="828" 
d="M192 309h75c8 116 100 219 256 219c216 0 262 -177 262 -274s-46 -274 -262 -274c-179 0 -256 128 -259 247h-72v-227h-120v508h120v-199zM389 254c0 -174 91 -192 134 -192s134 18 134 192s-91 192 -134 192s-134 -18 -134 -192zM410 700h130l-110 -132h-90z" />
    <glyph glyph-name="afii10097.var.accented" unicode="&#x44f;`" horiz-adv-x="577" 
d="M307 189l-138 -189h-132l150 190c-51 5 -139 34 -139 151c0 165 149 167 182 167h275v-508h-120v189h-78zM385 426h-106c-72 0 -107 -20 -107 -80c0 -52 31 -75 107 -75h106v155zM284 700h130l-110 -132h-90z" />
    <glyph glyph-name="f_f" unicode="ff" horiz-adv-x="590" 
d="M108 508v64c0 116 73 133 136 133c27 0 48 -2 68 -5v-82c-5 0 -21 2 -30 2c-53 0 -54 -43 -54 -64v-48h112v64c0 61 15 133 157 133c33 0 56 -2 79 -5v-82c-11 1 -31 2 -48 2c-69 0 -68 -46 -68 -64v-48h116v-82h-116v-426h-120v426h-112v-426h-120v426h-94v82h94z" />
    <glyph glyph-name="fi" unicode="fi" horiz-adv-x="532" 
d="M108 508v64c0 116 73 133 136 133c27 0 48 -2 68 -5v-82c-5 0 -21 2 -30 2c-53 0 -54 -43 -54 -64v-48h232v-508h-120v426h-112v-426h-120v426h-94v82h94zM340 594v106h120v-106h-120z" />
    <glyph glyph-name="fl" unicode="fl" horiz-adv-x="532" 
d="M228 508h112v192h120v-700h-120v426h-112v-426h-120v426h-94v82h94v64c0 116 73 133 136 133c27 0 48 -2 68 -5v-82c-5 0 -21 2 -30 2c-53 0 -54 -43 -54 -64v-48z" />
    <glyph glyph-name="f_f_i" unicode="ffi" horiz-adv-x="764" 
d="M108 508v64c0 116 73 133 136 133c27 0 48 -2 68 -5v-82c-5 0 -21 2 -30 2c-53 0 -54 -43 -54 -64v-48h112v64c0 116 73 133 136 133c27 0 48 -2 68 -5v-82c-5 0 -21 2 -30 2c-53 0 -54 -43 -54 -64v-48h232v-508h-120v426h-112v-426h-120v426h-112v-426h-120v426h-94v82
h94zM572 594v106h120v-106h-120z" />
    <glyph glyph-name="f_f_l" unicode="ffl" horiz-adv-x="764" 
d="M108 508v64c0 116 73 133 136 133c27 0 48 -2 68 -5v-82c-5 0 -21 2 -30 2c-53 0 -54 -43 -54 -64v-48h112v64c0 116 73 133 136 133c27 0 48 -2 68 -5v-82c-5 0 -21 2 -30 2c-53 0 -54 -43 -54 -64v-48h112v192h120v-700h-120v426h-112v-426h-120v426h-112v-426h-120
v426h-94v82h94z" />
    <glyph glyph-name=".notdef" horiz-adv-x="500" 
d="M58 8h384v496h-384v-496zM50 0v512h400v-512h-400z" />
    <glyph glyph-name="NULL" horiz-adv-x="0" 
 />
    <glyph glyph-name="NULL" horiz-adv-x="0" 
 />
    <glyph glyph-name="uni000D" unicode="&#xd;" horiz-adv-x="233" 
 />
    <glyph glyph-name="space" unicode=" " horiz-adv-x="233" 
 />
    <glyph glyph-name="exclam" unicode="!" horiz-adv-x="344" 
d="M106 700h132v-241l-34 -240h-64l-34 240v241zM106 0v135h132v-135h-132z" />
    <glyph glyph-name="quotedbl" unicode="&#x22;" horiz-adv-x="500" 
d="M220 700l-51 -192h-68l-51 192h170zM450 700l-51 -192h-68l-51 192h170z" />
    <glyph glyph-name="numbersign" unicode="#" horiz-adv-x="730" 
d="M464 10h-92l24 153h-120l-24 -153h-92l24 153h-134l15 100h134l28 179h-134l15 100h134l24 152h92l-24 -152h120l24 152h92l-24 -152h134l-15 -100h-134l-28 -179h134l-15 -100h-134zM411 263l28 179h-120l-28 -179h120z" />
    <glyph glyph-name="dollar" unicode="$" 
d="M36 205h110c1 -31 10 -66 30 -93c15 -20 42 -43 85 -46v250c-51 8 -122 32 -160 67c-25 23 -51 65 -51 134c0 73 29 123 74 158c36 27 86 43 137 44v58h82v-58c56 -1 115 -21 154 -57c33 -31 59 -84 59 -147h-110c3 35 -11 64 -30 84c-5 5 -30 30 -73 34v-218
c68 -11 113 -26 148 -51c56 -40 73 -90 73 -161c0 -44 -6 -118 -73 -171c-39 -31 -95 -49 -148 -52v-73h-82v73c-51 -1 -107 13 -146 41c-70 52 -79 142 -79 184zM261 432v201c-23 -2 -41 -10 -55 -24c-16 -16 -28 -43 -28 -82c0 -72 57 -92 83 -95zM343 299v-233
c24 1 44 9 60 24c24 23 33 63 33 98c0 27 -5 57 -32 82c-8 8 -28 25 -61 29z" />
    <glyph glyph-name="percent" unicode="%" horiz-adv-x="950" 
d="M218 0l421 700h93l-421 -700h-93zM224 708c109 0 170 -85 170 -200s-61 -200 -170 -200s-170 85 -170 200s61 200 170 200zM224 642c-21 0 -90 -3 -90 -134s69 -134 90 -134s90 3 90 134s-69 134 -90 134zM726 392c109 0 170 -85 170 -200s-61 -200 -170 -200
s-170 85 -170 200s61 200 170 200zM726 326c-21 0 -90 -3 -90 -134s69 -134 90 -134s90 3 90 134s-69 134 -90 134z" />
    <glyph glyph-name="ampersand" unicode="&#x26;" horiz-adv-x="706" 
d="M546 314h104c-11 -61 -37 -125 -65 -168l121 -146h-138l-55 67c-57 -61 -130 -88 -218 -88c-152 0 -223 105 -223 212c0 111 72 172 166 215c-39 41 -62 97 -62 141c0 92 70 153 177 153c131 0 165 -90 165 -148c0 -77 -46 -131 -126 -174l125 -148c9 15 22 41 29 84z
M452 143l-153 187c-68 -28 -99 -70 -99 -135c0 -69 44 -122 116 -122c64 0 113 42 136 70zM335 448c70 32 77 75 77 100c0 28 -7 70 -60 70c-32 0 -70 -13 -70 -64c0 -35 17 -65 53 -106z" />
    <glyph glyph-name="quotesingle" unicode="'" horiz-adv-x="270" 
d="M220 700l-51 -192h-68l-51 192h170z" />
    <glyph glyph-name="parenleft" unicode="(" horiz-adv-x="394" 
d="M218 700h92c-91 -176 -122 -325 -122 -442c0 -132 47 -303 122 -442h-92c-104 177 -148 298 -148 442s44 265 148 442z" />
    <glyph glyph-name="parenright" unicode=")" horiz-adv-x="394" 
d="M176 -184h-92c91 176 122 323 122 442c0 134 -48 301 -122 442h92c104 -177 148 -298 148 -442s-44 -265 -148 -442z" />
    <glyph glyph-name="asterisk" unicode="*" horiz-adv-x="468" 
d="M234 515l-75 -101l-51 37l73 102l-115 38l19 58l117 -38v124h64v-124l117 38l19 -58l-115 -38l73 -102l-51 -37z" />
    <glyph glyph-name="plus" unicode="+" 
d="M50 398h207v207h86v-207h207v-86h-207v-207h-86v207h-207v86z" />
    <glyph glyph-name="comma" unicode="," horiz-adv-x="344" 
d="M106 135h132v-139c0 -114 -71 -149 -132 -154v69c39 3 67 33 67 78v11h-67v135z" />
    <glyph glyph-name="hyphen" unicode="-" horiz-adv-x="420" 
d="M80 216v106h260v-106h-260z" />
    <glyph glyph-name="period" unicode="." horiz-adv-x="344" 
d="M106 0v135h132v-135h-132z" />
    <glyph glyph-name="slash" unicode="/" horiz-adv-x="440" 
d="M0 -185l358 885h82l-358 -885h-82z" />
    <glyph glyph-name="zero" unicode="0" 
d="M300 -21c-220 0 -255 226 -255 371s35 371 255 371s255 -226 255 -371s-35 -371 -255 -371zM300 85c40 0 125 13 125 265s-85 265 -125 265s-125 -13 -125 -265s85 -265 125 -265z" />
    <glyph glyph-name="one" unicode="1" 
d="M122 510v65h14c99 0 171 53 182 125h94v-700h-128v510h-162z" />
    <glyph glyph-name="two" unicode="2" 
d="M554 106v-106h-505c-3 187 123 251 235 320c75 45 147 90 147 182c0 29 -9 113 -126 113c-127 0 -133 -95 -133 -131v-17h-123v18c0 233 224 236 259 236c143 0 253 -68 253 -219c0 -152 -105 -207 -212 -271c-112 -69 -138 -88 -154 -125h359z" />
    <glyph glyph-name="three" unicode="3" 
d="M36 226h123v-13c0 -4 0 -8 1 -13c5 -51 33 -122 129 -122c15 0 28 1 43 5c80 21 88 94 88 123c0 100 -79 105 -122 105h-51v106h27c43 0 132 2 132 101c0 40 -16 97 -104 97s-119 -48 -120 -136h-123c-3 101 38 242 241 242c173 0 236 -88 236 -195
c0 -76 -47 -137 -120 -152v-2c69 -8 134 -62 134 -177c0 -138 -102 -216 -258 -216c-241 0 -256 175 -256 247z" />
    <glyph glyph-name="four" unicode="4" 
d="M352 153h-329v106l330 441h127v-441h97v-106h-97v-153h-128v153zM152 259h200v278z" />
    <glyph glyph-name="five" unicode="5" 
d="M71 189h123c5 -52 40 -111 127 -111c57 0 136 25 136 156c0 139 -99 144 -131 144c-34 0 -91 -10 -118 -58h-121l48 380h409v-106h-315l-23 -162c12 12 55 52 154 52c134 0 227 -86 227 -249c0 -245 -219 -256 -274 -256c-186 0 -231 122 -242 210z" />
    <glyph glyph-name="six" unicode="6" 
d="M555 541h-123c-16 68 -73 74 -111 74c-50 0 -145 -19 -153 -203h2c22 30 62 63 158 63c143 0 232 -86 232 -242c0 -160 -100 -254 -259 -254c-235 0 -259 201 -259 332c0 360 159 410 279 410c151 0 221 -89 234 -180zM172 227c0 -61 21 -142 129 -142
c92 0 129 64 129 142s-37 142 -129 142c-108 0 -129 -83 -129 -142z" />
    <glyph glyph-name="seven" unicode="7" 
d="M30 594v106h540v-88c-93 -96 -148 -184 -196 -299c-48 -109 -63 -186 -74 -313h-134c12 95 43 203 82 295c36 81 94 186 205 299h-423z" />
    <glyph glyph-name="eight" unicode="8" 
d="M169 375c-57 25 -93 78 -93 154c0 85 39 192 224 192s224 -107 224 -192c0 -76 -36 -129 -93 -154c43 -13 114 -57 114 -179c0 -188 -154 -217 -245 -217s-245 29 -245 217c0 121 70 166 114 179zM300 424c83 0 104 56 104 97c0 27 -11 94 -104 94s-104 -67 -104 -94
c0 -41 21 -97 104 -97zM300 85c84 0 115 61 115 117c0 47 -23 116 -115 116s-115 -69 -115 -116c0 -56 31 -117 115 -117z" />
    <glyph glyph-name="nine" unicode="9" 
d="M45 159h123c16 -68 73 -74 111 -74c50 0 145 19 153 203h-2c-22 -30 -62 -63 -158 -63c-143 0 -232 86 -232 242c0 160 100 254 259 254c235 0 259 -201 259 -332c0 -360 -156 -410 -279 -410c-151 0 -221 89 -234 180zM428 473c0 59 -21 142 -129 142
c-92 0 -129 -64 -129 -142s37 -142 129 -142c108 0 129 81 129 142z" />
    <glyph glyph-name="colon" unicode=":" horiz-adv-x="344" 
d="M106 373v135h132v-135h-132zM106 0v135h132v-135h-132z" />
    <glyph glyph-name="semicolon" unicode=";" horiz-adv-x="344" 
d="M106 373v135h132v-135h-132zM106 135h132v-139c0 -114 -71 -149 -132 -154v69c39 3 67 33 67 78v11h-67v135z" />
    <glyph glyph-name="less" unicode="&#x3c;" horiz-adv-x="678" 
d="M161 342l433 -237l-40 -72l-494 278v62l494 278l40 -72z" />
    <glyph glyph-name="equal" unicode="=" 
d="M50 488h500v-86h-500v86zM50 288h500v-86h-500v86z" />
    <glyph glyph-name="greater" unicode="&#x3e;" horiz-adv-x="678" 
d="M517 342l-433 237l40 72l494 -278v-62l-494 -278l-40 72z" />
    <glyph glyph-name="question" unicode="?" horiz-adv-x="576" 
d="M215 0v135h132v-135h-132zM176 484h-123c-3 92 35 237 239 237c172 0 231 -99 231 -196c0 -83 -46 -124 -95 -162c-74 -56 -95 -76 -95 -130v-18h-100c0 65 1 94 42 143c40 48 118 78 118 159c0 52 -28 98 -103 98c-59 0 -119 -28 -114 -131z" />
    <glyph glyph-name="at" unicode="@" horiz-adv-x="860" 
d="M581 94l35 -63c-51 -31 -104 -52 -185 -52c-204 0 -371 133 -371 372c0 223 160 370 371 370c253 0 369 -167 369 -350c0 -124 -75 -224 -186 -224c-40 0 -82 12 -97 43c-25 -39 -64 -49 -107 -49c-87 0 -173 56 -173 197c0 103 51 197 166 197c35 0 75 -13 98 -42h2v28
h100v-237c0 -21 0 -55 28 -55c32 0 89 32 89 142c0 130 -78 280 -289 280c-174 0 -291 -130 -291 -300c0 -176 119 -302 291 -302c65 0 111 18 150 45zM491 337c0 107 -49 116 -70 116c-59 0 -79 -59 -79 -116c0 -101 49 -114 78 -114c65 0 71 70 71 114z" />
    <glyph glyph-name="A" unicode="A" horiz-adv-x="648" 
d="M184 147l-51 -147h-137l264 700h128l264 -700h-137l-51 147h-280zM218 253h212l-106 311z" />
    <glyph glyph-name="B" unicode="B" horiz-adv-x="715" 
d="M85 700h330c178 0 213 -101 213 -177c0 -77 -48 -138 -116 -150v-2c58 -10 145 -50 145 -175c0 -177 -151 -196 -256 -196h-316v700zM213 594v-178h169c72 0 114 22 114 83c0 92 -90 95 -117 95h-166zM213 310v-204h175c77 0 137 20 137 104c0 93 -81 100 -134 100h-178z
" />
    <glyph glyph-name="C" unicode="C" horiz-adv-x="733" 
d="M568 239h127c-11 -107 -66 -260 -303 -260c-54 0 -347 5 -347 359c0 288 166 383 340 383c240 0 295 -147 300 -247h-127c-8 58 -42 141 -173 141c-156 0 -203 -127 -203 -272c0 -165 90 -258 216 -258c116 0 165 79 170 154z" />
    <glyph glyph-name="D" unicode="D" horiz-adv-x="746" 
d="M85 700h278c288 0 338 -198 338 -348c0 -316 -222 -352 -363 -352h-253v700zM213 594v-488h119c62 0 232 10 232 244c0 216 -135 244 -212 244h-139z" />
    <glyph glyph-name="E" unicode="E" horiz-adv-x="638" 
d="M213 412h356v-106h-356v-200h408v-106h-536v700h525v-106h-397v-182z" />
    <glyph glyph-name="F" unicode="F" horiz-adv-x="594" 
d="M213 402h317v-106h-317v-296h-128v700h496v-106h-368v-192z" />
    <glyph glyph-name="G" unicode="G" horiz-adv-x="756" 
d="M412 375h286v-375h-92v95h-2c-37 -72 -106 -116 -217 -116c-163 0 -342 84 -342 359c0 329 217 383 344 383c239 0 293 -139 301 -237h-127c-8 53 -44 131 -174 131c-178 0 -207 -164 -207 -272c0 -208 133 -258 216 -258c61 0 182 28 185 184h-171v106z" />
    <glyph glyph-name="H" unicode="H" horiz-adv-x="738" 
d="M213 314v-314h-128v700h128v-280h312v280h128v-700h-128v314h-312z" />
    <glyph glyph-name="I" unicode="I" horiz-adv-x="298" 
d="M85 700h128v-700h-128v700z" />
    <glyph glyph-name="J" unicode="J" horiz-adv-x="551" 
d="M23 243h128v-29c0 -119 65 -129 102 -129c52 0 98 12 98 147v468h128v-452c0 -117 -14 -269 -227 -269c-187 0 -229 121 -229 225v39z" />
    <glyph glyph-name="K" unicode="K" horiz-adv-x="706" 
d="M213 385l306 315h172l-290 -290l309 -410h-172l-231 324l-94 -91v-233h-128v700h128v-315z" />
    <glyph glyph-name="L" unicode="L" horiz-adv-x="548" 
d="M554 106v-106h-469v700h128v-594h341z" />
    <glyph glyph-name="M" unicode="M" horiz-adv-x="934" 
d="M419 0l-206 554h-2l2 -27v-527h-128v700h191l191 -531l191 531h191v-700h-128v527l2 27h-2l-206 -554h-96z" />
    <glyph glyph-name="N" unicode="N" horiz-adv-x="770" 
d="M213 497v-497h-128v700h136l336 -497v497h128v-700h-136z" />
    <glyph glyph-name="O" unicode="O" horiz-adv-x="776" 
d="M388 721c61 0 343 -8 343 -371s-282 -371 -343 -371s-343 8 -343 371s282 371 343 371zM388 615c-172 0 -206 -157 -206 -265s34 -265 206 -265s206 157 206 265s-34 265 -206 265z" />
    <glyph glyph-name="P" unicode="P" horiz-adv-x="668" 
d="M85 700h279c110 0 272 -18 272 -217c0 -127 -71 -225 -273 -225h-150v-258h-128v700zM213 594v-230h149c59 0 142 8 142 113c0 112 -92 117 -141 117h-150z" />
    <glyph glyph-name="Q" unicode="Q" horiz-adv-x="776" 
d="M630 70l72 -92l-69 -62l-80 101c-24 -16 -72 -38 -165 -38c-61 0 -343 9 -343 371c0 363 282 371 343 371c56 0 343 -8 343 -371c0 -84 -18 -205 -101 -280zM479 264l72 -92c15 23 43 80 43 178c0 108 -34 265 -206 265s-206 -157 -206 -265c0 -107 34 -265 206 -265
c57 0 83 16 94 24l-77 97z" />
    <glyph glyph-name="R" unicode="R" horiz-adv-x="708" 
d="M85 0v700h313c85 0 253 -11 253 -195c0 -104 -61 -154 -117 -170v-2c99 -32 103 -119 103 -182c0 -93 0 -120 26 -151h-132c-21 31 -22 56 -22 146c0 64 -5 132 -148 132h-148v-278h-128zM213 594v-210h160c65 0 146 10 146 105c0 101 -91 105 -143 105h-163z" />
    <glyph glyph-name="S" unicode="S" horiz-adv-x="684" 
d="M45 225h127c3 -53 35 -140 182 -140c47 0 148 6 148 105c0 84 -82 100 -126 108c-28 5 -55 10 -82 17c-114 26 -217 60 -217 202c0 198 218 204 275 204c184 0 263 -98 271 -206h-127c-13 98 -109 100 -147 100c-19 0 -135 0 -135 -93c0 -72 79 -86 156 -99
c162 -29 269 -65 269 -220c0 -198 -175 -224 -293 -224c-239 0 -298 135 -301 246z" />
    <glyph glyph-name="T" unicode="T" horiz-adv-x="594" 
d="M233 594h-220v106h568v-106h-220v-594h-128v594z" />
    <glyph glyph-name="U" unicode="U" horiz-adv-x="722" 
d="M72 700h128v-411c0 -140 41 -204 161 -204s161 64 161 204v411h128v-431c0 -113 -20 -290 -289 -290s-289 177 -289 290v431z" />
    <glyph glyph-name="V" unicode="V" horiz-adv-x="622" 
d="M311 133l176 567h139l-241 -700h-148l-241 700h139z" />
    <glyph glyph-name="W" unicode="W" horiz-adv-x="944" 
d="M472 549l-124 -549h-162l-190 700h144l137 -552l123 552h144l123 -552l137 552h144l-190 -700h-162z" />
    <glyph glyph-name="X" unicode="X" horiz-adv-x="666" 
d="M333 447l155 253h160l-235 -342l253 -358h-165l-168 270l-168 -270h-165l253 358l-235 342h160z" />
    <glyph glyph-name="Y" unicode="Y" horiz-adv-x="634" 
d="M317 393l170 307h151l-257 -421v-279h-128v279l-257 421h151z" />
    <glyph glyph-name="Z" unicode="Z" horiz-adv-x="613" 
d="M45 700h520v-98l-378 -496h400v-106h-561v114l378 480h-359v106z" />
    <glyph glyph-name="bracketleft" unicode="[" horiz-adv-x="389" 
d="M106 700h230v-82h-112v-721h112v-82h-230v885z" />
    <glyph glyph-name="backslash" unicode="\" horiz-adv-x="440" 
d="M440 -185h-82l-358 885h82z" />
    <glyph glyph-name="bracketright" unicode="]" horiz-adv-x="389" 
d="M53 700h230v-885h-230v82h112v721h-112v82z" />
    <glyph glyph-name="asciicircum" unicode="^" horiz-adv-x="482" 
d="M177 700h128l127 -218h-96l-95 168l-95 -168h-96z" />
    <glyph glyph-name="underscore" unicode="_" horiz-adv-x="494" 
d="M0 -185v82h494v-82h-494z" />
    <glyph glyph-name="grave" unicode="`" horiz-adv-x="340" 
d="M174 700l70 -132h-90l-110 132h130z" />
    <glyph glyph-name="a" unicode="a" horiz-adv-x="577" 
d="M164 351h-114c-3 93 66 177 232 177c205 0 219 -120 219 -180v-203c0 -49 2 -65 44 -62v-83c-31 -3 -42 -3 -53 -3c-31 0 -88 4 -99 66c-44 -56 -101 -75 -169 -75c-176 0 -187 104 -187 147c0 105 94 137 117 142c39 11 75 12 118 19c16 3 33 4 49 7c42 5 60 5 60 55
c0 80 -60 88 -99 88c-88 0 -121 -47 -118 -95zM381 226v18c-13 -9 -29 -14 -86 -21c-82 -11 -134 -18 -134 -84c0 -39 23 -69 79 -69c60 0 141 24 141 156z" />
    <glyph glyph-name="b" unicode="b" horiz-adv-x="636" 
d="M72 700h120v-244c40 72 147 72 160 72c200 0 241 -169 241 -277c0 -197 -129 -271 -245 -271c-52 0 -119 14 -164 70h-2v-50h-110v700zM183 253c0 -115 47 -191 135 -191c53 0 147 25 147 188c0 144 -69 196 -142 196c-53 0 -140 -28 -140 -193z" />
    <glyph glyph-name="c" unicode="c" horiz-adv-x="574" 
d="M424 186h114c-8 -74 -54 -206 -240 -206c-173 0 -255 112 -255 273c0 260 185 275 251 275c156 0 231 -91 242 -189h-114c-5 52 -42 107 -121 107c-99 0 -130 -89 -130 -193c0 -159 80 -191 137 -191c89 0 113 77 116 124z" />
    <glyph glyph-name="d" unicode="d" horiz-adv-x="636" 
d="M444 700h120v-700h-110v50h-2c-48 -61 -124 -70 -164 -70c-119 0 -245 74 -245 271c0 144 70 277 241 277c13 0 120 0 160 -72v244zM171 250c0 -170 102 -188 143 -188c86 0 139 79 139 191c0 165 -88 193 -140 193c-73 0 -142 -52 -142 -196z" />
    <glyph glyph-name="e" unicode="e" horiz-adv-x="594" 
d="M429 147h114c-13 -66 -60 -167 -242 -167c-51 0 -258 9 -258 265c0 172 84 283 259 283c219 0 244 -176 248 -276c0 -11 1 -18 1 -29h-380c0 -65 32 -161 140 -161c54 0 110 29 118 85zM171 305h253c0 46 -17 141 -121 141c-93 0 -135 -75 -132 -141z" />
    <glyph glyph-name="f" unicode="f" horiz-adv-x="355" 
d="M342 508v-82h-115v-426h-120v426h-94v82h94v64c0 61 15 133 157 133c32 0 55 -2 78 -5v-82c-11 1 -31 2 -47 2c-69 0 -68 -47 -68 -64v-48h115z" />
    <glyph glyph-name="g" unicode="g" horiz-adv-x="640" 
d="M458 508h110v-485c0 -141 -96 -216 -257 -216c-124 0 -207 43 -222 144h110c10 -47 72 -60 117 -60c124 0 132 84 132 134v39c-40 -72 -147 -72 -160 -72c-171 0 -241 126 -241 265c0 197 126 271 245 271c41 0 115 -10 164 -70h2v50zM175 256c0 -166 100 -182 143 -182
c69 0 139 57 139 185c0 140 -69 187 -140 187c-89 0 -142 -70 -142 -190z" />
    <glyph glyph-name="h" unicode="h" horiz-adv-x="606" 
d="M72 700h120v-259c35 59 108 87 167 87c173 0 175 -151 175 -188v-340h-120v302c0 61 -1 144 -95 144c-33 0 -127 -14 -127 -162v-284h-120v700z" />
    <glyph glyph-name="i" unicode="i" horiz-adv-x="264" 
d="M72 508h120v-508h-120v508zM72 594v106h120v-106h-120z" />
    <glyph glyph-name="j" unicode="j" horiz-adv-x="264" 
d="M72 508h120v-535c0 -88 -15 -162 -143 -162c-17 0 -48 1 -68 4v82c65 1 91 19 91 83v528zM72 594v106h120v-106h-120z" />
    <glyph glyph-name="k" unicode="k" horiz-adv-x="564" 
d="M192 285l212 223h142l-198 -198l220 -310h-140l-163 237l-73 -74v-163h-120v700h120v-415z" />
    <glyph glyph-name="l" unicode="l" horiz-adv-x="264" 
d="M72 700h120v-700h-120v700z" />
    <glyph glyph-name="m" unicode="m" horiz-adv-x="916" 
d="M72 508h120v-63c32 57 101 83 158 83c71 0 116 -23 143 -92c37 60 104 92 181 92c153 0 170 -123 170 -209v-319h-120v312c0 63 -8 134 -88 134c-52 0 -118 -38 -118 -147v-299h-120v312c0 63 -8 134 -88 134c-52 0 -118 -38 -118 -147v-299h-120v508z" />
    <glyph glyph-name="n" unicode="n" horiz-adv-x="606" 
d="M72 508h120v-67c35 59 108 87 167 87c173 0 175 -151 175 -188v-340h-120v302c0 61 -1 144 -95 144c-33 0 -127 -14 -127 -162v-284h-120v508z" />
    <glyph glyph-name="o" unicode="o" horiz-adv-x="610" 
d="M305 528c216 0 262 -177 262 -274s-46 -274 -262 -274s-262 176 -262 274c0 97 46 274 262 274zM305 446c-43 0 -134 -18 -134 -192s91 -192 134 -192s134 18 134 192s-91 192 -134 192z" />
    <glyph glyph-name="p" unicode="p" horiz-adv-x="636" 
d="M72 508h110v-50h2c45 56 112 70 164 70c116 0 245 -74 245 -271c0 -108 -41 -277 -241 -277c-13 0 -120 0 -160 72v-237h-120v693zM183 253c0 -115 47 -191 135 -191c53 0 147 25 147 188c0 144 -69 196 -142 196c-53 0 -140 -28 -140 -193z" />
    <glyph glyph-name="q" unicode="q" horiz-adv-x="636" 
d="M454 508h110v-693h-120v237c-40 -72 -147 -72 -160 -72c-171 0 -241 133 -241 277c0 197 126 271 245 271c41 0 115 -10 164 -70h2v50zM171 250c0 -170 102 -188 143 -188c86 0 139 79 139 191c0 165 -88 193 -140 193c-73 0 -142 -52 -142 -196z" />
    <glyph glyph-name="r" unicode="r" horiz-adv-x="402" 
d="M388 518v-78c-159 3 -190 -87 -195 -161c-1 -9 -1 -17 -1 -26v-26v-227h-120v508h120v-93h2c35 85 118 103 174 103h20z" />
    <glyph glyph-name="s" unicode="s" horiz-adv-x="540" 
d="M36 155h120c0 -68 65 -93 119 -93c44 0 103 13 103 82c0 44 -26 60 -94 72l-55 9c-111 19 -166 56 -166 150c0 134 140 153 212 153c165 0 213 -71 216 -155h-113c-4 45 -40 73 -99 73c-49 0 -92 -14 -92 -63c0 -63 64 -70 131 -81c75 -13 186 -24 186 -151
c0 -124 -110 -171 -225 -171c-190 0 -238 99 -243 175z" />
    <glyph glyph-name="t" unicode="t" horiz-adv-x="342" 
d="M14 508h82v152h120v-152h106v-82h-106v-287c0 -35 0 -63 59 -63c20 0 34 2 47 6v-82c-30 -8 -63 -12 -98 -12c-125 0 -128 75 -128 111v327h-82v82z" />
    <glyph glyph-name="u" unicode="u" horiz-adv-x="606" 
d="M534 0h-120v67h-2c-33 -60 -104 -87 -169 -87c-168 0 -171 149 -171 188v340h120v-302c0 -58 3 -144 95 -144c126 0 127 138 127 162v284h120v-508z" />
    <glyph glyph-name="v" unicode="v" horiz-adv-x="504" 
d="M252 118l128 390h128l-186 -508h-140l-186 508h128z" />
    <glyph glyph-name="w" unicode="w" horiz-adv-x="771" 
d="M386 371l-91 -371h-122l-177 508h125l119 -372l90 372h112l89 -372l119 372h125l-177 -508h-122z" />
    <glyph glyph-name="x" unicode="x" horiz-adv-x="521" 
d="M261 337l118 171h131l-183 -243l194 -265h-128l-132 189l-132 -189h-129l194 265l-182 243h131z" />
    <glyph glyph-name="y" unicode="y" horiz-adv-x="541" 
d="M105 -183v82c12 -3 27 -6 46 -6c47 0 63 24 80 84l7 24l-231 507h144l153 -378l117 378h120l-194 -552c-16 -46 -42 -145 -167 -145c-23 0 -51 2 -75 6z" />
    <glyph glyph-name="z" unicode="z" horiz-adv-x="490" 
d="M46 508h401v-82l-281 -344h298v-82h-438v82l281 344h-261v82z" />
    <glyph glyph-name="braceleft" unicode="{" horiz-adv-x="366" 
d="M75 215v84c81 11 89 85 89 126c0 43 -4 38 -4 107c0 150 113 168 156 168v-66c-48 -21 -43 -80 -38 -135c3 -19 4 -38 4 -57c0 -106 -59 -160 -131 -184v-2c105 -36 130 -110 130 -178c0 -23 -1 -44 -3 -63c-5 -55 -10 -114 38 -135v-66c-43 0 -156 17 -156 168
c0 69 4 64 4 107c0 41 -8 115 -89 126z" />
    <glyph glyph-name="bar" unicode="|" horiz-adv-x="498" 
d="M208 -224v1053h82v-1053h-82z" />
    <glyph glyph-name="braceright" unicode="}" horiz-adv-x="366" 
d="M291 299v-84c-81 -11 -89 -85 -89 -126c0 -43 4 -38 4 -107c0 -151 -113 -168 -156 -168v66c48 21 43 80 38 135c-3 19 -4 38 -4 57c0 106 59 160 131 184v2c-105 36 -130 111 -130 177c0 23 1 45 3 64c5 55 10 114 -38 135v66c43 0 156 -18 156 -168
c0 -69 -4 -64 -4 -107c0 -41 8 -115 89 -126z" />
    <glyph glyph-name="asciitilde" unicode="~" horiz-adv-x="614" 
d="M96 278l-46 19c43 125 103 142 140 142c31 0 65 -8 90 -23l103 -55c17 -9 33 -13 50 -13c24 0 61 15 85 84l46 -19c-26 -76 -68 -142 -140 -142c-28 0 -65 8 -90 23l-103 55c-15 9 -33 13 -52 13c-43 0 -70 -41 -83 -84z" />
    <glyph glyph-name="Zcaron" horiz-adv-x="613" 
d="M45 700h520v-98l-378 -496h400v-106h-561v114l378 480h-359v106zM306 806l100 94h120l-134 -140h-172l-134 140h120z" />
    <glyph glyph-name="Zcaron" unicode="&#x17d;" horiz-adv-x="613" 
d="M45 700h520v-98l-378 -496h400v-106h-561v114l378 480h-359v106zM306 806l100 94h120l-134 -140h-172l-134 140h120z" />
    <glyph glyph-name="zcaron" horiz-adv-x="490" 
d="M46 508h401v-82l-281 -344h298v-82h-438v82l281 344h-261v82zM246 611l90 89h110l-120 -132h-160l-120 132h110z" />
    <glyph glyph-name="zcaron" unicode="&#x17e;" horiz-adv-x="490" 
d="M46 508h401v-82l-281 -344h298v-82h-438v82l281 344h-261v82zM246 611l90 89h110l-120 -132h-160l-120 132h110z" />
    <glyph glyph-name="uni00A0" unicode="&#xa0;" horiz-adv-x="233" 
 />
    <glyph glyph-name="exclamdown" unicode="&#xa1;" horiz-adv-x="344" 
d="M238 -185h-132v229l34 241h64l34 -241v-229zM238 508v-135h-132v135h132z" />
    <glyph glyph-name="cent" unicode="&#xa2;" 
d="M437 186h114c-11 -96 -73 -193 -201 -204v-74h-67v73c-107 3 -227 76 -227 272c0 233 150 271 227 274v67h67v-68c87 -11 186 -66 199 -187h-114c-5 42 -32 92 -85 103v-377c69 16 87 85 87 121zM283 67v375c-75 -16 -99 -98 -99 -189c0 -147 71 -178 99 -186z" />
    <glyph glyph-name="sterling" unicode="&#xa3;" 
d="M519 140l61 -84c-56 -60 -104 -77 -149 -77c-55 0 -93 19 -125 34c-27 11 -52 20 -84 20c-37 0 -73 -11 -113 -38l-59 87c100 65 104 123 104 160c0 33 -9 46 -12 51h-109v82h75c-28 40 -37 90 -37 125c0 117 72 221 253 221c151 0 238 -77 238 -229v-18h-112v16
c0 112 -53 149 -125 149c-91 0 -126 -74 -126 -133c0 -45 19 -78 42 -131h130v-82h-98c3 -11 3 -26 3 -41c0 -52 -32 -98 -67 -129l2 -4c16 8 34 11 65 11c32 0 54 -4 86 -19c19 -9 43 -24 72 -24c33 0 60 18 85 53z" />
    <glyph glyph-name="currency" unicode="&#xa4;" horiz-adv-x="816" 
d="M66 49l111 111c-39 56 -53 115 -53 170s12 115 53 170l-111 111l61 61l111 -111c57 44 119 57 170 57c97 0 149 -39 170 -57l111 111l61 -61l-111 -111c41 -55 55 -115 55 -170c0 -53 -15 -114 -55 -170l111 -111l-61 -61l-111 111c-22 -16 -71 -57 -171 -57
c-97 0 -147 38 -169 57l-111 -111zM227 330c0 -101 80 -181 181 -181s181 80 181 181s-80 181 -181 181s-181 -80 -181 -181z" />
    <glyph glyph-name="yen" unicode="&#xa5;" 
d="M323 393l149 307h151l-236 -421v-4h100v-54h-100v-52h100v-54h-100v-115h-128v115h-100v54h100v52h-100v54h100v4l-236 421h151z" />
    <glyph glyph-name="brokenbar" unicode="&#xa6;" horiz-adv-x="498" 
d="M208 206h82v-430h-82v430zM290 399h-82v430h82v-430z" />
    <glyph glyph-name="section" unicode="&#xa7;" horiz-adv-x="584" 
d="M466 557h-100c3 72 -33 85 -60 85c-47 0 -58 -39 -58 -60c0 -57 55 -80 105 -103c74 -37 167 -70 167 -199c0 -117 -84 -153 -113 -164c9 -6 57 -32 57 -111s-53 -154 -190 -154c-153 0 -173 118 -173 181h100c-5 -47 16 -99 71 -99c31 0 72 18 72 62
c0 60 -52 78 -101 100c-99 43 -179 98 -179 220c0 72 37 132 105 151c-19 19 -41 50 -41 103c0 80 48 155 176 155c27 0 167 -2 162 -167zM252 219l85 -49c5 3 55 26 55 87c0 55 -29 79 -61 95l-87 49c-23 -11 -52 -35 -52 -84c0 -61 38 -87 60 -98z" />
    <glyph glyph-name="dieresis" unicode="&#xa8;" horiz-adv-x="406" 
d="M50 594v106h116v-106h-116zM240 594v106h116v-106h-116z" />
    <glyph glyph-name="copyright" unicode="&#xa9;" horiz-adv-x="800" 
d="M50 350c0 192 154 350 350 350c192 0 350 -156 350 -350s-158 -350 -350 -350c-196 0 -350 158 -350 350zM130 350c0 -153 119 -280 270 -280c146 0 269 124 269 280s-123 280 -269 280c-151 0 -270 -127 -270 -280zM465 297h80c-5 -53 -36 -125 -141 -125
c-115 0 -170 75 -170 179c0 152 94 188 166 188c105 0 131 -67 136 -115h-76c0 28 -21 53 -60 53c-45 0 -78 -35 -78 -126c0 -113 59 -117 83 -117c11 0 57 1 60 63z" />
    <glyph glyph-name="ordfeminine" unicode="&#xaa;" horiz-adv-x="400" 
d="M123 615h-62c0 43 24 106 136 106c124 0 127 -70 127 -103v-124c0 -23 0 -39 31 -36v-54l-19 -3c-3 -1 -7 -1 -11 -1h-10c-17 0 -44 5 -47 42c-25 -32 -63 -42 -108 -42c-46 0 -109 13 -109 90c0 71 50 85 135 96c36 3 71 2 74 28v8c0 11 0 45 -64 45
c-55 0 -74 -25 -73 -52zM260 533v19c-12 -8 -24 -9 -63 -13c-32 -5 -80 -5 -80 -47c0 -36 36 -38 57 -38c11 0 86 3 86 79zM45 310v44h310v-44h-310z" />
    <glyph glyph-name="guillemotleft" unicode="&#xab;" horiz-adv-x="462" 
d="M116 270l95 -81v-106l-149 132v110l149 132v-106zM292 270l95 -81v-106l-149 132v110l149 132v-106z" />
    <glyph glyph-name="logicalnot" unicode="&#xac;" 
d="M50 405h500v-225h-86v139h-414v86z" />
    <glyph glyph-name="uni00AD" unicode="&#xad;" horiz-adv-x="420" 
d="M80 216v106h260v-106h-260z" />
    <glyph glyph-name="registered" unicode="&#xae;" horiz-adv-x="800" 
d="M50 350c0 193 157 350 350 350c195 0 350 -157 350 -350s-155 -350 -350 -350c-193 0 -350 157 -350 350zM130 350c0 -155 121 -280 270 -280s269 125 269 280s-120 280 -269 280s-270 -125 -270 -280zM272 178v350h153c116 0 117 -81 117 -102c0 -22 -5 -64 -59 -80v-2
c45 -8 47 -51 50 -83c3 -54 0 -64 14 -83h-82c-10 12 -12 21 -12 47c0 9 0 20 -1 33c0 27 -5 56 -77 56h-23v-136h-80zM352 466v-90h60c39 0 49 24 49 45c0 44 -44 45 -56 45h-53z" />
    <glyph glyph-name="overscore" unicode="&#xaf;" horiz-adv-x="430" 
d="M50 602v82h330v-82h-165h-165z" />
    <glyph glyph-name="degree" unicode="&#xb0;" horiz-adv-x="300" 
d="M50 600c0 55 43 100 100 100c55 0 100 -45 100 -100c0 -57 -45 -100 -100 -100c-57 0 -100 43 -100 100zM104 600c0 -27 19 -46 46 -46s46 19 46 46s-19 46 -46 46s-46 -19 -46 -46z" />
    <glyph glyph-name="plusminus" unicode="&#xb1;" 
d="M50 463h207v187h86v-187h207v-86h-207v-167h-86v167h-207v86zM50 166h500v-86h-500v86z" />
    <glyph glyph-name="twosuperior" unicode="&#xb2;" horiz-adv-x="372" 
d="M335 342v-62h-300c3 109 67 142 145 191c35 24 83 52 83 107c0 26 -13 73 -77 73c-78 0 -81 -61 -81 -80v-12h-70v13c0 61 33 141 152 141c103 0 150 -64 150 -131c0 -88 -66 -119 -133 -162c-37 -23 -67 -39 -86 -78h217z" />
    <glyph glyph-name="threesuperior" unicode="&#xb3;" horiz-adv-x="372" 
d="M34 415h70c0 -28 12 -86 80 -86c59 0 80 33 80 72c0 64 -62 65 -74 65h-31v64h27c53 0 70 30 70 65c0 41 -35 56 -71 56c-40 0 -67 -19 -70 -86h-70c0 72 30 148 142 148c72 0 139 -33 139 -116c0 -59 -41 -83 -72 -93v-4c36 -5 84 -27 84 -103c0 -94 -75 -130 -155 -130
c-118 0 -149 91 -149 148z" />
    <glyph glyph-name="acute" unicode="&#xb4;" horiz-adv-x="340" 
d="M166 700h130l-110 -132h-90z" />
    <glyph glyph-name="mu" unicode="&#xb5;" 
d="M205 45v-230h-120v693h120v-277c0 -40 0 -160 95 -160c40 0 95 24 95 160v277h120v-365c0 -25 0 -64 40 -61l13 1v-83c-21 -3 -56 -5 -77 -5c-39 0 -86 8 -96 60c-16 -34 -45 -75 -98 -75c-40 0 -76 30 -92 65z" />
    <glyph glyph-name="mu" unicode="&#x3bc;" 
d="M205 45v-230h-120v693h120v-277c0 -40 0 -160 95 -160c40 0 95 24 95 160v277h120v-365c0 -25 0 -64 40 -61l13 1v-83c-21 -3 -56 -5 -77 -5c-39 0 -86 8 -96 60c-16 -34 -45 -75 -98 -75c-40 0 -76 30 -92 65z" />
    <glyph glyph-name="paragraph" unicode="&#xb6;" horiz-adv-x="560" 
d="M219 -185v525c-109 0 -179 76 -179 180c0 116 71 180 179 180h82v-885h-82zM408 -185v885h82v-885h-82z" />
    <glyph glyph-name="middot" unicode="&#xb7;" horiz-adv-x="250" 
d="M59 200v135h132v-135h-132z" />
    <glyph glyph-name="cedilla" unicode="&#xb8;" horiz-adv-x="320" 
d="M50 -232l19 61c25 -8 45 -9 58 -9c48 0 53 23 53 34c0 28 -33 28 -52 28h-43l18 60h46c27 0 121 0 121 -90c0 -69 -63 -92 -141 -92c-19 0 -44 1 -79 8z" />
    <glyph glyph-name="onesuperior" unicode="&#xb9;" horiz-adv-x="372" 
d="M82 589v42h12c64 0 94 33 101 69h57v-420h-74v309h-96z" />
    <glyph glyph-name="ordmasculine" unicode="&#xba;" horiz-adv-x="390" 
d="M195 721c128 0 150 -106 150 -164s-22 -164 -150 -164s-150 106 -150 164s22 164 150 164zM195 667c-67 0 -82 -59 -82 -110s15 -110 82 -110s82 59 82 110s-15 110 -82 110zM45 310v44h300v-44h-300z" />
    <glyph glyph-name="guillemotright" unicode="&#xbb;" horiz-adv-x="462" 
d="M345 270l-94 81v106l149 -132v-110l-149 -132v106zM169 270l-94 81v106l149 -132v-110l-149 -132v106z" />
    <glyph glyph-name="onequarter" unicode="&#xbc;" horiz-adv-x="844" 
d="M692 94h-202v62l202 264h74v-264h60v-62h-60v-94h-74v94zM570 156h122v164zM82 589v42h12c64 0 94 33 101 69h57v-420h-74v309h-96zM192 0l428 700h72l-428 -700h-72z" />
    <glyph glyph-name="onehalf" unicode="&#xbd;" horiz-adv-x="844" 
d="M82 589v42h12c64 0 94 33 101 69h57v-420h-74v309h-96zM807 62v-62h-300c3 109 67 142 145 191c35 24 83 52 83 107c0 26 -13 73 -77 73c-78 0 -81 -61 -81 -80v-12h-70v13c0 61 33 141 152 141c103 0 150 -64 150 -131c0 -88 -66 -119 -133 -162
c-37 -23 -67 -39 -86 -78h217zM152 0l428 700h72l-428 -700h-72z" />
    <glyph glyph-name="threequarters" unicode="&#xbe;" horiz-adv-x="844" 
d="M34 415h70c0 -5 0 -9 1 -12c8 -66 56 -74 79 -74c59 0 80 33 80 72c0 64 -62 65 -74 65h-31v64h27c53 0 70 30 70 65c0 41 -35 56 -71 56c-40 0 -67 -19 -70 -86h-70c0 72 30 148 142 148c72 0 139 -33 139 -116c0 -59 -41 -83 -72 -93v-4c36 -5 84 -27 84 -103
c0 -94 -75 -130 -155 -130c-94 0 -136 59 -147 125c-1 8 -2 15 -2 23zM692 94h-202v62l202 264h74v-264h60v-62h-60v-94h-74v94zM570 156h122v164zM212 0l428 700h72l-428 -700h-72z" />
    <glyph glyph-name="questiondown" unicode="&#xbf;" horiz-adv-x="576" 
d="M361 508v-135h-132v135h132zM400 31h123c3 -92 -35 -237 -239 -237c-172 0 -231 99 -231 196c0 83 47 121 95 158c74 55 95 72 95 127v18h100c0 -65 -1 -91 -42 -140c-40 -46 -118 -75 -118 -155c0 -52 28 -98 103 -98c61 0 117 28 114 131z" />
    <glyph glyph-name="Agrave" unicode="&#xc0;" horiz-adv-x="648" 
d="M184 147l-51 -147h-137l264 700h128l264 -700h-137l-51 147h-280zM218 253h212l-106 311zM327 900l78 -140h-96l-118 140h136z" />
    <glyph glyph-name="Aacute" unicode="&#xc1;" horiz-adv-x="648" 
d="M184 147l-51 -147h-137l264 700h128l264 -700h-137l-51 147h-280zM218 253h212l-106 311zM321 900h136l-118 -140h-96z" />
    <glyph glyph-name="Acircumflex" unicode="&#xc2;" horiz-adv-x="648" 
d="M184 147l-51 -147h-137l264 700h128l264 -700h-137l-51 147h-280zM218 253h212l-106 311zM324 854l-100 -94h-120l134 140h172l134 -140h-120z" />
    <glyph glyph-name="Atilde" unicode="&#xc3;" horiz-adv-x="648" 
d="M184 147l-51 -147h-137l264 700h128l264 -700h-137l-51 147h-280zM218 253h212l-106 311zM455 880h80c-11 -51 -40 -116 -129 -116c-31 0 -50 7 -85 22c-27 11 -50 22 -77 22s-48 -13 -51 -36h-80c8 55 45 116 129 116c32 0 50 -5 85 -20c35 -13 46 -24 77 -24
c32 0 48 17 51 36z" />
    <glyph glyph-name="Adieresis" unicode="&#xc4;" horiz-adv-x="648" 
d="M184 147l-51 -147h-137l264 700h128l264 -700h-137l-51 147h-280zM218 253h212l-106 311zM141 772v88h128v-88h-128zM379 772v88h128v-88h-128z" />
    <glyph glyph-name="Aring" unicode="&#xc5;" horiz-adv-x="648" 
d="M184 147l-51 -147h-137l264 700h128l264 -700h-137l-51 147h-280zM218 253h212l-106 311zM224 820c0 55 43 100 100 100c55 0 100 -45 100 -100c0 -57 -45 -100 -100 -100c-57 0 -100 43 -100 100zM280 820c0 -24 20 -44 44 -44s44 20 44 44s-20 44 -44 44
s-44 -20 -44 -44z" />
    <glyph glyph-name="AE" unicode="&#xc6;" horiz-adv-x="1062" 
d="M509 0v154h-278l-84 -154h-152l397 700h642v-106h-397v-182h356v-106h-356v-200h408v-106h-536zM509 260v334h-42l-180 -334h222z" />
    <glyph glyph-name="Ccedilla" unicode="&#xc7;" horiz-adv-x="733" 
d="M568 239h127c-11 -107 -66 -260 -303 -260c-54 0 -347 5 -347 359c0 288 166 383 340 383c240 0 295 -147 300 -247h-127c-8 58 -42 141 -173 141c-156 0 -203 -127 -203 -272c0 -165 90 -258 216 -258c116 0 165 79 170 154zM257 -232l19 61c25 -8 45 -9 58 -9
c48 0 53 23 53 34c0 28 -33 28 -52 28h-43l18 60h46c27 0 121 0 121 -90c0 -69 -63 -92 -141 -92c-19 0 -44 1 -79 8z" />
    <glyph glyph-name="Egrave" unicode="&#xc8;" horiz-adv-x="638" 
d="M213 412h356v-106h-356v-200h408v-106h-536v700h525v-106h-397v-182zM322 900l78 -140h-96l-118 140h136z" />
    <glyph glyph-name="Eacute" unicode="&#xc9;" horiz-adv-x="638" 
d="M213 412h356v-106h-356v-200h408v-106h-536v700h525v-106h-397v-182zM316 900h136l-118 -140h-96z" />
    <glyph glyph-name="Ecircumflex" unicode="&#xca;" horiz-adv-x="638" 
d="M213 412h356v-106h-356v-200h408v-106h-536v700h525v-106h-397v-182zM319 854l-100 -94h-120l134 140h172l134 -140h-120z" />
    <glyph glyph-name="Edieresis" unicode="&#xcb;" horiz-adv-x="638" 
d="M213 412h356v-106h-356v-200h408v-106h-536v700h525v-106h-397v-182zM136 772v88h128v-88h-128zM374 772v88h128v-88h-128z" />
    <glyph glyph-name="Igrave" unicode="&#xcc;" horiz-adv-x="298" 
d="M85 700h128v-700h-128v700zM132 900l78 -140h-96l-118 140h136z" />
    <glyph glyph-name="Iacute" unicode="&#xcd;" horiz-adv-x="298" 
d="M85 700h128v-700h-128v700zM130 900h136l-118 -140h-96z" />
    <glyph glyph-name="Icircumflex" unicode="&#xce;" horiz-adv-x="298" 
d="M85 700h128v-700h-128v700zM149 854l-100 -94h-120l134 140h172l134 -140h-120z" />
    <glyph glyph-name="Idieresis" unicode="&#xcf;" horiz-adv-x="298" 
d="M85 700h128v-700h-128v700zM-31 772v88h128v-88h-128zM207 772v88h128v-88h-128z" />
    <glyph glyph-name="Eth" unicode="&#xd0;" horiz-adv-x="756" 
d="M95 700h278c288 0 338 -198 338 -348c0 -316 -222 -352 -363 -352h-253v356h-95v82h95v262zM223 594v-156h197v-82h-197v-250h119c61 0 232 10 232 244c0 216 -135 244 -212 244h-139z" />
    <glyph glyph-name="Ntilde" unicode="&#xd1;" horiz-adv-x="770" 
d="M213 497v-497h-128v700h136l336 -497v497h128v-700h-136zM516 880h80c-11 -51 -40 -116 -129 -116c-31 0 -50 7 -85 22c-27 11 -50 22 -77 22s-48 -13 -51 -36h-80c8 55 45 116 129 116c32 0 50 -5 85 -20c35 -13 46 -24 77 -24c32 0 48 17 51 36z" />
    <glyph glyph-name="Ograve" unicode="&#xd2;" horiz-adv-x="776" 
d="M388 721c61 0 343 -8 343 -371s-282 -371 -343 -371s-343 8 -343 371s282 371 343 371zM388 615c-172 0 -206 -157 -206 -265s34 -265 206 -265s206 157 206 265s-34 265 -206 265zM391 900l78 -140h-96l-118 140h136z" />
    <glyph glyph-name="Oacute" unicode="&#xd3;" horiz-adv-x="776" 
d="M388 721c61 0 343 -8 343 -371s-282 -371 -343 -371s-343 8 -343 371s282 371 343 371zM388 615c-172 0 -206 -157 -206 -265s34 -265 206 -265s206 157 206 265s-34 265 -206 265zM385 900h136l-118 -140h-96z" />
    <glyph glyph-name="Ocircumflex" unicode="&#xd4;" horiz-adv-x="776" 
d="M388 721c61 0 343 -8 343 -371s-282 -371 -343 -371s-343 8 -343 371s282 371 343 371zM388 615c-172 0 -206 -157 -206 -265s34 -265 206 -265s206 157 206 265s-34 265 -206 265zM388 854l-100 -94h-120l134 140h172l134 -140h-120z" />
    <glyph glyph-name="Otilde" unicode="&#xd5;" horiz-adv-x="776" 
d="M388 721c61 0 343 -8 343 -371s-282 -371 -343 -371s-343 8 -343 371s282 371 343 371zM388 615c-172 0 -206 -157 -206 -265s34 -265 206 -265s206 157 206 265s-34 265 -206 265zM519 880h80c-11 -51 -40 -116 -129 -116c-31 0 -50 7 -85 22c-27 11 -50 22 -77 22
s-48 -13 -51 -36h-80c8 55 45 116 129 116c32 0 50 -5 85 -20c35 -13 46 -24 77 -24c32 0 48 17 51 36z" />
    <glyph glyph-name="Odieresis" unicode="&#xd6;" horiz-adv-x="776" 
d="M388 721c61 0 343 -8 343 -371s-282 -371 -343 -371s-343 8 -343 371s282 371 343 371zM388 615c-172 0 -206 -157 -206 -265s34 -265 206 -265s206 157 206 265s-34 265 -206 265zM205 772v88h128v-88h-128zM443 772v88h128v-88h-128z" />
    <glyph glyph-name="multiply" unicode="&#xd7;" 
d="M56 166l183 183l-183 183l61 61l183 -183l183 183l61 -61l-183 -183l183 -183l-61 -61l-183 183l-183 -183z" />
    <glyph glyph-name="Oslash" unicode="&#xd8;" horiz-adv-x="796" 
d="M751 722l-90 -111c42 -50 80 -123 80 -261c0 -173 -67 -263 -131 -311c-71 -51 -148 -60 -212 -60c-120 0 -176 34 -206 56l-87 -107l-60 50l90 110c-40 51 -80 125 -80 262c0 173 67 263 131 311c71 51 148 60 212 60c132 0 187 -40 206 -56l87 107zM222 195l306 376
c-45 37 -91 44 -130 44c-172 0 -206 -157 -206 -265c0 -47 7 -106 30 -155zM574 505l-306 -376c27 -23 65 -44 130 -44c172 0 206 158 206 265c0 47 -7 106 -30 155z" />
    <glyph glyph-name="Ugrave" unicode="&#xd9;" horiz-adv-x="722" 
d="M72 700h128v-411c0 -140 41 -204 161 -204s161 64 161 204v411h128v-431c0 -113 -20 -290 -289 -290s-289 177 -289 290v431zM364 900l78 -140h-96l-118 140h136z" />
    <glyph glyph-name="Uacute" unicode="&#xda;" horiz-adv-x="722" 
d="M72 700h128v-411c0 -140 41 -204 161 -204s161 64 161 204v411h128v-431c0 -113 -20 -290 -289 -290s-289 177 -289 290v431zM358 900h136l-118 -140h-96z" />
    <glyph glyph-name="Ucircumflex" unicode="&#xdb;" horiz-adv-x="722" 
d="M72 700h128v-411c0 -140 41 -204 161 -204s161 64 161 204v411h128v-431c0 -113 -20 -290 -289 -290s-289 177 -289 290v431zM361 854l-100 -94h-120l134 140h172l134 -140h-120z" />
    <glyph glyph-name="Udieresis" unicode="&#xdc;" horiz-adv-x="722" 
d="M72 700h128v-411c0 -140 41 -204 161 -204s161 64 161 204v411h128v-431c0 -113 -20 -290 -289 -290s-289 177 -289 290v431zM178 772v88h128v-88h-128zM416 772v88h128v-88h-128z" />
    <glyph glyph-name="Yacute" unicode="&#xdd;" horiz-adv-x="634" 
d="M317 393l170 307h151l-257 -421v-279h-128v279l-257 421h151zM314 900h136l-118 -140h-96z" />
    <glyph glyph-name="Thorn" unicode="&#xde;" horiz-adv-x="670" 
d="M85 700h128v-121h182c76 0 243 -15 243 -225c0 -213 -200 -217 -244 -217h-181v-137h-128v700zM213 473v-230h156c84 0 137 29 137 117c0 104 -81 113 -134 113h-159z" />
    <glyph glyph-name="germandbls" unicode="&#xdf;" horiz-adv-x="595" 
d="M72 0v458c0 112 7 262 227 262c128 0 204 -61 204 -182c0 -55 -22 -108 -90 -135v-2c59 -13 146 -54 146 -191c0 -167 -110 -218 -233 -218c-25 0 -44 1 -67 8v82c15 -5 30 -8 51 -8c94 0 124 73 124 141c0 125 -97 133 -154 133h-21v82h25c92 0 99 73 99 104
c0 73 -36 104 -91 104c-91 0 -100 -76 -100 -151v-487h-120z" />
    <glyph glyph-name="agrave" unicode="&#xe0;" horiz-adv-x="577" 
d="M164 351h-114c-3 93 66 177 232 177c205 0 219 -120 219 -180v-203c0 -49 2 -65 44 -62v-83c-31 -3 -42 -3 -53 -3c-31 0 -88 4 -99 66c-44 -56 -101 -75 -169 -75c-176 0 -187 104 -187 147c0 105 94 137 117 142c39 11 75 12 118 19c16 3 33 4 49 7c42 5 60 5 60 55
c0 80 -60 88 -99 88c-88 0 -121 -47 -118 -95zM381 226v18c-13 -9 -29 -14 -86 -21c-82 -11 -134 -18 -134 -84c0 -39 23 -69 79 -69c60 0 141 24 141 156zM292 700l70 -132h-90l-110 132h130z" />
    <glyph glyph-name="aacute" unicode="&#xe1;" horiz-adv-x="577" 
d="M164 351h-114c-3 93 66 177 232 177c205 0 219 -120 219 -180v-203c0 -49 2 -65 44 -62v-83c-31 -3 -42 -3 -53 -3c-31 0 -88 4 -99 66c-44 -56 -101 -75 -169 -75c-176 0 -187 104 -187 147c0 105 94 137 117 142c39 11 75 12 118 19c16 3 33 4 49 7c42 5 60 5 60 55
c0 80 -60 88 -99 88c-88 0 -121 -47 -118 -95zM381 226v18c-13 -9 -29 -14 -86 -21c-82 -11 -134 -18 -134 -84c0 -39 23 -69 79 -69c60 0 141 24 141 156zM284 700h130l-110 -132h-90z" />
    <glyph glyph-name="acircumflex" unicode="&#xe2;" horiz-adv-x="577" 
d="M164 351h-114c-3 93 66 177 232 177c205 0 219 -120 219 -180v-203c0 -49 2 -65 44 -62v-83c-31 -3 -42 -3 -53 -3c-31 0 -88 4 -99 66c-44 -56 -101 -75 -169 -75c-176 0 -187 104 -187 147c0 105 94 137 117 142c39 11 75 12 118 19c16 3 33 4 49 7c42 5 60 5 60 55
c0 80 -60 88 -99 88c-88 0 -121 -47 -118 -95zM381 226v18c-13 -9 -29 -14 -86 -21c-82 -11 -134 -18 -134 -84c0 -39 23 -69 79 -69c60 0 141 24 141 156zM288 657l-90 -89h-110l120 132h160l120 -132h-110z" />
    <glyph glyph-name="atilde" unicode="&#xe3;" horiz-adv-x="577" 
d="M164 351h-114c-3 93 66 177 232 177c205 0 219 -120 219 -180v-203c0 -49 2 -65 44 -62v-83c-31 -3 -42 -3 -53 -3c-31 0 -88 4 -99 66c-44 -56 -101 -75 -169 -75c-176 0 -187 104 -187 147c0 105 94 137 117 142c39 11 75 12 118 19c16 3 33 4 49 7c42 5 60 5 60 55
c0 80 -60 88 -99 88c-88 0 -121 -47 -118 -95zM381 226v18c-13 -9 -29 -14 -86 -21c-82 -11 -134 -18 -134 -84c0 -39 23 -69 79 -69c60 0 141 24 141 156zM406 700h74c-11 -65 -63 -102 -118 -102c-29 0 -53 10 -77 22c-24 11 -44 22 -69 22c-33 0 -43 -21 -46 -36h-74
c8 53 51 102 118 102c31 0 52 -8 77 -20c29 -13 41 -24 69 -24c33 0 43 21 46 36z" />
    <glyph glyph-name="adieresis" unicode="&#xe4;" horiz-adv-x="577" 
d="M164 351h-114c-3 93 66 177 232 177c205 0 219 -120 219 -180v-203c0 -49 2 -65 44 -62v-83c-31 -3 -42 -3 -53 -3c-31 0 -88 4 -99 66c-44 -56 -101 -75 -169 -75c-176 0 -187 104 -187 147c0 105 94 137 117 142c39 11 75 12 118 19c16 3 33 4 49 7c42 5 60 5 60 55
c0 80 -60 88 -99 88c-88 0 -121 -47 -118 -95zM381 226v18c-13 -9 -29 -14 -86 -21c-82 -11 -134 -18 -134 -84c0 -39 23 -69 79 -69c60 0 141 24 141 156zM135 594v106h116v-106h-116zM325 594v106h116v-106h-116z" />
    <glyph glyph-name="aring" unicode="&#xe5;" horiz-adv-x="577" 
d="M164 351h-114c-3 93 66 177 232 177c205 0 219 -120 219 -180v-203c0 -49 2 -65 44 -62v-83c-31 -3 -42 -3 -53 -3c-31 0 -88 4 -99 66c-44 -56 -101 -75 -169 -75c-176 0 -187 104 -187 147c0 105 94 137 117 142c39 11 75 12 118 19c16 3 33 4 49 7c42 5 60 5 60 55
c0 80 -60 88 -99 88c-88 0 -121 -47 -118 -95zM381 226v18c-13 -9 -29 -14 -86 -21c-82 -11 -134 -18 -134 -84c0 -39 23 -69 79 -69c60 0 141 24 141 156zM194 634c0 51 43 94 94 94s94 -43 94 -94s-43 -94 -94 -94s-94 43 -94 94zM244 634c0 -24 20 -44 44 -44
s44 20 44 44s-20 44 -44 44s-44 -20 -44 -44z" />
    <glyph glyph-name="ae" unicode="&#xe6;" horiz-adv-x="930" 
d="M164 351h-114c-3 91 66 177 232 177c77 0 144 -15 173 -79c53 74 143 79 183 79c58 0 249 -13 249 -276v-29h-380c0 -65 32 -161 140 -161c54 0 110 29 118 85h114c-13 -66 -60 -167 -242 -167c-72 0 -150 15 -198 92c-42 -76 -143 -92 -215 -92c-65 0 -187 13 -187 155
c0 105 94 137 117 142c41 11 86 15 167 26c42 5 60 5 60 55c0 80 -60 88 -99 88c-88 0 -121 -47 -118 -95zM381 218v26c-13 -9 -29 -14 -86 -21c-83 -11 -134 -18 -134 -84c0 -43 23 -77 79 -77c60 0 141 24 141 156zM507 305h253c0 46 -17 141 -121 141
c-93 0 -135 -75 -132 -141z" />
    <glyph glyph-name="ccedilla" unicode="&#xe7;" horiz-adv-x="574" 
d="M424 186h114c-8 -74 -54 -206 -240 -206c-173 0 -255 112 -255 273c0 260 185 275 251 275c156 0 231 -91 242 -189h-114c-5 52 -42 107 -121 107c-99 0 -130 -89 -130 -193c0 -159 80 -191 137 -191c89 0 113 77 116 124zM175 -232l19 61c25 -8 45 -9 58 -9
c48 0 53 23 53 34c0 28 -33 28 -52 28h-43l18 60h46c27 0 121 0 121 -90c0 -69 -63 -92 -141 -92c-19 0 -44 1 -79 8z" />
    <glyph glyph-name="egrave" unicode="&#xe8;" horiz-adv-x="594" 
d="M429 147h114c-13 -66 -60 -167 -242 -167c-51 0 -258 9 -258 265c0 172 84 283 259 283c219 0 244 -176 248 -276c0 -11 1 -18 1 -29h-380c0 -65 32 -161 140 -161c54 0 110 29 118 85zM171 305h253c0 46 -17 141 -121 141c-93 0 -135 -75 -132 -141zM301 700l70 -132
h-90l-110 132h130z" />
    <glyph glyph-name="eacute" unicode="&#xe9;" horiz-adv-x="594" 
d="M429 147h114c-13 -66 -60 -167 -242 -167c-51 0 -258 9 -258 265c0 172 84 283 259 283c219 0 244 -176 248 -276c0 -11 1 -18 1 -29h-380c0 -65 32 -161 140 -161c54 0 110 29 118 85zM171 305h253c0 46 -17 141 -121 141c-93 0 -135 -75 -132 -141zM293 700h130
l-110 -132h-90z" />
    <glyph glyph-name="ecircumflex" unicode="&#xea;" horiz-adv-x="594" 
d="M429 147h114c-13 -66 -60 -167 -242 -167c-51 0 -258 9 -258 265c0 172 84 283 259 283c219 0 244 -176 248 -276c0 -11 1 -18 1 -29h-380c0 -65 32 -161 140 -161c54 0 110 29 118 85zM171 305h253c0 46 -17 141 -121 141c-93 0 -135 -75 -132 -141zM297 657l-90 -89
h-110l120 132h160l120 -132h-110z" />
    <glyph glyph-name="edieresis" unicode="&#xeb;" horiz-adv-x="594" 
d="M429 147h114c-13 -66 -60 -167 -242 -167c-51 0 -258 9 -258 265c0 172 84 283 259 283c219 0 244 -176 248 -276c0 -11 1 -18 1 -29h-380c0 -65 32 -161 140 -161c54 0 110 29 118 85zM171 305h253c0 46 -17 141 -121 141c-93 0 -135 -75 -132 -141zM144 594v106h116
v-106h-116zM334 594v106h116v-106h-116z" />
    <glyph glyph-name="igrave" unicode="&#xec;" horiz-adv-x="264" 
d="M72 508h120v-508h-120v508zM122 700l70 -132h-90l-110 132h130z" />
    <glyph glyph-name="iacute" unicode="&#xed;" horiz-adv-x="264" 
d="M72 508h120v-508h-120v508zM115 700h130l-110 -132h-90z" />
    <glyph glyph-name="icircumflex" unicode="&#xee;" horiz-adv-x="264" 
d="M72 508h120v-508h-120v508zM131 657l-90 -89h-110l120 132h160l120 -132h-110z" />
    <glyph glyph-name="idieresis" unicode="&#xef;" horiz-adv-x="264" 
d="M72 508h120v-508h-120v508zM-22 594v106h116v-106h-116zM168 594v106h116v-106h-116z" />
    <glyph glyph-name="eth" unicode="&#xf0;" horiz-adv-x="633" 
d="M165 679l16 59c57 -8 117 -23 181 -48l75 43l32 -39l-54 -29c152 -75 166 -223 166 -332c0 -95 -14 -353 -267 -353c-219 0 -267 167 -267 264c0 135 79 264 250 264c84 0 149 -28 196 -100h4c-5 69 -40 160 -154 210l-136 -79l-30 38l110 64c-39 17 -79 29 -122 38z
M453 244c0 145 -72 182 -139 182s-139 -37 -139 -182s72 -182 139 -182s139 37 139 182z" />
    <glyph glyph-name="ntilde" unicode="&#xf1;" horiz-adv-x="606" 
d="M72 508h120v-67c35 59 108 87 167 87c173 0 175 -151 175 -188v-340h-120v302c0 61 -1 144 -95 144c-33 0 -127 -14 -127 -162v-284h-120v508zM421 700h74c-11 -65 -63 -102 -118 -102c-29 0 -53 10 -77 22c-24 11 -44 22 -69 22c-33 0 -43 -21 -46 -36h-74
c8 53 51 102 118 102c31 0 52 -8 77 -20c29 -13 41 -24 69 -24c33 0 43 21 46 36z" />
    <glyph glyph-name="ograve" unicode="&#xf2;" horiz-adv-x="610" 
d="M305 528c216 0 262 -177 262 -274s-46 -274 -262 -274s-262 176 -262 274c0 97 46 274 262 274zM305 446c-43 0 -134 -18 -134 -192s91 -192 134 -192s134 18 134 192s-91 192 -134 192zM309 700l70 -132h-90l-110 132h130z" />
    <glyph glyph-name="oacute" unicode="&#xf3;" horiz-adv-x="610" 
d="M305 528c216 0 262 -177 262 -274s-46 -274 -262 -274s-262 176 -262 274c0 97 46 274 262 274zM305 446c-43 0 -134 -18 -134 -192s91 -192 134 -192s134 18 134 192s-91 192 -134 192zM301 700h130l-110 -132h-90z" />
    <glyph glyph-name="ocircumflex" unicode="&#xf4;" horiz-adv-x="610" 
d="M305 528c216 0 262 -177 262 -274s-46 -274 -262 -274s-262 176 -262 274c0 97 46 274 262 274zM305 446c-43 0 -134 -18 -134 -192s91 -192 134 -192s134 18 134 192s-91 192 -134 192zM305 657l-90 -89h-110l120 132h160l120 -132h-110z" />
    <glyph glyph-name="otilde" unicode="&#xf5;" horiz-adv-x="610" 
d="M305 528c216 0 262 -177 262 -274s-46 -274 -262 -274s-262 176 -262 274c0 97 46 274 262 274zM305 446c-43 0 -134 -18 -134 -192s91 -192 134 -192s134 18 134 192s-91 192 -134 192zM423 700h74c-11 -65 -63 -102 -118 -102c-29 0 -53 10 -77 22
c-24 11 -44 22 -69 22c-33 0 -43 -21 -46 -36h-74c8 53 51 102 118 102c31 0 52 -8 77 -20c29 -13 41 -24 69 -24c33 0 43 21 46 36z" />
    <glyph glyph-name="odieresis" unicode="&#xf6;" horiz-adv-x="610" 
d="M305 528c216 0 262 -177 262 -274s-46 -274 -262 -274s-262 176 -262 274c0 97 46 274 262 274zM305 446c-43 0 -134 -18 -134 -192s91 -192 134 -192s134 18 134 192s-91 192 -134 192zM152 594v106h116v-106h-116zM342 594v106h116v-106h-116z" />
    <glyph glyph-name="divide" unicode="&#xf7;" 
d="M230 500c0 39 31 70 70 70s70 -31 70 -70s-31 -70 -70 -70s-70 31 -70 70zM230 152c0 39 31 70 70 70s70 -31 70 -70s-31 -70 -70 -70s-70 31 -70 70zM50 283v86h500v-86h-500z" />
    <glyph glyph-name="oslash" unicode="&#xf8;" horiz-adv-x="604" 
d="M305 528c65 0 109 -13 150 -40l54 65l55 -45l-56 -68c14 -16 59 -79 59 -186c0 -97 -46 -274 -262 -274c-59 0 -102 11 -147 38l-52 -63l-57 45l55 66c-55 66 -61 150 -61 188c0 97 46 274 262 274zM305 446c-45 0 -134 -19 -134 -192c0 -39 3 -63 11 -94l209 251
c-17 16 -43 35 -86 35zM305 62c43 0 134 19 134 192c0 39 -3 63 -10 91l-207 -251c28 -27 59 -32 83 -32z" />
    <glyph glyph-name="ugrave" unicode="&#xf9;" horiz-adv-x="606" 
d="M534 0h-120v67h-2c-33 -60 -104 -87 -169 -87c-168 0 -171 149 -171 188v340h120v-302c0 -58 3 -144 95 -144c126 0 127 138 127 162v284h120v-508zM307 700l70 -132h-90l-110 132h130z" />
    <glyph glyph-name="uacute" unicode="&#xfa;" horiz-adv-x="606" 
d="M534 0h-120v67h-2c-33 -60 -104 -87 -169 -87c-168 0 -171 149 -171 188v340h120v-302c0 -58 3 -144 95 -144c126 0 127 138 127 162v284h120v-508zM299 700h130l-110 -132h-90z" />
    <glyph glyph-name="ucircumflex" unicode="&#xfb;" horiz-adv-x="606" 
d="M534 0h-120v67h-2c-33 -60 -104 -87 -169 -87c-168 0 -171 149 -171 188v340h120v-302c0 -58 3 -144 95 -144c126 0 127 138 127 162v284h120v-508zM303 657l-90 -89h-110l120 132h160l120 -132h-110z" />
    <glyph glyph-name="udieresis" unicode="&#xfc;" horiz-adv-x="606" 
d="M534 0h-120v67h-2c-33 -60 -104 -87 -169 -87c-168 0 -171 149 -171 188v340h120v-302c0 -58 3 -144 95 -144c126 0 127 138 127 162v284h120v-508zM150 594v106h116v-106h-116zM340 594v106h116v-106h-116z" />
    <glyph glyph-name="yacute" unicode="&#xfd;" horiz-adv-x="541" 
d="M105 -183v82c12 -3 27 -6 46 -6c47 0 63 24 80 84l7 24l-231 507h144l153 -378l117 378h120l-194 -552c-16 -46 -42 -145 -167 -145c-23 0 -51 2 -75 6zM266 700h130l-110 -132h-90z" />
    <glyph glyph-name="thorn" unicode="&#xfe;" horiz-adv-x="636" 
d="M72 700h120v-242c40 53 105 70 156 70c116 0 245 -75 245 -271c0 -108 -41 -277 -241 -277c-13 0 -120 0 -160 72v-237h-120v885zM183 253c0 -115 47 -191 135 -191c53 0 147 25 147 188c0 144 -69 196 -142 196c-53 0 -140 -28 -140 -193z" />
    <glyph glyph-name="ydieresis" unicode="&#xff;" horiz-adv-x="541" 
d="M105 -183v82c12 -3 27 -6 46 -6c47 0 63 24 80 84l7 24l-231 507h144l153 -378l117 378h120l-194 -552c-16 -46 -42 -145 -167 -145c-23 0 -51 2 -75 6zM117 594v106h116v-106h-116zM307 594v106h116v-106h-116z" />
    <glyph glyph-name="Amacron" unicode="&#x100;" horiz-adv-x="648" 
d="M184 147l-51 -147h-137l264 700h128l264 -700h-137l-51 147h-280zM218 253h212l-106 311zM159 760v80h330v-80h-165h-165z" />
    <glyph glyph-name="amacron" unicode="&#x101;" horiz-adv-x="577" 
d="M164 351h-114c-3 93 66 177 232 177c205 0 219 -120 219 -180v-203c0 -49 2 -65 44 -62v-83c-31 -3 -42 -3 -53 -3c-31 0 -88 4 -99 66c-44 -56 -101 -75 -169 -75c-176 0 -187 104 -187 147c0 105 94 137 117 142c39 11 75 12 118 19c16 3 33 4 49 7c42 5 60 5 60 55
c0 80 -60 88 -99 88c-88 0 -121 -47 -118 -95zM381 226v18c-13 -9 -29 -14 -86 -21c-82 -11 -134 -18 -134 -84c0 -39 23 -69 79 -69c60 0 141 24 141 156zM123 602v82h330v-82h-165h-165z" />
    <glyph glyph-name="Abreve" unicode="&#x102;" horiz-adv-x="648" 
d="M184 147l-51 -147h-137l264 700h128l264 -700h-137l-51 147h-280zM218 253h212l-106 311zM114 913h103c5 -53 51 -81 107 -81s102 28 107 81h103c-16 -85 -85 -153 -210 -153s-194 68 -210 153z" />
    <glyph glyph-name="abreve" unicode="&#x103;" horiz-adv-x="577" 
d="M164 351h-114c-3 93 66 177 232 177c205 0 219 -120 219 -180v-203c0 -49 2 -65 44 -62v-83c-31 -3 -42 -3 -53 -3c-31 0 -88 4 -99 66c-44 -56 -101 -75 -169 -75c-176 0 -187 104 -187 147c0 105 94 137 117 142c39 11 75 12 118 19c16 3 33 4 49 7c42 5 60 5 60 55
c0 80 -60 88 -99 88c-88 0 -121 -47 -118 -95zM381 226v18c-13 -9 -29 -14 -86 -21c-82 -11 -134 -18 -134 -84c0 -39 23 -69 79 -69c60 0 141 24 141 156zM91 700h102c3 -47 44 -73 95 -73s92 26 95 73h102c-13 -56 -51 -143 -197 -143c-144 0 -186 87 -197 143z" />
    <glyph glyph-name="Aogonek" unicode="&#x104;" horiz-adv-x="648" 
d="M184 147l-51 -147h-137l264 700h128l264 -700c-53 -17 -83 -63 -83 -120c0 -35 19 -60 51 -60c35 0 50 29 49 57h80c-3 -28 -22 -117 -143 -117c-92 0 -127 61 -127 116c0 45 21 97 73 124h-37l-51 147h-280zM218 253h212l-106 311z" />
    <glyph glyph-name="aogonek" unicode="&#x105;" horiz-adv-x="577" 
d="M164 351h-114c-3 93 66 177 232 177c205 0 219 -120 219 -180v-203c0 -49 2 -65 44 -62v-83c-53 -17 -83 -63 -83 -120c0 -35 19 -60 51 -60c35 0 50 29 49 57h80c-3 -28 -22 -117 -143 -117c-92 0 -127 61 -127 116c0 65 39 105 72 127c-20 7 -44 21 -51 60
c-44 -56 -101 -75 -169 -75c-176 0 -187 104 -187 147c0 105 94 137 117 142c41 11 86 15 167 26c42 5 60 5 60 55c0 80 -60 88 -99 88c-88 0 -121 -47 -118 -95zM381 226v18c-13 -9 -29 -14 -86 -21c-82 -11 -134 -18 -134 -84c0 -39 23 -69 79 -69c60 0 141 24 141 156z
" />
    <glyph glyph-name="Cacute" unicode="&#x106;" horiz-adv-x="733" 
d="M568 239h127c-11 -107 -66 -260 -303 -260c-54 0 -347 5 -347 359c0 288 166 383 340 383c240 0 295 -147 300 -247h-127c-8 58 -42 141 -173 141c-156 0 -203 -127 -203 -272c0 -165 90 -258 216 -258c116 0 165 79 170 154zM363 900h136l-118 -140h-96z" />
    <glyph glyph-name="cacute" unicode="&#x107;" horiz-adv-x="574" 
d="M424 186h114c-8 -74 -54 -206 -240 -206c-173 0 -255 112 -255 273c0 260 185 275 251 275c156 0 231 -91 242 -189h-114c-5 52 -42 107 -121 107c-99 0 -130 -89 -130 -193c0 -159 80 -191 137 -191c89 0 113 77 116 124zM283 700h130l-110 -132h-90z" />
    <glyph glyph-name="Ccircumflex" unicode="&#x108;" horiz-adv-x="733" 
d="M568 239h127c-11 -107 -66 -260 -303 -260c-54 0 -347 5 -347 359c0 288 166 383 340 383c240 0 295 -147 300 -247h-127c-8 58 -42 141 -173 141c-156 0 -203 -127 -203 -272c0 -165 90 -258 216 -258c116 0 165 79 170 154zM366 854l-100 -94h-120l134 140h172
l134 -140h-120z" />
    <glyph glyph-name="ccircumflex" unicode="&#x109;" horiz-adv-x="574" 
d="M424 186h114c-8 -74 -54 -206 -240 -206c-173 0 -255 112 -255 273c0 260 185 275 251 275c156 0 231 -91 242 -189h-114c-5 52 -42 107 -121 107c-99 0 -130 -89 -130 -193c0 -159 80 -191 137 -191c89 0 113 77 116 124zM287 657l-90 -89h-110l120 132h160l120 -132
h-110z" />
    <glyph glyph-name="Ccaron" unicode="&#x10c;" horiz-adv-x="733" 
d="M568 239h127c-11 -107 -66 -260 -303 -260c-54 0 -347 5 -347 359c0 288 166 383 340 383c240 0 295 -147 300 -247h-127c-8 58 -42 141 -173 141c-156 0 -203 -127 -203 -272c0 -165 90 -258 216 -258c116 0 165 79 170 154zM366 806l100 94h120l-134 -140h-172
l-134 140h120z" />
    <glyph glyph-name="ccaron" unicode="&#x10d;" horiz-adv-x="574" 
d="M424 186h114c-8 -74 -54 -206 -240 -206c-173 0 -255 112 -255 273c0 260 185 275 251 275c156 0 231 -91 242 -189h-114c-5 52 -42 107 -121 107c-99 0 -130 -89 -130 -193c0 -159 80 -191 137 -191c89 0 113 77 116 124zM287 611l90 89h110l-120 -132h-160l-120 132
h110z" />
    <glyph glyph-name="Dcaron" unicode="&#x10e;" horiz-adv-x="746" 
d="M85 700h278c288 0 338 -198 338 -348c0 -316 -222 -352 -363 -352h-253v700zM213 594v-488h119c62 0 232 10 232 244c0 216 -135 244 -212 244h-139zM373 806l100 94h120l-134 -140h-172l-134 140h120z" />
    <glyph glyph-name="dcaron" unicode="&#x10f;" horiz-adv-x="755" 
d="M444 700h120v-700h-110v50h-2c-48 -61 -124 -70 -164 -70c-119 0 -245 74 -245 271c0 144 70 277 241 277c13 0 120 0 160 -72v244zM171 250c0 -170 102 -188 143 -188c86 0 139 79 139 191c0 165 -88 193 -140 193c-73 0 -142 -52 -142 -196zM640 700h132v-139
c0 -114 -71 -149 -132 -154v69c39 3 67 33 67 78v11h-67v135z" />
    <glyph glyph-name="Dcroat" unicode="&#x110;" horiz-adv-x="756" 
d="M95 700h278c288 0 338 -198 338 -348c0 -316 -222 -352 -363 -352h-253v356h-95v82h95v262zM223 594v-156h197v-82h-197v-250h119c61 0 232 10 232 244c0 216 -135 244 -212 244h-139z" />
    <glyph glyph-name="dslash" unicode="&#x111;" horiz-adv-x="644" 
d="M444 700h120v-61h80v-68h-80v-571h-110v50h-2c-48 -61 -124 -70 -164 -70c-119 0 -245 74 -245 271c0 144 70 277 241 277c13 0 120 0 160 -72v115h-200v68h200v61zM171 250c0 -170 102 -188 143 -188c86 0 139 79 139 191c0 165 -88 193 -140 193
c-73 0 -142 -52 -142 -196z" />
    <glyph glyph-name="Emacron" unicode="&#x112;" horiz-adv-x="638" 
d="M213 412h356v-106h-356v-200h408v-106h-536v700h525v-106h-397v-182zM154 760v80h330v-80h-165h-165z" />
    <glyph glyph-name="emacron" unicode="&#x113;" horiz-adv-x="594" 
d="M429 147h114c-13 -66 -60 -167 -242 -167c-51 0 -258 9 -258 265c0 172 84 283 259 283c219 0 244 -176 248 -276c0 -11 1 -18 1 -29h-380c0 -65 32 -161 140 -161c54 0 110 29 118 85zM171 305h253c0 46 -17 141 -121 141c-93 0 -135 -75 -132 -141zM132 602v82h330v-82
h-165h-165z" />
    <glyph glyph-name="Edotaccent" unicode="&#x116;" horiz-adv-x="638" 
d="M213 412h356v-106h-356v-200h408v-106h-536v700h525v-106h-397v-182zM255 772v88h128v-88h-128z" />
    <glyph glyph-name="edotaccent" unicode="&#x117;" horiz-adv-x="594" 
d="M429 147h114c-13 -66 -60 -167 -242 -167c-51 0 -258 9 -258 265c0 172 84 283 259 283c219 0 244 -176 248 -276c0 -11 1 -18 1 -29h-380c0 -65 32 -161 140 -161c54 0 110 29 118 85zM171 305h253c0 46 -17 141 -121 141c-93 0 -135 -75 -132 -141zM237 594v106h120
v-106h-120z" />
    <glyph glyph-name="Eogonek" unicode="&#x118;" horiz-adv-x="638" 
d="M213 412h356v-106h-356v-200h408v-106h-164c-53 -17 -83 -63 -83 -120c0 -35 19 -60 51 -60c35 0 50 29 49 57h80c-3 -28 -22 -117 -143 -117c-92 0 -127 61 -127 116c0 45 21 97 73 124h-272v700h525v-106h-397v-182z" />
    <glyph glyph-name="eogonek" unicode="&#x119;" horiz-adv-x="594" 
d="M429 147h114c-16 -88 -79 -127 -95 -135c-13 -7 -26 -13 -39 -17c-51 -23 -70 -70 -70 -115c0 -35 19 -60 51 -60c35 0 50 29 49 57h80c-3 -28 -22 -117 -143 -117c-124 0 -127 104 -127 116c0 43 16 76 44 104c-119 -3 -250 68 -250 265c0 172 84 283 259 283
c158 0 246 -84 249 -305h-380c0 -65 32 -161 140 -161c54 0 110 29 118 85zM171 305h253v8c0 3 0 5 -1 8c-11 100 -69 125 -120 125c-93 0 -135 -75 -132 -141z" />
    <glyph glyph-name="Ecaron" unicode="&#x11a;" horiz-adv-x="638" 
d="M213 412h356v-106h-356v-200h408v-106h-536v700h525v-106h-397v-182zM319 806l100 94h120l-134 -140h-172l-134 140h120z" />
    <glyph glyph-name="ecaron" unicode="&#x11b;" horiz-adv-x="594" 
d="M429 147h114c-13 -66 -60 -167 -242 -167c-51 0 -258 9 -258 265c0 172 84 283 259 283c219 0 244 -176 248 -276c0 -11 1 -18 1 -29h-380c0 -65 32 -161 140 -161c54 0 110 29 118 85zM171 305h253c0 46 -17 141 -121 141c-93 0 -135 -75 -132 -141zM297 611l90 89h110
l-120 -132h-160l-120 132h110z" />
    <glyph glyph-name="Gcircumflex" unicode="&#x11c;" horiz-adv-x="756" 
d="M412 375h286v-375h-92v95h-2c-37 -72 -106 -116 -217 -116c-163 0 -342 84 -342 359c0 329 217 383 344 383c239 0 293 -139 301 -237h-127c-8 53 -44 131 -174 131c-178 0 -207 -164 -207 -272c0 -208 133 -258 216 -258c61 0 182 28 185 184h-171v106zM378 854
l-100 -94h-120l134 140h172l134 -140h-120z" />
    <glyph glyph-name="gcircumflex" unicode="&#x11d;" horiz-adv-x="640" 
d="M458 508h110v-485c0 -141 -96 -216 -257 -216c-124 0 -207 43 -222 144h110c10 -47 72 -60 117 -60c124 0 132 84 132 134v39c-40 -72 -147 -72 -160 -72c-171 0 -241 126 -241 265c0 197 126 271 245 271c41 0 115 -10 164 -70h2v50zM175 256c0 -166 100 -182 143 -182
c69 0 139 57 139 185c0 140 -69 187 -140 187c-89 0 -142 -70 -142 -190zM320 657l-90 -89h-110l120 132h160l120 -132h-110z" />
    <glyph glyph-name="Gbreve" unicode="&#x11e;" horiz-adv-x="756" 
d="M412 375h286v-375h-92v95h-2c-37 -72 -106 -116 -217 -116c-163 0 -342 84 -342 359c0 329 217 383 344 383c239 0 293 -139 301 -237h-127c-8 53 -44 131 -174 131c-178 0 -207 -164 -207 -272c0 -208 133 -258 216 -258c61 0 182 28 185 184h-171v106zM168 913h103
c5 -53 51 -81 107 -81s102 28 107 81h103c-16 -85 -85 -153 -210 -153s-194 68 -210 153z" />
    <glyph glyph-name="gbreve" unicode="&#x11f;" horiz-adv-x="640" 
d="M458 508h110v-485c0 -141 -96 -216 -257 -216c-124 0 -207 43 -222 144h110c10 -47 72 -60 117 -60c124 0 132 84 132 134v39c-40 -72 -147 -72 -160 -72c-171 0 -241 126 -241 265c0 197 126 271 245 271c41 0 115 -10 164 -70h2v50zM175 256c0 -166 100 -182 143 -182
c69 0 139 57 139 185c0 140 -69 187 -140 187c-89 0 -142 -70 -142 -190zM123 700h102c3 -47 44 -73 95 -73s92 26 95 73h102c-13 -56 -51 -143 -197 -143c-144 0 -186 87 -197 143z" />
    <glyph glyph-name="Gcommaaccent" unicode="&#x122;" horiz-adv-x="756" 
d="M412 375h286v-375h-92v95h-2c-37 -72 -106 -116 -217 -116c-163 0 -342 84 -342 359c0 329 217 383 344 383c239 0 293 -139 301 -237h-127c-8 53 -44 131 -174 131c-178 0 -207 -164 -207 -272c0 -208 133 -258 216 -258c61 0 182 28 185 184h-171v106zM312 -60h132v-99
c0 -103 -104 -111 -132 -111v64c33 -1 67 10 67 37v9h-67v100z" />
    <glyph glyph-name="gcommaaccent" unicode="&#x123;" horiz-adv-x="640" 
d="M458 508h110v-485c0 -141 -96 -216 -257 -216c-124 0 -207 43 -222 144h110c10 -47 72 -60 117 -60c124 0 132 84 132 134v39c-40 -72 -147 -72 -160 -72c-171 0 -241 126 -241 265c0 197 126 271 245 271c41 0 115 -10 164 -70h2v50zM175 256c0 -166 100 -182 143 -182
c69 0 139 57 139 185c0 140 -69 187 -140 187c-89 0 -142 -70 -142 -190zM370 559h-132v99c0 103 104 111 132 111v-64c-33 1 -67 -10 -67 -37v-9h67v-100z" />
    <glyph glyph-name="Hcircumflex" unicode="&#x124;" horiz-adv-x="738" 
d="M213 314v-314h-128v700h128v-280h312v280h128v-700h-128v314h-312zM369 854l-100 -94h-120l134 140h172l134 -140h-120z" />
    <glyph glyph-name="hcircumflex" unicode="&#x125;" horiz-adv-x="606" 
d="M72 700h120v-259c35 59 108 87 167 87c173 0 175 -151 175 -188v-340h-120v302c0 61 -1 144 -95 144c-33 0 -127 -14 -127 -162v-284h-120v700zM290 865l-90 -89h-110l120 132h160l120 -132h-110z" />
    <glyph glyph-name="Imacron" unicode="&#x12a;" horiz-adv-x="298" 
d="M85 700h128v-700h-128v700zM-17 760v80h330v-80h-165h-165z" />
    <glyph glyph-name="imacron" unicode="&#x12b;" horiz-adv-x="264" 
d="M72 508h120v-508h-120v508zM-35 602v82h330v-82h-165h-165z" />
    <glyph glyph-name="Iogonek" unicode="&#x12e;" horiz-adv-x="298" 
d="M85 700h128v-700c-17 -6 -32 -15 -45 -26c-19 -17 -38 -47 -38 -94c0 -35 19 -60 51 -60c35 0 50 29 49 57h80c-3 -28 -22 -117 -143 -117c-92 0 -127 61 -127 116c0 45 21 97 73 124h-28v700z" />
    <glyph glyph-name="iogonek" unicode="&#x12f;" horiz-adv-x="260" 
d="M70 508h120v-508c-53 -17 -83 -63 -83 -120c0 -35 19 -60 51 -60c35 0 50 29 49 57h80c-3 -28 -22 -117 -143 -117c-92 0 -127 61 -127 116c0 39 14 88 53 124v508zM70 594v106h120v-106h-120z" />
    <glyph glyph-name="Idot" unicode="&#x130;" horiz-adv-x="298" 
d="M85 700h128v-700h-128v700zM85 772v88h128v-88h-128z" />
    <glyph glyph-name="dotlessi" unicode="&#x131;" horiz-adv-x="264" 
d="M72 508h120v-508h-120v508z" />
    <glyph glyph-name="Jcircumflex" unicode="&#x134;" horiz-adv-x="551" 
d="M23 243h128v-29c0 -119 65 -129 102 -129c52 0 98 12 98 147v468h128v-452c0 -117 -14 -269 -227 -269c-187 0 -229 121 -229 225v39zM404 854l-100 -94h-120l134 140h172l134 -140h-120z" />
    <glyph glyph-name="jcircumflex" unicode="&#x135;" horiz-adv-x="264" 
d="M72 508h120v-535c0 -88 -15 -162 -143 -162c-17 0 -48 1 -68 4v82c65 1 91 19 91 83v528zM132 657l-90 -89h-110l120 132h160l120 -132h-110z" />
    <glyph glyph-name="Kcommaaccent" unicode="&#x136;" horiz-adv-x="706" 
d="M213 385l306 315h172l-290 -290l309 -410h-172l-231 324l-94 -91v-233h-128v700h128v-315zM287 -60h132v-99c0 -103 -104 -111 -132 -111v64c33 -1 67 10 67 37v9h-67v100z" />
    <glyph glyph-name="kcommaaccent" unicode="&#x137;" horiz-adv-x="564" 
d="M192 285l212 223h142l-198 -198l220 -310h-140l-163 237l-73 -74v-163h-120v700h120v-415zM216 -60h132v-99c0 -103 -104 -111 -132 -111v64c33 -1 67 10 67 37v9h-67v100z" />
    <glyph glyph-name="Lacute" unicode="&#x139;" horiz-adv-x="548" 
d="M554 106v-106h-469v700h128v-594h341zM271 900h136l-118 -140h-96z" />
    <glyph glyph-name="lacute" unicode="&#x13a;" horiz-adv-x="264" 
d="M72 700h120v-700h-120v700zM159 884h130l-110 -132h-90z" />
    <glyph glyph-name="Lcommaaccent" unicode="&#x13b;" horiz-adv-x="548" 
d="M554 106v-106h-469v700h128v-594h341zM208 -60h132v-99c0 -103 -104 -111 -132 -111v64c33 -1 67 10 67 37v9h-67v100z" />
    <glyph glyph-name="lcommaaccent" unicode="&#x13c;" horiz-adv-x="264" 
d="M72 700h120v-700h-120v700zM60 -60h132v-99c0 -103 -104 -111 -132 -111v64c33 -1 67 10 67 37v9h-67v100z" />
    <glyph glyph-name="Lcaron" unicode="&#x13d;" horiz-adv-x="548" 
d="M554 106v-106h-469v700h128v-594h341zM414 700h132v-139c0 -114 -71 -149 -132 -154v69c39 3 67 33 67 78v11h-67v135z" />
    <glyph glyph-name="lcaron" unicode="&#x13e;" horiz-adv-x="385" 
d="M72 700h120v-700h-120v700zM270 700h132v-139c0 -114 -71 -149 -132 -154v69c39 3 67 33 67 78v11h-67v135z" />
    <glyph glyph-name="Lslash" unicode="&#x141;" horiz-adv-x="540" 
d="M546 106v-106h-469v133l-67 -67v110l67 67v457h128v-345l198 203v-110l-198 -203v-139h341z" />
    <glyph glyph-name="lslash" unicode="&#x142;" horiz-adv-x="320" 
d="M100 700h120v-226l120 84v-92l-120 -84v-382h-120v312l-120 -82v92l120 82v296z" />
    <glyph glyph-name="Nacute" unicode="&#x143;" horiz-adv-x="770" 
d="M213 497v-497h-128v700h136l336 -497v497h128v-700h-136zM382 900h136l-118 -140h-96z" />
    <glyph glyph-name="nacute" unicode="&#x144;" horiz-adv-x="606" 
d="M72 508h120v-67c35 59 108 87 167 87c173 0 175 -151 175 -188v-340h-120v302c0 61 -1 144 -95 144c-33 0 -127 -14 -127 -162v-284h-120v508zM299 700h130l-110 -132h-90z" />
    <glyph glyph-name="Ncommaaccent" unicode="&#x145;" horiz-adv-x="770" 
d="M213 497v-497h-128v700h136l336 -497v497h128v-700h-136zM319 -60h132v-99c0 -103 -104 -111 -132 -111v64c33 -1 67 10 67 37v9h-67v100z" />
    <glyph glyph-name="ncommaaccent" unicode="&#x146;" horiz-adv-x="606" 
d="M72 508h120v-67c35 59 108 87 167 87c173 0 175 -151 175 -188v-340h-120v302c0 61 -1 144 -95 144c-33 0 -127 -14 -127 -162v-284h-120v508zM237 -60h132v-99c0 -103 -104 -111 -132 -111v64c33 -1 67 10 67 37v9h-67v100z" />
    <glyph glyph-name="Ncaron" unicode="&#x147;" horiz-adv-x="770" 
d="M213 497v-497h-128v700h136l336 -497v497h128v-700h-136zM385 806l100 94h120l-134 -140h-172l-134 140h120z" />
    <glyph glyph-name="ncaron" unicode="&#x148;" horiz-adv-x="606" 
d="M72 508h120v-67c35 59 108 87 167 87c173 0 175 -151 175 -188v-340h-120v302c0 61 -1 144 -95 144c-33 0 -127 -14 -127 -162v-284h-120v508zM303 611l90 89h110l-120 -132h-160l-120 132h110z" />
    <glyph glyph-name="Omacron" unicode="&#x14c;" horiz-adv-x="776" 
d="M388 721c61 0 343 -8 343 -371s-282 -371 -343 -371s-343 8 -343 371s282 371 343 371zM388 615c-172 0 -206 -157 -206 -265s34 -265 206 -265s206 157 206 265s-34 265 -206 265zM223 760v80h330v-80h-165h-165z" />
    <glyph glyph-name="omacron" unicode="&#x14d;" horiz-adv-x="610" 
d="M305 528c216 0 262 -177 262 -274s-46 -274 -262 -274s-262 176 -262 274c0 97 46 274 262 274zM305 446c-43 0 -134 -18 -134 -192s91 -192 134 -192s134 18 134 192s-91 192 -134 192zM140 602v82h330v-82h-165h-165z" />
    <glyph glyph-name="Obreve" unicode="&#x14e;" horiz-adv-x="776" 
d="M388 721c61 0 343 -8 343 -371s-282 -371 -343 -371s-343 8 -343 371s282 371 343 371zM388 615c-172 0 -206 -157 -206 -265s34 -265 206 -265s206 157 206 265s-34 265 -206 265zM178 913h103c5 -53 51 -81 107 -81s102 28 107 81h103c-16 -85 -85 -153 -210 -153
s-194 68 -210 153z" />
    <glyph glyph-name="obreve" unicode="&#x14f;" horiz-adv-x="610" 
d="M305 528c216 0 262 -177 262 -274s-46 -274 -262 -274s-262 176 -262 274c0 97 46 274 262 274zM305 446c-43 0 -134 -18 -134 -192s91 -192 134 -192s134 18 134 192s-91 192 -134 192zM108 700h102c3 -47 44 -73 95 -73s92 26 95 73h102c-13 -56 -51 -143 -197 -143
c-144 0 -186 87 -197 143z" />
    <glyph glyph-name="Ohungarumlaut" unicode="&#x150;" horiz-adv-x="776" 
d="M388 721c61 0 343 -8 343 -371s-282 -371 -343 -371s-343 8 -343 371s282 371 343 371zM388 615c-172 0 -206 -157 -206 -265s34 -265 206 -265s206 157 206 265s-34 265 -206 265zM325 900h130l-118 -140h-90zM497 900h130l-118 -140h-90z" />
    <glyph glyph-name="ohungarumlaut" unicode="&#x151;" horiz-adv-x="610" 
d="M305 528c216 0 262 -177 262 -274s-46 -274 -262 -274s-262 176 -262 274c0 97 46 274 262 274zM305 446c-43 0 -134 -18 -134 -192s91 -192 134 -192s134 18 134 192s-91 192 -134 192zM222 700h120l-110 -132h-80zM392 700h120l-110 -132h-80z" />
    <glyph glyph-name="OE" unicode="&#x152;" horiz-adv-x="1147" 
d="M594 700h525v-106h-397v-182h356v-106h-356v-200h408v-106h-536v68c-64 -80 -149 -89 -206 -89c-61 0 -343 9 -343 371s282 371 343 371c57 0 142 -9 206 -89v68zM388 85c172 0 206 157 206 265s-34 265 -206 265s-206 -157 -206 -265s34 -265 206 -265z" />
    <glyph glyph-name="oe" unicode="&#x153;" horiz-adv-x="982" 
d="M817 147h114c-13 -66 -60 -167 -242 -167c-113 0 -170 45 -193 74c-61 -64 -137 -74 -191 -74c-216 0 -262 176 -262 274c0 97 46 274 262 274c54 0 130 -10 191 -74c33 33 88 74 194 74c164 0 249 -103 249 -276v-29h-380c0 -65 32 -161 140 -161c54 0 110 29 118 85z
M171 254c0 -174 91 -192 134 -192s134 18 134 192s-91 192 -134 192s-134 -18 -134 -192zM559 305h253c0 46 -17 141 -121 141c-93 0 -135 -75 -132 -141z" />
    <glyph glyph-name="Racute" unicode="&#x154;" horiz-adv-x="708" 
d="M85 0v700h313c85 0 253 -11 253 -195c0 -104 -61 -154 -117 -170v-2c99 -32 103 -119 103 -182c0 -93 0 -120 26 -151h-132c-21 31 -22 56 -22 146c0 64 -5 132 -148 132h-148v-278h-128zM213 594v-210h160c65 0 146 10 146 105c0 101 -91 105 -143 105h-163zM351 900
h136l-118 -140h-96z" />
    <glyph glyph-name="racute" unicode="&#x155;" horiz-adv-x="402" 
d="M388 518v-78c-159 3 -190 -87 -195 -161c-1 -9 -1 -17 -1 -26v-26v-227h-120v508h120v-93h2c35 85 118 103 174 103h20zM197 700h130l-110 -132h-90z" />
    <glyph glyph-name="Rcommaaccent" unicode="&#x156;" horiz-adv-x="708" 
d="M85 0v700h313c85 0 253 -11 253 -195c0 -104 -61 -154 -117 -170v-2c99 -32 103 -119 103 -182c0 -93 0 -120 26 -151h-132c-21 31 -22 56 -22 146c0 64 -5 132 -148 132h-148v-278h-128zM213 594v-210h160c65 0 146 10 146 105c0 101 -91 105 -143 105h-163zM288 -60
h132v-99c0 -103 -104 -111 -132 -111v64c33 -1 67 10 67 37v9h-67v100z" />
    <glyph glyph-name="rcommaaccent" unicode="&#x157;" horiz-adv-x="402" 
d="M388 518v-78c-159 3 -190 -87 -195 -161c-1 -9 -1 -17 -1 -26v-26v-227h-120v508h120v-93h2c35 85 118 103 174 103h20zM70 -60h132v-99c0 -103 -104 -111 -132 -111v64c33 -1 67 10 67 37v9h-67v100z" />
    <glyph glyph-name="Rcaron" unicode="&#x158;" horiz-adv-x="708" 
d="M85 0v700h313c85 0 253 -11 253 -195c0 -104 -61 -154 -117 -170v-2c99 -32 103 -119 103 -182c0 -93 0 -120 26 -151h-132c-21 31 -22 56 -22 146c0 64 -5 132 -148 132h-148v-278h-128zM213 594v-210h160c65 0 146 10 146 105c0 101 -91 105 -143 105h-163zM354 806
l100 94h120l-134 -140h-172l-134 140h120z" />
    <glyph glyph-name="rcaron" unicode="&#x159;" horiz-adv-x="402" 
d="M388 518v-78c-159 3 -190 -87 -195 -161c-1 -9 -1 -17 -1 -26v-26v-227h-120v508h120v-93h2c35 85 118 103 174 103h20zM169 611l90 89h110l-120 -132h-160l-120 132h110z" />
    <glyph glyph-name="Sacute" unicode="&#x15a;" horiz-adv-x="684" 
d="M45 225h127c3 -53 35 -140 182 -140c47 0 148 6 148 105c0 84 -82 100 -126 108c-28 5 -55 10 -82 17c-114 26 -217 60 -217 202c0 198 218 204 275 204c184 0 263 -98 271 -206h-127c-13 98 -109 100 -147 100c-19 0 -135 0 -135 -93c0 -72 79 -86 156 -99
c162 -29 269 -65 269 -220c0 -198 -175 -224 -293 -224c-239 0 -298 135 -301 246zM339 900h136l-118 -140h-96z" />
    <glyph glyph-name="sacute" unicode="&#x15b;" horiz-adv-x="540" 
d="M36 155h120c0 -68 65 -93 119 -93c44 0 103 13 103 82c0 44 -26 60 -94 72l-55 9c-111 19 -166 56 -166 150c0 134 140 153 212 153c165 0 213 -71 216 -155h-113c-4 45 -40 73 -99 73c-49 0 -92 -14 -92 -63c0 -63 64 -70 131 -81c75 -13 186 -24 186 -151
c0 -124 -110 -171 -225 -171c-190 0 -238 99 -243 175zM266 700h130l-110 -132h-90z" />
    <glyph glyph-name="Scircumflex" unicode="&#x15c;" horiz-adv-x="684" 
d="M45 225h127c3 -53 35 -140 182 -140c47 0 148 6 148 105c0 84 -82 100 -126 108c-28 5 -55 10 -82 17c-114 26 -217 60 -217 202c0 198 218 204 275 204c184 0 263 -98 271 -206h-127c-13 98 -109 100 -147 100c-19 0 -135 0 -135 -93c0 -72 79 -86 156 -99
c162 -29 269 -65 269 -220c0 -198 -175 -224 -293 -224c-239 0 -298 135 -301 246zM342 854l-100 -94h-120l134 140h172l134 -140h-120z" />
    <glyph glyph-name="scircumflex" unicode="&#x15d;" horiz-adv-x="540" 
d="M36 155h120c0 -68 65 -93 119 -93c44 0 103 13 103 82c0 44 -26 60 -94 72l-55 9c-111 19 -166 56 -166 150c0 134 140 153 212 153c165 0 213 -71 216 -155h-113c-4 45 -40 73 -99 73c-49 0 -92 -14 -92 -63c0 -63 64 -70 131 -81c75 -13 186 -24 186 -151
c0 -124 -110 -171 -225 -171c-190 0 -238 99 -243 175zM270 657l-90 -89h-110l120 132h160l120 -132h-110z" />
    <glyph glyph-name="Scedilla" unicode="&#x15e;" horiz-adv-x="684" 
d="M45 225h127c3 -53 35 -140 182 -140c47 0 148 6 148 105c0 84 -82 100 -126 108c-28 5 -55 10 -82 17c-114 26 -217 60 -217 202c0 198 218 204 275 204c184 0 263 -98 271 -206h-127c-13 98 -109 100 -147 100c-19 0 -135 0 -135 -93c0 -72 79 -86 156 -99
c162 -29 269 -65 269 -220c0 -198 -175 -224 -293 -224c-239 0 -298 135 -301 246zM229 -232l19 61c25 -8 45 -9 58 -9c48 0 53 23 53 34c0 28 -33 28 -52 28h-43l18 60h46c27 0 121 0 121 -90c0 -69 -63 -92 -141 -92c-19 0 -44 1 -79 8z" />
    <glyph glyph-name="scedilla" unicode="&#x15f;" horiz-adv-x="540" 
d="M36 155h120c0 -68 65 -93 119 -93c44 0 103 13 103 82c0 44 -26 60 -94 72l-55 9c-111 19 -166 56 -166 150c0 134 140 153 212 153c165 0 213 -71 216 -155h-113c-4 45 -40 73 -99 73c-49 0 -92 -14 -92 -63c0 -63 64 -70 131 -81c75 -13 186 -24 186 -151
c0 -124 -110 -171 -225 -171c-190 0 -238 99 -243 175zM154 -232l19 61c25 -8 45 -9 58 -9c48 0 53 23 53 34c0 28 -33 28 -52 28h-43l18 60h46c27 0 121 0 121 -90c0 -69 -63 -92 -141 -92c-19 0 -44 1 -79 8z" />
    <glyph glyph-name="Scaron" unicode="&#x160;" horiz-adv-x="684" 
d="M45 225h127c3 -53 35 -140 182 -140c47 0 148 6 148 105c0 84 -82 100 -126 108c-28 5 -55 10 -82 17c-114 26 -217 60 -217 202c0 198 218 204 275 204c184 0 263 -98 271 -206h-127c-13 98 -109 100 -147 100c-19 0 -135 0 -135 -93c0 -72 79 -86 156 -99
c162 -29 269 -65 269 -220c0 -198 -175 -224 -293 -224c-239 0 -298 135 -301 246zM342 806l100 94h120l-134 -140h-172l-134 140h120z" />
    <glyph glyph-name="scaron" unicode="&#x161;" horiz-adv-x="540" 
d="M36 155h120c0 -68 65 -93 119 -93c44 0 103 13 103 82c0 44 -26 60 -94 72l-55 9c-111 19 -166 56 -166 150c0 134 140 153 212 153c165 0 213 -71 216 -155h-113c-4 45 -40 73 -99 73c-49 0 -92 -14 -92 -63c0 -63 64 -70 131 -81c75 -13 186 -24 186 -151
c0 -124 -110 -171 -225 -171c-190 0 -238 99 -243 175zM270 611l90 89h110l-120 -132h-160l-120 132h110z" />
    <glyph glyph-name="Tcedilla" unicode="&#x162;" horiz-adv-x="594" 
d="M233 594h-220v106h568v-106h-220v-594h-128v594zM187 -232l19 61c25 -8 45 -9 58 -9c48 0 53 23 53 34c0 28 -33 28 -52 28h-43l18 60h46c27 0 121 0 121 -90c0 -69 -63 -92 -141 -92c-19 0 -44 1 -79 8z" />
    <glyph glyph-name="tcedilla" unicode="&#x163;" horiz-adv-x="342" 
d="M14 508h82v152h120v-152h106v-82h-106v-287c0 -35 0 -63 59 -63c20 0 34 2 47 6v-82c-30 -8 -63 -12 -98 -12c-125 0 -128 75 -128 111v327h-82v82zM90 -232l19 61c25 -8 45 -9 58 -9c48 0 53 23 53 34c0 28 -33 28 -52 28h-43l18 60h46c27 0 121 0 121 -90
c0 -69 -63 -92 -141 -92c-19 0 -44 1 -79 8z" />
    <glyph glyph-name="Tcaron" unicode="&#x164;" horiz-adv-x="594" 
d="M233 594h-220v106h568v-106h-220v-594h-128v594zM297 806l100 94h120l-134 -140h-172l-134 140h120z" />
    <glyph glyph-name="tcaron" unicode="&#x165;" horiz-adv-x="507" 
d="M14 508h82v152h120v-152h106v-82h-106v-287c0 -35 0 -63 59 -63c20 0 34 2 47 6v-82c-30 -8 -63 -12 -98 -12c-125 0 -128 75 -128 111v327h-82v82zM392 700h132v-139c0 -114 -71 -149 -132 -154v69c39 3 67 33 67 78v11h-67v135z" />
    <glyph glyph-name="Utilde" unicode="&#x168;" horiz-adv-x="722" 
d="M72 700h128v-411c0 -140 41 -204 161 -204s161 64 161 204v411h128v-431c0 -113 -20 -290 -289 -290s-289 177 -289 290v431zM492 880h80c-11 -51 -40 -116 -129 -116c-31 0 -50 7 -85 22c-27 11 -50 22 -77 22s-48 -13 -51 -36h-80c8 55 45 116 129 116
c32 0 50 -5 85 -20c35 -13 46 -24 77 -24c32 0 48 17 51 36z" />
    <glyph glyph-name="utilde" unicode="&#x169;" horiz-adv-x="606" 
d="M534 0h-120v67h-2c-33 -60 -104 -87 -169 -87c-168 0 -171 149 -171 188v340h120v-302c0 -58 3 -144 95 -144c126 0 127 138 127 162v284h120v-508zM421 700h74c-11 -65 -63 -102 -118 -102c-29 0 -53 10 -77 22c-24 11 -44 22 -69 22c-33 0 -43 -21 -46 -36h-74
c8 53 51 102 118 102c31 0 52 -8 77 -20c29 -13 41 -24 69 -24c33 0 43 21 46 36z" />
    <glyph glyph-name="Umacron" unicode="&#x16a;" horiz-adv-x="722" 
d="M72 700h128v-411c0 -140 41 -204 161 -204s161 64 161 204v411h128v-431c0 -113 -20 -290 -289 -290s-289 177 -289 290v431zM196 760v80h330v-80h-165h-165z" />
    <glyph glyph-name="umacron" unicode="&#x16b;" horiz-adv-x="606" 
d="M534 0h-120v67h-2c-33 -60 -104 -87 -169 -87c-168 0 -171 149 -171 188v340h120v-302c0 -58 3 -144 95 -144c126 0 127 138 127 162v284h120v-508zM138 602v82h330v-82h-165h-165z" />
    <glyph glyph-name="Ubreve" unicode="&#x16c;" horiz-adv-x="722" 
d="M72 700h128v-411c0 -140 41 -204 161 -204s161 64 161 204v411h128v-431c0 -113 -20 -290 -289 -290s-289 177 -289 290v431zM151 913h103c5 -53 51 -81 107 -81s102 28 107 81h103c-16 -85 -85 -153 -210 -153s-194 68 -210 153z" />
    <glyph glyph-name="ubreve" unicode="&#x16d;" horiz-adv-x="606" 
d="M534 0h-120v67h-2c-33 -60 -104 -87 -169 -87c-168 0 -171 149 -171 188v340h120v-302c0 -58 3 -144 95 -144c126 0 127 138 127 162v284h120v-508zM106 700h102c3 -47 44 -73 95 -73s92 26 95 73h102c-13 -56 -51 -143 -197 -143c-144 0 -186 87 -197 143z" />
    <glyph glyph-name="Uring" unicode="&#x16e;" horiz-adv-x="722" 
d="M72 700h128v-411c0 -140 41 -204 161 -204s161 64 161 204v411h128v-431c0 -113 -20 -290 -289 -290s-289 177 -289 290v431zM261 820c0 55 43 100 100 100c55 0 100 -45 100 -100c0 -57 -45 -100 -100 -100c-57 0 -100 43 -100 100zM317 820c0 -24 20 -44 44 -44
s44 20 44 44s-20 44 -44 44s-44 -20 -44 -44z" />
    <glyph glyph-name="uring" unicode="&#x16f;" horiz-adv-x="606" 
d="M534 0h-120v67h-2c-33 -60 -104 -87 -169 -87c-168 0 -171 149 -171 188v340h120v-302c0 -58 3 -144 95 -144c126 0 127 138 127 162v284h120v-508zM209 634c0 51 43 94 94 94s94 -43 94 -94s-43 -94 -94 -94s-94 43 -94 94zM259 634c0 -24 20 -44 44 -44s44 20 44 44
s-20 44 -44 44s-44 -20 -44 -44z" />
    <glyph glyph-name="Uhungarumlaut" unicode="&#x170;" horiz-adv-x="722" 
d="M72 700h128v-411c0 -140 41 -204 161 -204s161 64 161 204v411h128v-431c0 -113 -20 -290 -289 -290s-289 177 -289 290v431zM315 900h130l-118 -140h-90zM487 900h130l-118 -140h-90z" />
    <glyph glyph-name="uhungarumlaut" unicode="&#x171;" horiz-adv-x="606" 
d="M534 0h-120v67h-2c-33 -60 -104 -87 -169 -87c-168 0 -171 149 -171 188v340h120v-302c0 -58 3 -144 95 -144c126 0 127 138 127 162v284h120v-508zM215 700h120l-110 -132h-80zM385 700h120l-110 -132h-80z" />
    <glyph glyph-name="Uogonek" unicode="&#x172;" horiz-adv-x="722" 
d="M72 700h128v-411c0 -140 41 -204 161 -204s161 64 161 204v411h128v-431c0 -96 -18 -285 -259 -289c-40 -32 -45 -81 -45 -100c0 -35 19 -60 51 -60c35 0 50 29 49 57h80c-3 -28 -22 -117 -143 -117c-92 0 -127 61 -127 116c0 39 16 83 47 106c-216 20 -231 191 -231 287
v431z" />
    <glyph glyph-name="uogonek" unicode="&#x173;" horiz-adv-x="606" 
d="M72 508h120v-302c0 -58 3 -144 95 -144c126 0 127 138 127 162v284h120v-508h-10c-53 -17 -83 -63 -83 -120c0 -35 19 -60 51 -60c35 0 50 29 49 57h80c-3 -28 -22 -117 -143 -117c-92 0 -127 61 -127 116c0 47 19 95 63 124v67h-2c-33 -60 -104 -87 -169 -87
c-168 0 -171 149 -171 188v340z" />
    <glyph glyph-name="Ydieresis" unicode="&#x178;" horiz-adv-x="634" 
d="M317 393l170 307h151l-257 -421v-279h-128v279l-257 421h151zM134 772v88h128v-88h-128zM372 772v88h128v-88h-128z" />
    <glyph glyph-name="Zacute" unicode="&#x179;" horiz-adv-x="613" 
d="M45 700h520v-98l-378 -496h400v-106h-561v114l378 480h-359v106zM303 900h136l-118 -140h-96z" />
    <glyph glyph-name="zacute" unicode="&#x17a;" horiz-adv-x="490" 
d="M46 508h401v-82l-281 -344h298v-82h-438v82l281 344h-261v82zM241 700h130l-110 -132h-90z" />
    <glyph glyph-name="Zdotaccent" unicode="&#x17b;" horiz-adv-x="613" 
d="M45 700h520v-98l-378 -496h400v-106h-561v114l378 480h-359v106zM242 772v88h128v-88h-128z" />
    <glyph glyph-name="zdotaccent" unicode="&#x17c;" horiz-adv-x="490" 
d="M46 508h401v-82l-281 -344h298v-82h-438v82l281 344h-261v82zM185 594v106h120v-106h-120z" />
    <glyph glyph-name="uni018F" unicode="&#x18f;" horiz-adv-x="774" 
d="M45 367h547c4 84 -24 248 -217 248c-94 0 -173 -39 -189 -121h-127c8 45 52 227 312 227c349 0 358 -302 358 -370c0 -368 -296 -372 -342 -372c-253 0 -350 199 -342 388zM589 254h-404c8 -71 54 -169 202 -169c119 0 189 77 202 169z" />
    <glyph glyph-name="florin" unicode="&#x192;" 
d="M492 508l-17 -82h-110l-93 -446c-16 -77 -29 -169 -173 -169c-24 0 -56 3 -71 4l19 87h18c62 3 72 24 85 82l93 442h-93l18 82h92l11 54c13 64 40 138 182 138c29 0 55 -3 79 -7l-16 -78c-15 5 -34 7 -53 7c-37 0 -62 -25 -70 -61l-11 -53h110z" />
    <glyph glyph-name="uni019F" unicode="&#x19f;" horiz-adv-x="776" 
d="M388 721c61 0 343 -8 343 -371s-282 -371 -343 -371s-343 8 -343 371s282 371 343 371zM388 615c-155 0 -195 -127 -203 -215h406c-8 88 -48 215 -203 215zM388 85c154 0 197 129 202 209h-404c5 -80 48 -209 202 -209z" />
    <glyph glyph-name="uni01CF" unicode="&#x1cf;" horiz-adv-x="298" 
d="M85 700h128v-700h-128v700zM149 806l100 94h120l-134 -140h-172l-134 140h120z" />
    <glyph glyph-name="uni01D0" unicode="&#x1d0;" horiz-adv-x="264" 
d="M72 508h120v-508h-120v508zM133 611l90 89h110l-120 -132h-160l-120 132h110z" />
    <glyph glyph-name="uni01DD" unicode="&#x1dd;" horiz-adv-x="594" 
d="M165 361h-114c14 65 62 167 242 167c244 0 258 -205 258 -265c0 -172 -84 -283 -259 -283c-73 0 -257 17 -249 305h380c0 65 -31 161 -136 161c-55 0 -109 -29 -122 -85zM423 203h-253c0 -46 17 -141 121 -141c110 0 132 95 132 141z" />
    <glyph glyph-name="Gcaron" unicode="&#x1e6;" horiz-adv-x="756" 
d="M412 375h286v-375h-92v95h-2c-37 -72 -106 -116 -217 -116c-163 0 -342 84 -342 359c0 329 217 383 344 383c239 0 293 -139 301 -237h-127c-8 53 -44 131 -174 131c-178 0 -207 -164 -207 -272c0 -208 133 -258 216 -258c61 0 182 28 185 184h-171v106zM378 806l100 94
h120l-134 -140h-172l-134 140h120z" />
    <glyph glyph-name="gcaron" unicode="&#x1e7;" horiz-adv-x="640" 
d="M458 508h110v-485c0 -141 -96 -216 -257 -216c-124 0 -207 43 -222 144h110c10 -47 72 -60 117 -60c124 0 132 84 132 134v39c-40 -72 -147 -72 -160 -72c-171 0 -241 126 -241 265c0 197 126 271 245 271c41 0 115 -10 164 -70h2v50zM175 256c0 -166 100 -182 143 -182
c69 0 139 57 139 185c0 140 -69 187 -140 187c-89 0 -142 -70 -142 -190zM320 611l90 89h110l-120 -132h-160l-120 132h110z" />
    <glyph glyph-name="Scommaaccent" unicode="&#x218;" horiz-adv-x="684" 
d="M45 225h127c3 -53 35 -140 182 -140c47 0 148 6 148 105c0 84 -82 100 -126 108c-28 5 -55 10 -82 17c-114 26 -217 60 -217 202c0 198 218 204 275 204c184 0 263 -98 271 -206h-127c-13 98 -109 100 -147 100c-19 0 -135 0 -135 -93c0 -72 79 -86 156 -99
c162 -29 269 -65 269 -220c0 -198 -175 -224 -293 -224c-239 0 -298 135 -301 246zM276 -60h132v-99c0 -103 -104 -111 -132 -111v64c33 -1 67 10 67 37v9h-67v100z" />
    <glyph glyph-name="scommaaccent" unicode="&#x219;" horiz-adv-x="540" 
d="M36 155h120c0 -68 65 -93 119 -93c44 0 103 13 103 82c0 44 -26 60 -94 72l-55 9c-111 19 -166 56 -166 150c0 134 140 153 212 153c165 0 213 -71 216 -155h-113c-4 45 -40 73 -99 73c-49 0 -92 -14 -92 -63c0 -63 64 -70 131 -81c75 -13 186 -24 186 -151
c0 -124 -110 -171 -225 -171c-190 0 -238 99 -243 175zM204 -60h132v-99c0 -103 -104 -111 -132 -111v64c33 -1 67 10 67 37v9h-67v100z" />
    <glyph glyph-name="Tcommaaccent" unicode="&#x21a;" horiz-adv-x="594" 
d="M233 594h-220v106h568v-106h-220v-594h-128v594zM231 -60h132v-99c0 -103 -104 -111 -132 -111v64c33 -1 67 10 67 37v9h-67v100z" />
    <glyph glyph-name="tcommaaccent" unicode="&#x21b;" horiz-adv-x="342" 
d="M14 508h82v152h120v-152h106v-82h-106v-287c0 -35 0 -63 59 -63c20 0 34 2 47 6v-82c-30 -8 -63 -12 -98 -12c-125 0 -128 75 -128 111v327h-82v82zM151 -60h132v-99c0 -103 -104 -111 -132 -111v64c33 -1 67 10 67 37v9h-67v100z" />
    <glyph glyph-name="uni0259" unicode="&#x259;" horiz-adv-x="594" 
d="M165 361h-114c14 65 62 167 242 167c244 0 258 -205 258 -265c0 -172 -84 -283 -259 -283c-73 0 -257 17 -249 305h380c0 65 -31 161 -136 161c-55 0 -109 -29 -122 -85zM423 203h-253c0 -46 17 -141 121 -141c110 0 132 95 132 141z" />
    <glyph glyph-name="uni0275" unicode="&#x275;" horiz-adv-x="610" 
d="M305 528c216 0 262 -177 262 -274s-46 -274 -262 -274s-262 176 -262 274c0 97 46 274 262 274zM305 446c-99 0 -129 -95 -132 -148h264c-5 53 -31 148 -132 148zM305 62c107 0 130 110 133 154h-266c3 -44 26 -154 133 -154z" />
    <glyph glyph-name="afii57929" unicode="&#x2bc;" horiz-adv-x="232" 
d="M50 700h132v-139c0 -114 -71 -149 -132 -154v69c39 3 67 33 67 78v11h-67v135z" />
    <glyph glyph-name="circumflex" unicode="&#x2c6;" horiz-adv-x="500" 
d="M250 657l-90 -89h-110l120 132h160l120 -132h-110z" />
    <glyph glyph-name="caron" unicode="&#x2c7;" horiz-adv-x="500" 
d="M250 611l90 89h110l-120 -132h-160l-120 132h110z" />
    <glyph glyph-name="breve" unicode="&#x2d8;" horiz-adv-x="494" 
d="M50 700h102c3 -47 44 -73 95 -73s92 26 95 73h102c-13 -56 -51 -143 -197 -143c-144 0 -186 87 -197 143z" />
    <glyph glyph-name="dotaccent" unicode="&#x2d9;" horiz-adv-x="220" 
d="M50 594v106h120v-106h-120z" />
    <glyph glyph-name="ring" unicode="&#x2da;" horiz-adv-x="288" 
d="M50 634c0 51 43 94 94 94s94 -43 94 -94s-43 -94 -94 -94s-94 43 -94 94zM100 634c0 -24 20 -44 44 -44s44 20 44 44s-20 44 -44 44s-44 -20 -44 -44z" />
    <glyph glyph-name="ogonek" unicode="&#x2db;" horiz-adv-x="370" 
d="M123 0h100c-53 -17 -83 -63 -83 -120c0 -35 19 -60 51 -60c35 0 50 29 49 57h80c-3 -28 -22 -117 -143 -117c-92 0 -127 61 -127 116c0 45 21 97 73 124z" />
    <glyph glyph-name="tilde" unicode="&#x2dc;" horiz-adv-x="484" 
d="M360 700h74c-11 -65 -63 -102 -118 -102c-29 0 -53 10 -77 22c-24 11 -44 22 -69 22c-33 0 -43 -21 -46 -36h-74c8 53 51 102 118 102c31 0 52 -8 77 -20c29 -13 41 -24 69 -24c33 0 43 21 46 36z" />
    <glyph glyph-name="hungarumlaut" unicode="&#x2dd;" horiz-adv-x="460" 
d="M120 700h120l-110 -132h-80zM290 700h120l-110 -132h-80z" />
    <glyph glyph-name="acutecomb" unicode="&#x301;" horiz-adv-x="2" 
d="M-277 700h130l-110 -132h-90z" />
    <glyph glyph-name="acutecomb" unicode="&#xf400;" horiz-adv-x="2" 
d="M-277 700h130l-110 -132h-90z" />
    <glyph glyph-name="uni0313" unicode="&#x313;" horiz-adv-x="232" 
d="M50 700h132v-139c0 -114 -71 -149 -132 -154v69c39 3 67 33 67 78v11h-67v135z" />
    <glyph glyph-name="uni0315" unicode="&#x315;" horiz-adv-x="232" 
d="M50 700h132v-139c0 -114 -71 -149 -132 -154v69c39 3 67 33 67 78v11h-67v135z" />
    <glyph glyph-name="uni0326" unicode="&#x326;" horiz-adv-x="232" 
d="M50 -60h132v-99c0 -103 -104 -111 -132 -111v64c33 -1 67 10 67 37v9h-67v100z" />
    <glyph glyph-name="anoteleia" unicode="&#x387;" horiz-adv-x="250" 
d="M59 200v135h132v-135h-132z" />
    <glyph glyph-name="uni0394" unicode="&#x394;" horiz-adv-x="648" 
d="M324 564l-154 -458h308zM-4 0l264 700h128l264 -700h-656z" />
    <glyph glyph-name="uni0394" unicode="&#x2206;" horiz-adv-x="648" 
d="M324 564l-154 -458h308zM-4 0l264 700h128l264 -700h-656z" />
    <glyph glyph-name="uni03A9" unicode="&#x3a9;" horiz-adv-x="740" 
d="M58 0v106h151v28c-93 24 -167 116 -167 265c0 312 265 322 328 322s328 -10 328 -322c0 -149 -74 -241 -167 -265v-28h151v-106h-257v200c69 16 136 70 136 199c0 52 -8 213 -191 213s-191 -161 -191 -213c0 -129 67 -183 136 -199v-200h-257z" />
    <glyph glyph-name="uni03A9" unicode="&#x2126;" horiz-adv-x="740" 
d="M58 0v106h151v28c-93 24 -167 116 -167 265c0 312 265 322 328 322s328 -10 328 -322c0 -149 -74 -241 -167 -265v-28h151v-106h-257v200c69 16 136 70 136 199c0 52 -8 213 -191 213s-191 -161 -191 -213c0 -129 67 -183 136 -199v-200h-257z" />
    <glyph glyph-name="pi" unicode="&#x3c0;" 
d="M106 0v426h-13c-23 0 -50 -9 -67 -20v82c31 17 56 20 85 20h463v-82h-64v-283c0 -29 1 -66 43 -61l10 1v-83c-21 -3 -51 -5 -72 -5c-101 0 -101 70 -101 108v323h-164v-426h-120z" />
    <glyph glyph-name="afii10023" unicode="&#x401;" horiz-adv-x="639" 
d="M213 412h355v-106h-355v-200h409v-106h-537v700h526v-106h-398v-182zM172 772v88h128v-88h-128zM410 772v88h128v-88h-128z" />
    <glyph glyph-name="afii10051" unicode="&#x402;" horiz-adv-x="780" 
d="M12 594v106h568v-106h-230v-196c56 7 92 7 131 7c92 0 256 -5 256 -206c0 -57 -21 -212 -220 -212c-29 0 -52 4 -79 13v106c21 -7 48 -13 68 -13c64 0 94 39 94 102c0 101 -72 104 -133 104c-39 0 -73 -2 -117 -7v-292h-128v594h-210z" />
    <glyph glyph-name="afii10052" unicode="&#x403;" horiz-adv-x="556" 
d="M213 594v-594h-128v700h458v-106h-330zM275 900h136l-118 -140h-96z" />
    <glyph glyph-name="afii10053" unicode="&#x404;" horiz-adv-x="750" 
d="M509 412v-106h-326c3 -87 47 -221 207 -221c124 0 175 70 188 134h127c-16 -93 -81 -240 -319 -240c-201 0 -341 118 -341 359c0 199 88 383 348 383c233 0 297 -132 302 -227h-127c-9 68 -67 121 -179 121c-149 0 -203 -112 -206 -203h326z" />
    <glyph glyph-name="afii10054" unicode="&#x405;" horiz-adv-x="684" 
d="M45 225h127c3 -53 35 -140 182 -140c47 0 148 6 148 105c0 84 -82 100 -126 108c-28 5 -55 10 -82 17c-114 26 -217 60 -217 202c0 198 218 204 275 204c184 0 263 -98 271 -206h-127c-13 98 -109 100 -147 100c-19 0 -135 0 -135 -93c0 -72 79 -86 156 -99
c162 -29 269 -65 269 -220c0 -198 -175 -224 -293 -224c-239 0 -298 135 -301 246z" />
    <glyph glyph-name="afii10055" unicode="&#x406;" horiz-adv-x="298" 
d="M85 700h128v-700h-128v700z" />
    <glyph glyph-name="afii10056" unicode="&#x407;" horiz-adv-x="340" 
d="M106 700h128v-700h-128v700zM20 772v88h120v-88h-120zM200 772v88h120v-88h-120z" />
    <glyph glyph-name="afii10057" unicode="&#x408;" horiz-adv-x="551" 
d="M23 243h128v-29c0 -119 65 -129 102 -129c52 0 98 12 98 147v468h128v-452c0 -117 -14 -269 -227 -269c-187 0 -229 121 -229 225v39z" />
    <glyph glyph-name="afii10058" unicode="&#x409;" horiz-adv-x="1106" 
d="M13 0v106c8 -1 17 -2 25 -2c129 0 132 181 132 321v275h479v-270h182c76 0 243 -15 243 -219c0 -88 -44 -211 -244 -211h-309v594h-223v-207c0 -211 -31 -391 -236 -391c-16 0 -33 1 -49 4zM649 324v-218h156c68 0 137 15 137 111c0 100 -81 107 -134 107h-159z" />
    <glyph glyph-name="afii10059" unicode="&#x40a;" horiz-adv-x="1110" 
d="M213 314v-314h-128v700h128v-280h312v280h128v-270h182c76 0 243 -15 243 -219c0 -88 -44 -211 -244 -211h-309v314h-312zM653 324v-218h156c68 0 137 15 137 111c0 100 -81 107 -134 107h-159z" />
    <glyph glyph-name="afii10060" unicode="&#x40b;" horiz-adv-x="802" 
d="M752 0h-128v182c0 68 0 117 -155 117c-37 0 -68 0 -119 -7v-292h-128v594h-210v106h568v-106h-230v-196c39 3 98 7 143 7c235 0 259 -103 259 -194v-211z" />
    <glyph glyph-name="afii10061" unicode="&#x40c;" horiz-adv-x="668" 
d="M213 385l281 315h152l-310 -323l336 -377h-162l-297 363v-363h-128v700h128v-315zM350 900h136l-118 -140h-96z" />
    <glyph glyph-name="afii10062" unicode="&#x40e;" horiz-adv-x="623" 
d="M345 322l148 378h134l-235 -564c-59 -144 -137 -146 -198 -146c-33 0 -56 0 -91 11v111c23 -7 46 -12 73 -12c45 0 84 15 100 84l-267 516h157zM101 883h103c5 -53 51 -81 107 -81s102 28 107 81h103c-16 -85 -85 -153 -210 -153s-194 68 -210 153z" />
    <glyph glyph-name="afii10145" unicode="&#x40f;" horiz-adv-x="754" 
d="M536 106v594h128v-700h-227v-185h-120v185h-227v700h128v-594h318z" />
    <glyph glyph-name="afii10017" unicode="&#x410;" horiz-adv-x="648" 
d="M184 147l-51 -147h-137l264 700h128l264 -700h-137l-51 147h-280zM218 253h212l-106 311z" />
    <glyph glyph-name="afii10018" unicode="&#x411;" horiz-adv-x="692" 
d="M213 594v-172h204c76 0 235 -15 235 -215c0 -205 -195 -207 -236 -207h-331v700h521v-106h-393zM213 316v-210h170c67 0 137 15 137 107c0 96 -81 103 -134 103h-173z" />
    <glyph glyph-name="afii10019" unicode="&#x412;" horiz-adv-x="715" 
d="M85 700h330c178 0 213 -101 213 -177c0 -77 -48 -138 -116 -150v-2c58 -10 145 -50 145 -175c0 -177 -151 -196 -256 -196h-316v700zM213 594v-178h169c72 0 114 22 114 83c0 92 -90 95 -117 95h-166zM213 310v-204h175c77 0 137 20 137 104c0 93 -81 100 -134 100h-178z
" />
    <glyph glyph-name="afii10020" unicode="&#x413;" horiz-adv-x="556" 
d="M213 594v-594h-128v700h458v-106h-330z" />
    <glyph glyph-name="afii10021" unicode="&#x414;" horiz-adv-x="758" 
d="M649 106h96l-6 -264h-112v158h-509v-158h-112l-6 264h60c46 59 121 185 121 443v151h468v-594zM521 594h-212v-84c0 -155 -17 -273 -97 -404h309v488z" />
    <glyph glyph-name="afii10022" unicode="&#x415;" horiz-adv-x="638" 
d="M213 412h356v-106h-356v-200h408v-106h-536v700h525v-106h-397v-182z" />
    <glyph glyph-name="afii10024" unicode="&#x416;" horiz-adv-x="966" 
d="M419 0v335l-269 -335h-154l309 376l-290 324h154l250 -296v296h128v-296l250 296h154l-290 -324l309 -376h-154l-269 335v-335h-128z" />
    <glyph glyph-name="afii10025" unicode="&#x417;" horiz-adv-x="697" 
d="M45 239h127c0 -58 27 -154 179 -154c96 0 156 41 156 117c0 87 -60 110 -138 110h-96v106h83c29 0 123 1 123 92c0 63 -39 105 -142 105c-121 0 -154 -61 -157 -121h-127c3 184 143 227 295 227c96 0 263 -25 263 -198c0 -90 -55 -146 -117 -154v-2
c76 -11 145 -68 145 -178c0 -82 -45 -210 -296 -210c-181 0 -290 77 -298 260z" />
    <glyph glyph-name="afii10026" unicode="&#x418;" horiz-adv-x="756" 
d="M213 188l333 512h125v-700h-128v512l-333 -512h-125v700h128v-512z" />
    <glyph glyph-name="afii10027" unicode="&#x419;" horiz-adv-x="756" 
d="M213 188l333 512h125v-700h-128v512l-333 -512h-125v700h128v-512zM168 883h103c5 -53 51 -81 107 -81s102 28 107 81h103c-16 -85 -85 -153 -210 -153s-194 68 -210 153z" />
    <glyph glyph-name="afii10028" unicode="&#x41a;" horiz-adv-x="668" 
d="M213 385l281 315h152l-310 -323l336 -377h-162l-297 363v-363h-128v700h128v-315z" />
    <glyph glyph-name="afii10029" unicode="&#x41b;" horiz-adv-x="734" 
d="M13 0v106c153 -27 157 177 157 319v275h479v-700h-128v594h-223v-207c0 -176 -18 -431 -285 -387z" />
    <glyph glyph-name="afii10030" unicode="&#x41c;" horiz-adv-x="934" 
d="M419 0l-206 554h-2l2 -27v-527h-128v700h191l191 -531l191 531h191v-700h-128v527l2 27h-2l-206 -554h-96z" />
    <glyph glyph-name="afii10031" unicode="&#x41d;" horiz-adv-x="738" 
d="M213 314v-314h-128v700h128v-280h312v280h128v-700h-128v314h-312z" />
    <glyph glyph-name="afii10032" unicode="&#x41e;" horiz-adv-x="776" 
d="M388 721c61 0 343 -8 343 -371s-282 -371 -343 -371s-343 8 -343 371s282 371 343 371zM388 615c-172 0 -206 -157 -206 -265s34 -265 206 -265s206 157 206 265s-34 265 -206 265z" />
    <glyph glyph-name="afii10033" unicode="&#x41f;" horiz-adv-x="736" 
d="M213 594v-594h-128v700h566v-700h-128v594h-310z" />
    <glyph glyph-name="afii10034" unicode="&#x420;" horiz-adv-x="668" 
d="M85 700h279c110 0 272 -18 272 -217c0 -127 -71 -225 -273 -225h-150v-258h-128v700zM213 594v-230h149c59 0 142 8 142 113c0 112 -92 117 -141 117h-150z" />
    <glyph glyph-name="afii10035" unicode="&#x421;" horiz-adv-x="733" 
d="M568 239h127c-11 -107 -66 -260 -303 -260c-54 0 -347 5 -347 359c0 288 166 383 340 383c240 0 295 -147 300 -247h-127c-8 58 -42 141 -173 141c-156 0 -203 -127 -203 -272c0 -165 90 -258 216 -258c116 0 165 79 170 154z" />
    <glyph glyph-name="afii10036" unicode="&#x422;" horiz-adv-x="594" 
d="M233 594h-220v106h568v-106h-220v-594h-128v594z" />
    <glyph glyph-name="afii10037" unicode="&#x423;" horiz-adv-x="623" 
d="M345 322l148 378h134l-235 -564c-59 -144 -137 -146 -198 -146c-33 0 -56 0 -91 11v111c23 -7 46 -12 73 -12c45 0 84 15 100 84l-267 516h157z" />
    <glyph glyph-name="afii10038" unicode="&#x424;" horiz-adv-x="926" 
d="M399 -30v100h-27c-68 0 -330 14 -330 287c0 112 49 287 330 287h27v111h128v-111h27c281 0 330 -175 330 -287c0 -273 -262 -287 -330 -287h-27v-100h-128zM399 167v380h-9c-188 0 -211 -107 -211 -190s23 -190 211 -190h9zM527 167h9c188 0 211 107 211 190
s-23 190 -211 190h-9v-380z" />
    <glyph glyph-name="afii10039" unicode="&#x425;" horiz-adv-x="666" 
d="M333 447l155 253h160l-235 -342l253 -358h-165l-168 270l-168 -270h-165l253 358l-235 342h160z" />
    <glyph glyph-name="afii10040" unicode="&#x426;" horiz-adv-x="766" 
d="M213 106h316v594h128v-594h96l-6 -264h-112v158h-550v700h128v-594z" />
    <glyph glyph-name="afii10041" unicode="&#x427;" horiz-adv-x="673" 
d="M58 700h128v-189c0 -67 4 -117 147 -117c56 0 116 7 127 7v299h128v-700h-128v295c-39 -3 -98 -7 -143 -7c-149 0 -259 37 -259 194v218z" />
    <glyph glyph-name="afii10042" unicode="&#x428;" horiz-adv-x="1024" 
d="M213 106h235v594h128v-594h235v594h128v-700h-854v700h128v-594z" />
    <glyph glyph-name="afii10043" unicode="&#x429;" horiz-adv-x="1048" 
d="M213 700v-594h235v594h128v-594h235v594h128v-594h96l-6 -264h-112v158h-832v700h128z" />
    <glyph glyph-name="afii10044" unicode="&#x42a;" horiz-adv-x="744" 
d="M287 700v-270h182c76 0 243 -15 243 -219c0 -88 -44 -211 -244 -211h-309v594h-146v106h274zM287 324v-218h156c68 0 137 15 137 111c0 100 -81 107 -134 107h-159z" />
    <glyph glyph-name="afii10045" unicode="&#x42b;" horiz-adv-x="908" 
d="M213 700v-270h182c76 0 243 -15 243 -219c0 -88 -44 -211 -244 -211h-309v700h128zM213 324v-218h156c68 0 137 15 137 111c0 100 -81 107 -134 107h-159zM695 700h128v-700h-128v700z" />
    <glyph glyph-name="afii10046" unicode="&#x42c;" horiz-adv-x="670" 
d="M213 700v-270h182c76 0 243 -15 243 -219c0 -88 -44 -211 -244 -211h-309v700h128zM213 324v-218h156c68 0 137 15 137 111c0 100 -81 107 -134 107h-159z" />
    <glyph glyph-name="afii10047" unicode="&#x42d;" horiz-adv-x="748" 
d="M259 412h306c-5 89 -55 203 -206 203c-111 0 -166 -53 -177 -121h-127c8 95 66 227 300 227c261 0 348 -184 348 -383c0 -239 -143 -359 -351 -359c-231 0 -299 156 -307 260h127c5 -75 63 -154 186 -154c157 0 202 132 207 221h-306v106z" />
    <glyph glyph-name="afii10048" unicode="&#x42e;" horiz-adv-x="1030" 
d="M213 420h90c11 122 85 301 339 301c61 0 343 -8 343 -371s-282 -371 -343 -371c-265 0 -334 191 -342 335h-87v-314h-128v700h128v-280zM642 85c172 0 206 157 206 265s-34 265 -206 265s-206 -157 -206 -265s34 -265 206 -265z" />
    <glyph glyph-name="afii10049" unicode="&#x42f;" horiz-adv-x="720" 
d="M507 261h-122l-168 -261h-162l198 275c-65 8 -186 46 -186 206c0 210 181 219 279 219h289v-700h-128v261zM507 594h-167c-35 0 -141 0 -141 -116c0 -102 94 -111 150 -111h158v227z" />
    <glyph glyph-name="afii10065" unicode="&#x430;" horiz-adv-x="577" 
d="M164 351h-114c-3 93 66 177 232 177c205 0 219 -120 219 -180v-203c0 -49 2 -65 44 -62v-83c-31 -3 -42 -3 -53 -3c-31 0 -88 4 -99 66c-44 -56 -101 -75 -169 -75c-176 0 -187 104 -187 147c0 105 94 137 117 142c39 11 75 12 118 19c16 3 33 4 49 7c42 5 60 5 60 55
c0 80 -60 88 -99 88c-88 0 -121 -47 -118 -95zM381 226v18c-13 -9 -29 -14 -86 -21c-82 -11 -134 -18 -134 -84c0 -39 23 -69 79 -69c60 0 141 24 141 156z" />
    <glyph glyph-name="afii10066" unicode="&#x431;" horiz-adv-x="634" 
d="M444 739h98c-8 -116 -98 -128 -177 -136c-93 -11 -235 -29 -227 -219h2c32 88 117 136 206 136c136 0 245 -98 245 -270c0 -136 -78 -270 -267 -270c-264 0 -267 241 -267 302c0 163 22 239 38 279c43 99 120 129 277 145c48 4 65 10 72 33zM185 250
c0 -170 94 -188 139 -188s139 18 139 188s-94 188 -139 188s-139 -18 -139 -188z" />
    <glyph glyph-name="afii10067" unicode="&#x432;" horiz-adv-x="574" 
d="M72 508h274c105 0 165 -35 165 -123c0 -77 -56 -110 -98 -118v-2c61 -13 116 -46 116 -131c0 -103 -89 -134 -185 -134h-272v508zM192 426v-122h103c76 0 93 36 93 64c0 51 -48 58 -80 58h-116zM192 222v-140h114c35 0 99 6 99 67c0 64 -60 73 -103 73h-110z" />
    <glyph glyph-name="afii10068" unicode="&#x433;" horiz-adv-x="454" 
d="M192 426v-426h-120v508h370v-82h-250z" />
    <glyph glyph-name="afii10069" unicode="&#x434;" horiz-adv-x="640" 
d="M0 82h70c80 122 81 266 81 337v89h397v-426h88l-10 -214h-100v132h-416v-132h-100zM428 426h-165v-62c0 -119 -18 -181 -66 -282h231v344z" />
    <glyph glyph-name="afii10070" unicode="&#x435;" horiz-adv-x="594" 
d="M429 147h114c-13 -66 -60 -167 -242 -167c-51 0 -258 9 -258 265c0 172 84 283 259 283c219 0 244 -176 248 -276c0 -11 1 -18 1 -29h-380c0 -65 32 -161 140 -161c54 0 110 29 118 85zM171 305h253c0 46 -17 141 -121 141c-93 0 -135 -75 -132 -141z" />
    <glyph glyph-name="afii10072" unicode="&#x436;" horiz-adv-x="756" 
d="M318 0v242l-174 -242h-148l222 268l-211 240h141l170 -223v223h120v-223l170 223h141l-211 -240l222 -268h-148l-174 242v-242h-120z" />
    <glyph glyph-name="afii10073" unicode="&#x437;" horiz-adv-x="550" 
d="M32 159h114c0 -36 19 -97 120 -97c100 0 117 51 117 83c0 72 -78 71 -101 71h-68v82h55c72 0 90 39 90 72c0 38 -26 76 -98 76c-32 0 -97 -8 -100 -91h-114c3 72 38 173 221 173c159 0 217 -76 217 -155c0 -68 -43 -100 -86 -108v-2c82 -16 108 -63 108 -114
c0 -76 -42 -169 -242 -169s-230 116 -233 179z" />
    <glyph glyph-name="afii10074" unicode="&#x438;" horiz-adv-x="634" 
d="M192 142l238 366h132v-508h-120v366l-238 -366h-132v508h120v-366z" />
    <glyph glyph-name="afii10075" unicode="&#x439;" horiz-adv-x="634" 
d="M192 142l238 366h132v-508h-120v366l-238 -366h-132v508h120v-366zM120 700h102c3 -47 44 -73 95 -73s92 26 95 73h102c-13 -56 -51 -143 -197 -143c-144 0 -186 87 -197 143z" />
    <glyph glyph-name="afii10076" unicode="&#x43a;" horiz-adv-x="530" 
d="M192 296l193 212h138l-226 -237l237 -271h-138l-204 246v-246h-120v508h120v-212z" />
    <glyph glyph-name="afii10077" unicode="&#x43b;" horiz-adv-x="591" 
d="M13 0v82c97 -18 114 63 117 160v100v166h389v-508h-120v426h-157v-95c0 -177 -8 -375 -229 -331z" />
    <glyph glyph-name="afii10078" unicode="&#x43c;" horiz-adv-x="778" 
d="M346 0l-154 375h-2l2 -27v-348h-120v508h164l153 -380l153 380h164v-508h-120v348l2 27h-2l-154 -375h-86z" />
    <glyph glyph-name="afii10079" unicode="&#x43d;" horiz-adv-x="604" 
d="M192 226v-226h-120v508h120v-200h220v200h120v-508h-120v226h-220z" />
    <glyph glyph-name="afii10080" unicode="&#x43e;" horiz-adv-x="610" 
d="M305 528c216 0 262 -177 262 -274s-46 -274 -262 -274s-262 176 -262 274c0 97 46 274 262 274zM305 446c-43 0 -134 -18 -134 -192s91 -192 134 -192s134 18 134 192s-91 192 -134 192z" />
    <glyph glyph-name="afii10081" unicode="&#x43f;" horiz-adv-x="612" 
d="M192 426v-426h-120v508h468v-508h-120v426h-228z" />
    <glyph glyph-name="afii10082" unicode="&#x440;" horiz-adv-x="636" 
d="M72 508h110v-50h2c45 56 112 70 164 70c116 0 245 -74 245 -271c0 -108 -41 -277 -241 -277c-13 0 -120 0 -160 72v-237h-120v693zM183 253c0 -115 47 -191 135 -191c53 0 147 25 147 188c0 144 -69 196 -142 196c-53 0 -140 -28 -140 -193z" />
    <glyph glyph-name="afii10083" unicode="&#x441;" horiz-adv-x="574" 
d="M424 186h114c-8 -74 -54 -206 -240 -206c-173 0 -255 112 -255 273c0 260 185 275 251 275c156 0 231 -91 242 -189h-114c-5 52 -42 107 -121 107c-99 0 -130 -89 -130 -193c0 -159 80 -191 137 -191c89 0 113 77 116 124z" />
    <glyph glyph-name="afii10084" unicode="&#x442;" horiz-adv-x="494" 
d="M187 426h-174v82h468v-82h-174v-426h-120v426z" />
    <glyph glyph-name="afii10085" unicode="&#x443;" horiz-adv-x="541" 
d="M105 -183v82c12 -3 27 -6 46 -6c47 0 63 24 80 84l7 24l-231 507h144l153 -378l117 378h120l-194 -552c-16 -46 -42 -145 -167 -145c-23 0 -51 2 -75 6z" />
    <glyph glyph-name="afii10086" unicode="&#x444;" horiz-adv-x="846" 
d="M363 -185v173c-145 3 -320 41 -320 266c0 230 200 270 320 266v180h120v-180c120 4 320 -36 320 -266c0 -225 -177 -263 -320 -266v-173h-120zM363 69v369c-132 0 -192 -64 -192 -184c0 -145 93 -185 192 -185zM483 438v-369c99 0 192 40 192 185c0 120 -60 184 -192 184
z" />
    <glyph glyph-name="afii10087" unicode="&#x445;" horiz-adv-x="521" 
d="M261 337l118 171h131l-183 -243l194 -265h-128l-132 189l-132 -189h-129l194 265l-182 243h131z" />
    <glyph glyph-name="afii10088" unicode="&#x446;" horiz-adv-x="632" 
d="M192 82h228v426h120v-426h88l-10 -214h-100v132h-446v508h120v-426z" />
    <glyph glyph-name="afii10089" unicode="&#x447;" horiz-adv-x="542" 
d="M44 508h120v-140c0 -49 -1 -86 106 -86c15 0 28 1 80 2v224h120v-508h-120v202c-9 0 -29 -1 -50 -1s-45 -1 -64 -1c-178 0 -192 65 -192 145v163z" />
    <glyph glyph-name="afii10090" unicode="&#x448;" horiz-adv-x="884" 
d="M192 82h190v426h120v-426h190v426h120v-508h-740v508h120v-426z" />
    <glyph glyph-name="afii10091" unicode="&#x449;" horiz-adv-x="904" 
d="M192 82h190v426h120v-426h190v426h120v-426h88l-10 -214h-100v132h-718v508h120v-426z" />
    <glyph glyph-name="afii10092" unicode="&#x44a;" horiz-adv-x="625" 
d="M14 426v82h257v-196h117c81 0 211 -5 211 -157c0 -140 -114 -155 -183 -155h-265v426h-137zM271 230v-148h116c47 0 88 20 88 76c0 73 -69 72 -88 72h-116z" />
    <glyph glyph-name="afii10093" unicode="&#x44b;" horiz-adv-x="772" 
d="M72 508h120v-196h117c81 0 211 -5 211 -157c0 -140 -114 -155 -183 -155h-265v508zM192 230v-148h116c47 0 88 20 88 76c0 73 -69 72 -88 72h-116zM580 508h120v-508h-120v508z" />
    <glyph glyph-name="afii10094" unicode="&#x44c;" horiz-adv-x="543" 
d="M72 508h120v-196h117c81 0 211 -5 211 -157c0 -140 -114 -155 -183 -155h-265v508zM192 230v-148h116c47 0 88 20 88 76c0 73 -69 72 -88 72h-116z" />
    <glyph glyph-name="afii10095" unicode="&#x44d;" horiz-adv-x="588" 
d="M220 220v82h197c-3 68 -44 144 -134 144c-69 0 -123 -34 -130 -97h-114c13 115 115 179 249 179c65 0 257 -15 257 -275c0 -43 -4 -273 -268 -273c-171 0 -232 104 -240 192h114c3 -57 46 -110 124 -110c105 0 139 97 142 158h-197z" />
    <glyph glyph-name="afii10096" unicode="&#x44e;" horiz-adv-x="828" 
d="M192 309h75c8 116 100 219 256 219c216 0 262 -177 262 -274s-46 -274 -262 -274c-179 0 -256 128 -259 247h-72v-227h-120v508h120v-199zM389 254c0 -174 91 -192 134 -192s134 18 134 192s-91 192 -134 192s-134 -18 -134 -192z" />
    <glyph glyph-name="afii10097" unicode="&#x44f;" horiz-adv-x="577" 
d="M307 189l-138 -189h-132l150 190c-51 5 -139 34 -139 151c0 165 149 167 182 167h275v-508h-120v189h-78zM385 426h-106c-72 0 -107 -20 -107 -80c0 -52 31 -75 107 -75h106v155z" />
    <glyph glyph-name="afii10071" unicode="&#x451;" horiz-adv-x="594" 
d="M429 147h114c-13 -66 -60 -167 -242 -167c-51 0 -258 9 -258 265c0 172 84 283 259 283c158 0 246 -84 249 -305h-380c0 -65 32 -161 140 -161c54 0 110 29 118 85zM171 305h253c0 46 -17 141 -121 141c-93 0 -135 -75 -132 -141zM158 594v106h116v-106h-116zM348 594
v106h116v-106h-116z" />
    <glyph glyph-name="afii10099" unicode="&#x452;" horiz-adv-x="622" 
d="M80 700h120v-61h205v-68h-205v-130c35 59 108 87 167 87c161 0 193 -132 193 -319c0 -256 -43 -394 -248 -394v87h14c115 0 106 172 106 305c0 126 7 239 -105 239c-33 0 -127 -14 -127 -162v-284h-120v571h-80v68h80v61z" />
    <glyph glyph-name="afii10100" unicode="&#x453;" horiz-adv-x="454" 
d="M192 426v-426h-120v508h370v-82h-250zM223 700h130l-110 -132h-90z" />
    <glyph glyph-name="afii10101" unicode="&#x454;" horiz-adv-x="588" 
d="M368 302v-82h-197c3 -61 33 -158 140 -158c82 0 121 54 126 110h114c-8 -93 -79 -192 -246 -192c-156 0 -262 88 -262 273c0 260 200 275 267 275c129 0 226 -64 239 -179h-114c-7 63 -61 97 -130 97c-92 0 -131 -76 -134 -144h197z" />
    <glyph glyph-name="afii10102" unicode="&#x455;" horiz-adv-x="540" 
d="M36 155h120c0 -68 65 -93 119 -93c44 0 103 13 103 82c0 44 -26 60 -94 72l-55 9c-111 19 -166 56 -166 150c0 134 140 153 212 153c165 0 213 -71 216 -155h-113c-4 45 -40 73 -99 73c-49 0 -92 -14 -92 -63c0 -63 64 -70 131 -81c75 -13 186 -24 186 -151
c0 -124 -110 -171 -225 -171c-190 0 -238 99 -243 175z" />
    <glyph glyph-name="afii10103" unicode="&#x456;" horiz-adv-x="264" 
d="M72 508h120v-508h-120v508zM72 594v106h120v-106h-120z" />
    <glyph glyph-name="afii10104" unicode="&#x457;" horiz-adv-x="310" 
d="M95 508h120v-508h-120v508zM20 594v106h110v-106h-110zM180 594v106h110v-106h-110z" />
    <glyph glyph-name="afii10105" unicode="&#x458;" horiz-adv-x="264" 
d="M72 508h120v-535c0 -88 -15 -162 -143 -162c-17 0 -48 1 -68 4v82c65 1 91 19 91 83v528zM72 594v106h120v-106h-120z" />
    <glyph glyph-name="afii10106" unicode="&#x459;" horiz-adv-x="870" 
d="M13 0v82c7 -1 13 -2 20 -2c97 0 97 91 97 262v166h389v-196h125c72 0 203 -5 203 -157c0 -140 -114 -155 -183 -155h-265v426h-157v-95c0 -181 -3 -335 -192 -335c-12 0 -25 1 -37 4zM519 230v-148h116c47 0 88 20 88 76c0 73 -69 72 -88 72h-116z" />
    <glyph glyph-name="afii10107" unicode="&#x45a;" horiz-adv-x="883" 
d="M192 226v-226h-120v508h120v-200h220v200h120v-196h125c72 0 203 -5 203 -157c0 -140 -114 -155 -183 -155h-265v226h-220zM532 230v-148h116c45 0 88 20 88 76c0 73 -68 72 -88 72h-116z" />
    <glyph glyph-name="afii10108" unicode="&#x45b;" horiz-adv-x="614" 
d="M80 700h120v-61h205v-68h-205v-130c35 59 108 87 167 87c173 0 175 -151 175 -188v-340h-120v302c0 61 -1 144 -95 144c-33 0 -127 -14 -127 -162v-284h-120v571h-80v68h80v61z" />
    <glyph glyph-name="afii10109" unicode="&#x45c;" horiz-adv-x="530" 
d="M192 296l193 212h138l-226 -237l237 -271h-138l-204 246v-246h-120v508h120v-212zM261 700h130l-110 -132h-90z" />
    <glyph glyph-name="afii10110" unicode="&#x45e;" horiz-adv-x="541" 
d="M73 700h102c3 -47 44 -73 95 -73s92 26 95 73h102c-13 -56 -51 -143 -197 -143c-144 0 -186 87 -197 143zM105 -183v82c12 -3 27 -6 46 -6c47 0 63 24 80 84l7 24l-231 507h144l153 -378l117 378h120l-194 -552c-16 -46 -42 -145 -167 -145c-23 0 -51 2 -75 6z" />
    <glyph glyph-name="afii10193" unicode="&#x45f;" horiz-adv-x="614" 
d="M422 82v426h120v-508h-182v-185h-106v185h-182v508h120v-426h230z" />
    <glyph glyph-name="afii10146" unicode="&#x462;" horiz-adv-x="744" 
d="M287 700v-66h220v-106h-220v-98h182c76 0 243 -15 243 -219c0 -88 -44 -211 -244 -211h-309v528h-147v106h147v66h128zM287 324v-218h156c67 0 137 15 137 111c0 100 -78 107 -134 107h-159z" />
    <glyph glyph-name="afii10194" unicode="&#x463;" horiz-adv-x="620" 
d="M13 426v82h136v192h120v-192h197v-82h-197v-114h117c81 0 211 -5 211 -157c0 -140 -114 -155 -183 -155h-265v426h-136zM269 230v-148h116c47 0 88 20 88 76c0 73 -69 72 -88 72h-116z" />
    <glyph glyph-name="afii10147" unicode="&#x472;" horiz-adv-x="776" 
d="M388 721c61 0 343 -8 343 -371s-282 -371 -343 -371s-343 8 -343 371s282 371 343 371zM388 615c-155 0 -195 -127 -203 -215h406c-8 88 -48 215 -203 215zM388 85c154 0 197 129 202 209h-404c5 -80 48 -209 202 -209z" />
    <glyph glyph-name="afii10195" unicode="&#x473;" horiz-adv-x="610" 
d="M305 528c216 0 262 -177 262 -274s-46 -274 -262 -274s-262 176 -262 274c0 97 46 274 262 274zM305 446c-99 0 -129 -95 -132 -148h264c-5 53 -31 148 -132 148zM305 62c107 0 130 110 133 154h-266c3 -44 26 -154 133 -154z" />
    <glyph glyph-name="afii10148" unicode="&#x474;" horiz-adv-x="720" 
d="M311 133l102 378c27 100 52 201 203 201c35 0 64 -5 91 -12v-106c-21 8 -41 12 -68 12c-63 0 -85 -27 -109 -107l-146 -499h-147l-241 700h139z" />
    <glyph glyph-name="afii10196" unicode="&#x475;" horiz-adv-x="566" 
d="M252 118l60 230c21 80 40 164 179 164c23 0 42 -1 63 -4v-82c-16 3 -30 4 -43 4c-36 0 -71 -6 -95 -94l-95 -336h-139l-186 508h128z" />
    <glyph glyph-name="afii10050" unicode="&#x490;" horiz-adv-x="556" 
d="M213 594v-594h-128v700h340v158h112l6 -264h-330z" />
    <glyph glyph-name="afii10098" unicode="&#x491;" horiz-adv-x="454" 
d="M192 426v-426h-120v508h260v132h100l10 -214h-250z" />
    <glyph glyph-name="uni0492" unicode="&#x492;" horiz-adv-x="560" 
d="M217 402h205v-90h-205v-312h-128v312h-89v90h89v298h458v-106h-330v-192z" />
    <glyph glyph-name="uni0493" unicode="&#x493;" horiz-adv-x="454" 
d="M192 426v-117h120v-68h-120v-241h-120v241h-82v68h82v199h370v-82h-250z" />
    <glyph glyph-name="uni0494" unicode="&#x494;" horiz-adv-x="620" 
d="M213 594v-196c29 3 88 7 118 7c66 0 244 -11 244 -297c0 -263 -156 -306 -257 -306c-39 0 -80 6 -107 13v106c31 -11 61 -13 96 -13c60 0 131 24 131 195c0 185 -69 196 -133 196c-33 0 -61 -3 -92 -7v-292h-128v700h458v-106h-330z" />
    <glyph glyph-name="uni0495" unicode="&#x495;" horiz-adv-x="480" 
d="M192 426v-116h32c208 0 223 -142 223 -235c0 -116 -24 -265 -250 -260v87h19c56 0 103 27 103 167c0 84 -7 159 -95 159h-32v-228h-120v508h369v-82h-249z" />
    <glyph glyph-name="uni0496" unicode="&#x496;" horiz-adv-x="996" 
d="M419 0v335l-269 -335h-154l309 376l-290 324h154l250 -296v296h128v-296l250 296h154l-290 -324l222 -270h100l-6 -264h-112v158h-50l-268 335v-335h-128z" />
    <glyph glyph-name="uni0497" unicode="&#x497;" horiz-adv-x="779" 
d="M318 0v242l-174 -242h-148l222 268l-211 240h141l170 -223v223h120v-223l170 223h141l-211 -240l154 -186h83l-10 -214h-100v132h-53l-174 242v-242h-120z" />
    <glyph glyph-name="uni0498" unicode="&#x498;" horiz-adv-x="697" 
d="M45 239h127c0 -57 27 -153 179 -153c76 0 156 29 156 116s-60 110 -138 110h-96v106h83c29 0 123 1 123 92c0 63 -39 105 -142 105c-121 0 -154 -61 -157 -121h-127c3 184 143 227 295 227c96 0 263 -25 263 -198c0 -90 -55 -146 -117 -154v-2c75 -11 145 -69 145 -178
c0 -64 -29 -193 -233 -209v-166h-120v166c-180 5 -238 151 -241 259z" />
    <glyph glyph-name="uni0499" unicode="&#x499;" horiz-adv-x="550" 
d="M32 159h114c0 -36 19 -97 120 -97c100 0 117 51 117 83c0 72 -78 71 -101 71h-68v82h55c72 0 90 39 90 72c0 38 -26 76 -98 76c-32 0 -97 -8 -100 -91h-114c3 72 38 173 221 173c159 0 217 -76 217 -155c0 -68 -43 -100 -86 -108v-2c82 -16 108 -63 108 -114
c0 -68 -41 -156 -180 -169v-165h-106v165c-115 8 -186 82 -189 179z" />
    <glyph glyph-name="uni049A" unicode="&#x49a;" horiz-adv-x="690" 
d="M213 385l281 315h152l-310 -323l241 -271h100l-6 -264h-112v158h-50l-296 363v-363h-128v700h128v-315z" />
    <glyph glyph-name="uni049B" unicode="&#x49b;" horiz-adv-x="568" 
d="M192 296l193 212h138l-226 -237l145 -165h122l-8 -264h-110v158h-50l-204 246v-246h-120v508h120v-212z" />
    <glyph glyph-name="uni049C" unicode="&#x49c;" horiz-adv-x="660" 
d="M85 700h128v-274h50v140h90v-140l154 274h128l-192 -323l220 -377h-142l-168 320v-160h-90v160h-50v-320h-128v700z" />
    <glyph glyph-name="uni049D" unicode="&#x49d;" horiz-adv-x="582" 
d="M72 508h120v-196h50v120h68v-120l140 196h125l-186 -237l197 -271h-126l-150 230v-140h-68v140h-50v-230h-120v508z" />
    <glyph glyph-name="uni04A0" unicode="&#x4a0;" horiz-adv-x="822" 
d="M367 385l281 315h152l-310 -323l336 -377h-162l-297 363v-363h-128v594h-226v106h354v-315z" />
    <glyph glyph-name="uni04A1" unicode="&#x4a1;" horiz-adv-x="608" 
d="M270 296l193 212h138l-226 -237l237 -271h-138l-204 246v-246h-120v426h-138v82h258v-212z" />
    <glyph glyph-name="uni04A2" unicode="&#x4a2;" horiz-adv-x="762" 
d="M213 314v-314h-128v700h128v-280h312v280h128v-594h96l-6 -264h-112v158h-106v314h-312z" />
    <glyph glyph-name="uni04A3" unicode="&#x4a3;" horiz-adv-x="624" 
d="M192 226v-226h-120v508h120v-200h220v200h120v-426h88l-10 -214h-100v132h-98v226h-220z" />
    <glyph glyph-name="uni04A4" unicode="&#x4a4;" horiz-adv-x="996" 
d="M213 314v-314h-128v700h128v-280h312v280h458v-106h-330v-594h-128v314h-312z" />
    <glyph glyph-name="uni04A5" unicode="&#x4a5;" horiz-adv-x="794" 
d="M192 226v-226h-120v508h120v-200h220v200h370v-82h-250v-426h-120v226h-220z" />
    <glyph glyph-name="uni04AA" unicode="&#x4aa;" horiz-adv-x="733" 
d="M568 239h127c-18 -203 -165 -251 -245 -259v-165h-120v165c-102 13 -285 79 -285 358c0 288 166 383 340 383c240 0 295 -147 300 -247h-127c-8 58 -42 141 -173 141c-156 0 -203 -127 -203 -272c0 -164 90 -257 216 -257c117 0 165 80 170 153z" />
    <glyph glyph-name="uni04AB" unicode="&#x4ab;" horiz-adv-x="574" 
d="M424 186h114c-19 -151 -117 -198 -187 -206v-165h-106v165c-100 11 -202 86 -202 273c0 260 186 275 251 275c156 0 231 -91 242 -189h-114c-5 52 -42 107 -121 107c-99 0 -130 -89 -130 -193c0 -159 80 -191 137 -191c89 0 113 77 116 124z" />
    <glyph glyph-name="uni04AE" unicode="&#x4ae;" horiz-adv-x="634" 
d="M317 393l170 307h151l-257 -421v-279h-128v279l-257 421h151z" />
    <glyph glyph-name="uni04AF" unicode="&#x4af;" horiz-adv-x="520" 
d="M200 -185v185l-193 508h128l125 -378l125 378h128l-193 -508v-185h-120z" />
    <glyph glyph-name="uni04B0" unicode="&#x4b0;" horiz-adv-x="634" 
d="M253 0v140h-150v90h150v49l-257 421h151l170 -307l170 307h151l-257 -421v-49h150v-90h-150v-140h-128z" />
    <glyph glyph-name="uni04B1" unicode="&#x4b1;" horiz-adv-x="520" 
d="M200 -185v87h-120v68h120v30l-193 508h128l125 -378l125 378h128l-193 -508v-30h120v-68h-120v-87h-120z" />
    <glyph glyph-name="uni04B2" unicode="&#x4b2;" horiz-adv-x="692" 
d="M333 447l155 253h160l-235 -342l178 -252h88l-6 -264h-112v158h-60l-168 270l-168 -270h-165l253 358l-235 342h160z" />
    <glyph glyph-name="uni04B3" unicode="&#x4b3;" horiz-adv-x="564" 
d="M261 337l118 171h131l-183 -243l117 -159h116l-8 -264h-110v158h-50l-131 189l-132 -189h-129l194 265l-182 243h131z" />
    <glyph glyph-name="uni04B6" unicode="&#x4b6;" horiz-adv-x="697" 
d="M58 700h128v-189c0 -67 4 -117 147 -117c56 0 116 7 127 7v299h128v-594h96l-6 -264h-112v158h-106v295c-39 -3 -98 -7 -143 -7c-149 0 -259 37 -259 194v218z" />
    <glyph glyph-name="uni04B7" unicode="&#x4b7;" horiz-adv-x="562" 
d="M44 508h120v-140c0 -49 -1 -86 106 -86c15 0 28 1 80 2v224h120v-426h88l-10 -214h-100v132h-98v202c-9 0 -29 -1 -50 -1s-45 -1 -64 -1c-178 0 -192 65 -192 145v163z" />
    <glyph glyph-name="uni04B8" unicode="&#x4b8;" horiz-adv-x="690" 
d="M58 700h128v-189c0 -40 1 -116 104 -116v139h90v-139c31 1 64 3 97 6v299h128v-700h-128v295c-32 -3 -64 -5 -97 -6v-161h-90v161c-185 -3 -232 93 -232 193v218z" />
    <glyph glyph-name="uni04B9" unicode="&#x4b9;" horiz-adv-x="542" 
d="M44 508h120v-140c0 -29 -1 -81 72 -86v100h68v-100c9 1 17 1 24 1s15 0 22 1v224h120v-508h-120v202c-9 -1 -17 -1 -24 -1s-15 0 -22 -1v-120h-68v120h-15c-168 0 -177 79 -177 145v163z" />
    <glyph glyph-name="uni04BA" unicode="&#x4ba;" horiz-adv-x="674" 
d="M602 0h-128v232c0 68 0 117 -155 117c-37 0 -68 0 -119 -7v-342h-128v700h128v-252c39 3 98 7 143 7c235 0 259 -103 259 -194v-261z" />
    <glyph glyph-name="uni04BB" unicode="&#x4bb;" horiz-adv-x="606" 
d="M72 700h120v-259c35 59 108 87 167 87c173 0 175 -151 175 -188v-340h-120v302c0 61 -1 144 -95 144c-33 0 -127 -14 -127 -162v-284h-120v700z" />
    <glyph glyph-name="uni04C0" unicode="&#x4c0;" horiz-adv-x="298" 
d="M85 700h128v-700h-128v700z" />
    <glyph glyph-name="uni04C1" unicode="&#x4c1;" horiz-adv-x="966" 
d="M419 0v335l-269 -335h-154l309 376l-290 324h154l250 -296v296h128v-296l250 296h154l-290 -324l309 -376h-154l-269 335v-335h-128zM273 883h103c5 -53 51 -81 107 -81s102 28 107 81h103c-16 -85 -85 -153 -210 -153s-194 68 -210 153z" />
    <glyph glyph-name="uni04C2" unicode="&#x4c2;" horiz-adv-x="756" 
d="M318 0v242l-174 -242h-148l222 268l-211 240h141l170 -223v223h120v-223l170 223h141l-211 -240l222 -268h-148l-174 242v-242h-120zM181 700h102c3 -47 44 -73 95 -73s92 26 95 73h102c-13 -56 -51 -143 -197 -143c-144 0 -186 87 -197 143z" />
    <glyph glyph-name="uni04C3" unicode="&#x4c3;" horiz-adv-x="708" 
d="M213 385l281 315h152l-310 -323l263 -295c50 0 149 -22 149 -141c0 -170 -160 -171 -194 -171v82c33 0 88 12 88 79c0 65 -49 69 -73 69h-60l-296 363v-363h-128v700h128v-315z" />
    <glyph glyph-name="uni04C4" unicode="&#x4c4;" horiz-adv-x="562" 
d="M192 296l193 212h138l-226 -237l165 -189c52 -3 130 -32 130 -142c0 -140 -114 -170 -178 -170v82c31 0 88 16 88 79c0 39 -25 69 -66 69h-40l-204 246v-246h-120v508h120v-212z" />
    <glyph glyph-name="uni04C7" unicode="&#x4c7;" horiz-adv-x="762" 
d="M213 314v-314h-128v700h128v-280h312v280h128v-618c50 0 149 -22 149 -141c0 -170 -160 -171 -194 -171v82c33 0 88 12 88 79c0 65 -49 69 -73 69h-98v314h-312z" />
    <glyph glyph-name="uni04C8" unicode="&#x4c8;" horiz-adv-x="632" 
d="M192 226v-226h-120v508h120v-200h220v200h120v-426c52 -3 130 -32 130 -142c0 -140 -114 -170 -178 -170v82c31 0 88 16 88 79c0 39 -25 69 -66 69h-94v226h-220z" />
    <glyph glyph-name="uni04D0" unicode="&#x4d0;" horiz-adv-x="648" 
d="M114 883h103c5 -53 51 -81 107 -81s102 28 107 81h103c-16 -85 -85 -153 -210 -153s-194 68 -210 153zM184 147l-51 -147h-137l264 700h128l264 -700h-137l-51 147h-280zM218 253h212l-106 311z" />
    <glyph glyph-name="uni04D1" unicode="&#x4d1;" horiz-adv-x="577" 
d="M91 700h102c3 -47 44 -73 95 -73s92 26 95 73h102c-13 -56 -51 -143 -197 -143c-144 0 -186 87 -197 143zM164 351h-114c-3 93 66 177 232 177c205 0 219 -120 219 -180v-203c0 -49 2 -65 44 -62v-83c-31 -3 -42 -3 -53 -3c-31 0 -88 4 -99 66c-44 -56 -101 -75 -169 -75
c-176 0 -187 104 -187 147c0 105 94 137 117 142c39 11 75 12 118 19c16 3 33 4 49 7c42 5 60 5 60 55c0 80 -60 88 -99 88c-88 0 -121 -47 -118 -95zM381 226v18c-13 -9 -29 -14 -86 -21c-82 -11 -134 -18 -134 -84c0 -39 23 -69 79 -69c60 0 141 24 141 156z" />
    <glyph glyph-name="uni04D2" unicode="&#x4d2;" horiz-adv-x="648" 
d="M141 772v88h128v-88h-128zM379 772v88h128v-88h-128zM184 147l-51 -147h-137l264 700h128l264 -700h-137l-51 147h-280zM218 253h212l-106 311z" />
    <glyph glyph-name="uni04D3" unicode="&#x4d3;" horiz-adv-x="577" 
d="M135 594v106h116v-106h-116zM325 594v106h116v-106h-116zM164 351h-114c-3 93 66 177 232 177c205 0 219 -120 219 -180v-203c0 -49 2 -65 44 -62v-83c-31 -3 -42 -3 -53 -3c-31 0 -88 4 -99 66c-44 -56 -101 -75 -169 -75c-176 0 -187 104 -187 147
c0 105 94 137 117 142c39 11 75 12 118 19c16 3 33 4 49 7c42 5 60 5 60 55c0 80 -60 88 -99 88c-88 0 -121 -47 -118 -95zM381 226v18c-13 -9 -29 -14 -86 -21c-82 -11 -134 -18 -134 -84c0 -39 23 -69 79 -69c60 0 141 24 141 156z" />
    <glyph glyph-name="uni04D4" unicode="&#x4d4;" horiz-adv-x="1062" 
d="M509 0v154h-278l-84 -154h-152l397 700h642v-106h-397v-182h356v-106h-356v-200h408v-106h-536zM509 260v334h-42l-180 -334h222z" />
    <glyph glyph-name="uni04D5" unicode="&#x4d5;" horiz-adv-x="930" 
d="M164 351h-114c-3 91 66 177 232 177c77 0 144 -15 173 -79c53 74 143 79 183 79c58 0 249 -13 249 -276v-29h-380c0 -65 32 -161 140 -161c54 0 110 29 118 85h114c-13 -66 -60 -167 -242 -167c-72 0 -150 15 -198 92c-42 -76 -143 -92 -215 -92c-65 0 -187 13 -187 155
c0 105 94 137 117 142c41 11 86 15 167 26c42 5 60 5 60 55c0 80 -60 88 -99 88c-88 0 -121 -47 -118 -95zM381 218v26c-13 -9 -29 -14 -86 -21c-83 -11 -134 -18 -134 -84c0 -43 23 -77 79 -77c60 0 141 24 141 156zM507 305h253c0 46 -17 141 -121 141
c-93 0 -135 -75 -132 -141z" />
    <glyph glyph-name="uni04D6" unicode="&#x4d6;" horiz-adv-x="638" 
d="M109 883h103c5 -53 51 -81 107 -81s102 28 107 81h103c-16 -85 -85 -153 -210 -153s-194 68 -210 153zM213 412h356v-106h-356v-200h408v-106h-536v700h525v-106h-397v-182z" />
    <glyph glyph-name="uni04D7" unicode="&#x4d7;" horiz-adv-x="594" 
d="M100 700h102c3 -47 44 -73 95 -73s92 26 95 73h102c-13 -56 -51 -143 -197 -143c-144 0 -186 87 -197 143zM429 147h114c-13 -66 -60 -167 -242 -167c-51 0 -258 9 -258 265c0 172 84 283 259 283c219 0 244 -176 248 -276c0 -11 1 -18 1 -29h-380
c0 -65 32 -161 140 -161c54 0 110 29 118 85zM171 305h253c0 46 -17 141 -121 141c-93 0 -135 -75 -132 -141z" />
    <glyph glyph-name="uni04D8" unicode="&#x4d8;" horiz-adv-x="774" 
d="M45 367h547c4 84 -24 248 -217 248c-94 0 -173 -39 -189 -121h-127c8 45 52 227 312 227c349 0 358 -302 358 -370c0 -368 -296 -372 -342 -372c-253 0 -350 199 -342 388zM589 254h-404c8 -71 54 -169 202 -169c119 0 189 77 202 169z" />
    <glyph glyph-name="afii10846" unicode="&#x4d9;" horiz-adv-x="594" 
d="M165 361h-114c14 65 62 167 242 167c244 0 258 -205 258 -265c0 -172 -84 -283 -259 -283c-73 0 -257 17 -249 305h380c0 65 -31 161 -136 161c-55 0 -109 -29 -122 -85zM423 203h-253c0 -46 17 -141 121 -141c110 0 132 95 132 141z" />
    <glyph glyph-name="uni04DA" unicode="&#x4da;" horiz-adv-x="774" 
d="M45 367h547c4 84 -24 248 -217 248c-94 0 -173 -39 -189 -121h-127c8 45 52 227 312 227c349 0 358 -302 358 -370c0 -368 -296 -372 -342 -372c-253 0 -350 199 -342 388zM589 254h-404c8 -71 54 -169 202 -169c119 0 189 77 202 169zM204 772v88h128v-88h-128zM442 772
v88h128v-88h-128z" />
    <glyph glyph-name="uni04DB" unicode="&#x4db;" horiz-adv-x="594" 
d="M165 361h-114c14 65 62 167 242 167c244 0 258 -205 258 -265c0 -172 -84 -283 -259 -283c-73 0 -257 17 -249 305h380c0 65 -31 161 -136 161c-55 0 -109 -29 -122 -85zM423 203h-253c0 -46 17 -141 121 -141c110 0 132 95 132 141zM144 594v106h116v-106h-116zM334 594
v106h116v-106h-116z" />
    <glyph glyph-name="uni04DC" unicode="&#x4dc;" horiz-adv-x="966" 
d="M419 0v335l-269 -335h-154l309 376l-290 324h154l250 -296v296h128v-296l250 296h154l-290 -324l309 -376h-154l-269 335v-335h-128zM300 772v88h128v-88h-128zM538 772v88h128v-88h-128z" />
    <glyph glyph-name="uni04DD" unicode="&#x4dd;" horiz-adv-x="756" 
d="M318 0v242l-174 -242h-148l222 268l-211 240h141l170 -223v223h120v-223l170 223h141l-211 -240l222 -268h-148l-174 242v-242h-120zM225 594v106h116v-106h-116zM415 594v106h116v-106h-116z" />
    <glyph glyph-name="uni04DE" unicode="&#x4de;" horiz-adv-x="697" 
d="M45 239h127c0 -58 27 -154 179 -154c96 0 156 41 156 117c0 87 -60 110 -138 110h-96v106h83c29 0 123 1 123 92c0 63 -39 105 -142 105c-121 0 -154 -61 -157 -121h-127c3 184 143 227 295 227c96 0 263 -25 263 -198c0 -90 -55 -146 -117 -154v-2
c76 -11 145 -68 145 -178c0 -82 -45 -210 -296 -210c-181 0 -290 77 -298 260zM165 772v88h128v-88h-128zM403 772v88h128v-88h-128z" />
    <glyph glyph-name="uni04DF" unicode="&#x4df;" horiz-adv-x="550" 
d="M32 159h114c0 -36 19 -97 120 -97c100 0 117 51 117 83c0 72 -78 71 -101 71h-68v82h55c72 0 90 39 90 72c0 38 -26 76 -98 76c-32 0 -97 -8 -100 -91h-114c3 72 38 173 221 173c159 0 217 -76 217 -155c0 -68 -43 -100 -86 -108v-2c82 -16 108 -63 108 -114
c0 -76 -42 -169 -242 -169s-230 116 -233 179zM122 594v106h116v-106h-116zM312 594v106h116v-106h-116z" />
    <glyph glyph-name="uni04E2" unicode="&#x4e2;" horiz-adv-x="756" 
d="M213 188l333 512h125v-700h-128v512l-333 -512h-125v700h128v-512zM213 760v80h330v-80h-165h-165z" />
    <glyph glyph-name="uni04E3" unicode="&#x4e3;" horiz-adv-x="634" 
d="M192 142l238 366h132v-508h-120v366l-238 -366h-132v508h120v-366zM152 602v82h330v-82h-165h-165z" />
    <glyph glyph-name="uni04E4" unicode="&#x4e4;" horiz-adv-x="756" 
d="M213 188l333 512h125v-700h-128v512l-333 -512h-125v700h128v-512zM195 772v88h128v-88h-128zM433 772v88h128v-88h-128z" />
    <glyph glyph-name="uni04E5" unicode="&#x4e5;" horiz-adv-x="634" 
d="M192 142l238 366h132v-508h-120v366l-238 -366h-132v508h120v-366zM164 594v106h116v-106h-116zM354 594v106h116v-106h-116z" />
    <glyph glyph-name="uni04E6" unicode="&#x4e6;" horiz-adv-x="776" 
d="M205 772v88h128v-88h-128zM443 772v88h128v-88h-128zM388 721c61 0 343 -8 343 -371s-282 -371 -343 -371s-343 8 -343 371s282 371 343 371zM388 615c-172 0 -206 -157 -206 -265s34 -265 206 -265s206 157 206 265s-34 265 -206 265z" />
    <glyph glyph-name="uni04E7" unicode="&#x4e7;" horiz-adv-x="610" 
d="M152 594v106h116v-106h-116zM342 594v106h116v-106h-116zM305 528c216 0 262 -177 262 -274s-46 -274 -262 -274s-262 176 -262 274c0 97 46 274 262 274zM305 446c-43 0 -134 -18 -134 -192s91 -192 134 -192s134 18 134 192s-91 192 -134 192z" />
    <glyph glyph-name="uni04E8" unicode="&#x4e8;" horiz-adv-x="776" 
d="M388 721c61 0 343 -8 343 -371s-282 -371 -343 -371s-343 8 -343 371s282 371 343 371zM388 615c-155 0 -195 -127 -203 -215h406c-8 88 -48 215 -203 215zM388 85c154 0 197 129 202 209h-404c5 -80 48 -209 202 -209z" />
    <glyph glyph-name="uni04E9" unicode="&#x4e9;" horiz-adv-x="610" 
d="M305 528c216 0 262 -177 262 -274s-46 -274 -262 -274s-262 176 -262 274c0 97 46 274 262 274zM305 446c-99 0 -129 -95 -132 -148h264c-5 53 -31 148 -132 148zM305 62c107 0 130 110 133 154h-266c3 -44 26 -154 133 -154z" />
    <glyph glyph-name="uni04EA" unicode="&#x4ea;" horiz-adv-x="776" 
d="M388 721c61 0 343 -8 343 -371s-282 -371 -343 -371s-343 8 -343 371s282 371 343 371zM388 615c-155 0 -195 -127 -203 -215h406c-8 88 -48 215 -203 215zM388 85c154 0 197 129 202 209h-404c5 -80 48 -209 202 -209zM205 772v88h128v-88h-128zM443 772v88h128v-88
h-128z" />
    <glyph glyph-name="uni04EB" unicode="&#x4eb;" horiz-adv-x="610" 
d="M305 528c216 0 262 -177 262 -274s-46 -274 -262 -274s-262 176 -262 274c0 97 46 274 262 274zM305 446c-99 0 -129 -95 -132 -148h264c-5 53 -31 148 -132 148zM305 62c107 0 130 110 133 154h-266c3 -44 26 -154 133 -154zM152 594v106h116v-106h-116zM342 594v106
h116v-106h-116z" />
    <glyph glyph-name="uni04EE" unicode="&#x4ee;" horiz-adv-x="623" 
d="M345 322l148 378h134l-235 -564c-59 -144 -137 -146 -198 -146c-33 0 -56 0 -91 11v111c23 -7 46 -12 73 -12c45 0 84 15 100 84l-267 516h157zM146 760v80h330v-80h-165h-165z" />
    <glyph glyph-name="uni04EF" unicode="&#x4ef;" horiz-adv-x="541" 
d="M105 602v82h330v-82h-165h-165zM105 -183v82c12 -3 27 -6 46 -6c47 0 63 24 80 84l7 24l-231 507h144l153 -378l117 378h120l-194 -552c-16 -46 -42 -145 -167 -145c-23 0 -51 2 -75 6z" />
    <glyph glyph-name="uni04F0" unicode="&#x4f0;" horiz-adv-x="623" 
d="M345 322l148 378h134l-235 -564c-59 -144 -137 -146 -198 -146c-33 0 -56 0 -91 11v111c23 -7 46 -12 73 -12c45 0 84 15 100 84l-267 516h157zM128 772v88h128v-88h-128zM366 772v88h128v-88h-128z" />
    <glyph glyph-name="uni04F1" unicode="&#x4f1;" horiz-adv-x="541" 
d="M117 594v106h116v-106h-116zM307 594v106h116v-106h-116zM105 -183v82c12 -3 27 -6 46 -6c47 0 63 24 80 84l7 24l-231 507h144l153 -378l117 378h120l-194 -552c-16 -46 -42 -145 -167 -145c-23 0 -51 2 -75 6z" />
    <glyph glyph-name="uni04F2" unicode="&#x4f2;" horiz-adv-x="623" 
d="M345 322l148 378h134l-235 -564c-59 -144 -137 -146 -198 -146c-33 0 -56 0 -91 11v111c23 -7 46 -12 73 -12c45 0 84 15 100 84l-267 516h157zM254 900h130l-118 -140h-90zM426 900h130l-118 -140h-90z" />
    <glyph glyph-name="uni04F3" unicode="&#x4f3;" horiz-adv-x="541" 
d="M205 700h120l-110 -132h-80zM375 700h120l-110 -132h-80zM105 -183v82c12 -3 27 -6 46 -6c47 0 63 24 80 84l7 24l-231 507h144l153 -378l117 378h120l-194 -552c-16 -46 -42 -145 -167 -145c-23 0 -51 2 -75 6z" />
    <glyph glyph-name="uni04F4" unicode="&#x4f4;" horiz-adv-x="673" 
d="M58 700h128v-189c0 -67 4 -117 147 -117c56 0 116 7 127 7v299h128v-700h-128v295c-39 -3 -98 -7 -143 -7c-149 0 -259 37 -259 194v218zM153 772v88h128v-88h-128zM391 772v88h128v-88h-128z" />
    <glyph glyph-name="uni04F5" unicode="&#x4f5;" horiz-adv-x="542" 
d="M44 508h120v-140c0 -49 -1 -86 106 -86c15 0 28 1 80 2v224h120v-508h-120v202c-9 0 -29 -1 -50 -1s-45 -1 -64 -1c-178 0 -192 65 -192 145v163zM118 594v106h116v-106h-116zM308 594v106h116v-106h-116z" />
    <glyph glyph-name="uni04F8" unicode="&#x4f8;" horiz-adv-x="908" 
d="M213 700v-270h182c76 0 243 -15 243 -219c0 -88 -44 -211 -244 -211h-309v700h128zM213 324v-218h156c68 0 137 15 137 111c0 100 -81 107 -134 107h-159zM695 700h128v-700h-128v700zM271 772v88h128v-88h-128zM509 772v88h128v-88h-128z" />
    <glyph glyph-name="uni04F9" unicode="&#x4f9;" horiz-adv-x="772" 
d="M72 508h120v-196h117c81 0 211 -5 211 -157c0 -140 -114 -155 -183 -155h-265v508zM192 230v-148h116c47 0 88 20 88 76c0 73 -69 72 -88 72h-116zM580 508h120v-508h-120v508zM233 594v106h116v-106h-116zM423 594v106h116v-106h-116z" />
    <glyph glyph-name="uni2010" unicode="&#x2010;" horiz-adv-x="420" 
d="M80 216v106h260v-106h-260z" />
    <glyph glyph-name="uni2011" unicode="&#x2011;" horiz-adv-x="420" 
d="M80 216v106h260v-106h-260z" />
    <glyph glyph-name="figuredash" unicode="&#x2012;" 
d="M50 401h500v-82h-500v82z" />
    <glyph glyph-name="endash" unicode="&#x2013;" 
d="M50 310h500v-82h-500v82z" />
    <glyph glyph-name="emdash" unicode="&#x2014;" horiz-adv-x="980" 
d="M50 228v82h880v-82h-880z" />
    <glyph glyph-name="afii00208" unicode="&#x2015;" horiz-adv-x="980" 
d="M50 228v82h880v-82h-880z" />
    <glyph glyph-name="quoteleft" unicode="&#x2018;" horiz-adv-x="344" 
d="M238 429h-132v139c0 114 71 149 132 154v-69c-39 -3 -67 -33 -67 -78v-11h67v-135z" />
    <glyph glyph-name="quoteright" unicode="&#x2019;" horiz-adv-x="344" 
d="M106 700h132v-139c0 -114 -71 -149 -132 -154v69c39 3 67 33 67 78v11h-67v135z" />
    <glyph glyph-name="quotesinglbase" unicode="&#x201a;" horiz-adv-x="344" 
d="M106 135h132v-139c0 -114 -71 -149 -132 -154v69c39 3 67 33 67 78v11h-67v135z" />
    <glyph glyph-name="quotedblleft" unicode="&#x201c;" horiz-adv-x="480" 
d="M403 429h-132v139c0 114 71 149 132 154v-69c-39 -3 -67 -33 -67 -78v-11h67v-135zM209 429h-132v139c0 114 71 149 132 154v-69c-39 -3 -67 -33 -67 -78v-11h67v-135z" />
    <glyph glyph-name="quotedblright" unicode="&#x201d;" horiz-adv-x="480" 
d="M77 700h132v-139c0 -114 -71 -149 -132 -154v69c39 3 67 33 67 78v11h-67v135zM271 700h132v-139c0 -114 -71 -149 -132 -154v69c39 3 67 33 67 78v11h-67v135z" />
    <glyph glyph-name="quotedblbase" unicode="&#x201e;" horiz-adv-x="480" 
d="M77 135h132v-139c0 -114 -71 -149 -132 -154v69c39 3 67 33 67 78v11h-67v135zM271 135h132v-139c0 -114 -71 -149 -132 -154v69c39 3 67 33 67 78v11h-67v135z" />
    <glyph glyph-name="dagger" unicode="&#x2020;" horiz-adv-x="526" 
d="M210 700h106v-192h185v-92h-185v-601h-106v601h-185v92h185v192z" />
    <glyph glyph-name="daggerdbl" unicode="&#x2021;" horiz-adv-x="526" 
d="M210 700h106v-192h185v-92h-185v-168h185v-92h-185v-341h-106v341h-185v92h185v168h-185v92h185v192z" />
    <glyph glyph-name="bullet" unicode="&#x2022;" 
d="M185 350c0 64 51 115 115 115s115 -51 115 -115s-51 -115 -115 -115s-115 51 -115 115z" />
    <glyph glyph-name="ellipsis" unicode="&#x2026;" horiz-adv-x="1032" 
d="M106 0v135h132v-135h-132zM450 0v135h132v-135h-132zM794 0v135h132v-135h-132z" />
    <glyph glyph-name="perthousand" unicode="&#x2030;" horiz-adv-x="1350" 
d="M218 0l421 700h93l-421 -700h-93zM224 708c109 0 170 -85 170 -200s-61 -200 -170 -200s-170 85 -170 200s61 200 170 200zM224 642c-21 0 -90 -3 -90 -134s69 -134 90 -134s90 3 90 134s-69 134 -90 134zM726 392c109 0 170 -85 170 -200s-61 -200 -170 -200
s-170 85 -170 200s61 200 170 200zM726 326c-21 0 -90 -3 -90 -134s69 -134 90 -134s90 3 90 134s-69 134 -90 134zM1126 392c109 0 170 -85 170 -200s-61 -200 -170 -200s-170 85 -170 200s61 200 170 200zM1126 326c-21 0 -90 -3 -90 -134s69 -134 90 -134s90 3 90 134
s-69 134 -90 134z" />
    <glyph glyph-name="guilsinglleft" unicode="&#x2039;" horiz-adv-x="286" 
d="M116 270l95 -81v-106l-149 132v110l149 132v-106z" />
    <glyph glyph-name="guilsinglright" unicode="&#x203a;" horiz-adv-x="286" 
d="M170 270l-95 81v106l149 -132v-110l-149 -132v106z" />
    <glyph glyph-name="fraction" unicode="&#x2044;" horiz-adv-x="100" 
d="M-200 0l428 700h72l-428 -700h-72z" />
    <glyph glyph-name="uni2070" unicode="&#x2070;" horiz-adv-x="372" 
d="M186 267c-61 0 -158 23 -158 223s97 223 158 223c59 0 158 -23 158 -223s-99 -223 -158 -223zM186 329c40 0 84 25 84 161s-44 161 -84 161s-84 -25 -84 -161s44 -161 84 -161z" />
    <glyph glyph-name="uni2074" unicode="&#x2074;" horiz-adv-x="372" 
d="M220 374h-202v62l202 264h74v-264h60v-62h-60v-94h-74v94zM98 436h122v164z" />
    <glyph glyph-name="uni2075" unicode="&#x2075;" horiz-adv-x="372" 
d="M29 393h70c3 -35 26 -68 81 -68c13 0 89 0 89 90c0 91 -65 94 -81 94c-21 0 -58 -2 -74 -33h-70l30 224h235v-62h-181l-13 -96c17 21 55 29 82 29c88 0 146 -51 146 -150c0 -96 -55 -154 -164 -154c-119 0 -147 80 -150 126z" />
    <glyph glyph-name="uni2076" unicode="&#x2076;" horiz-adv-x="372" 
d="M338 605h-70c-7 29 -33 46 -68 46c-38 0 -90 -18 -93 -121h1c27 32 80 33 90 33c99 0 144 -63 144 -143c0 -73 -43 -153 -154 -153c-144 0 -158 121 -158 209c0 98 14 237 171 237c96 0 127 -61 137 -108zM106 418c0 -88 72 -89 85 -89c67 0 77 61 77 85
c0 40 -22 87 -78 87c-53 0 -84 -35 -84 -83z" />
    <glyph glyph-name="uni2077" unicode="&#x2077;" horiz-adv-x="372" 
d="M26 638v62h320v-52c-51 -53 -90 -121 -113 -177c-21 -52 -39 -135 -42 -191h-74c9 88 32 151 43 178c15 39 47 111 112 180h-246z" />
    <glyph glyph-name="uni2078" unicode="&#x2078;" horiz-adv-x="372" 
d="M109 505c-39 17 -55 54 -55 93c0 26 8 115 132 115s132 -89 132 -115c0 -39 -16 -76 -55 -93c43 -19 69 -51 69 -104s-28 -134 -146 -134s-146 81 -146 134s26 85 69 104zM186 534c59 0 62 40 62 60c0 57 -50 57 -62 57s-62 0 -62 -57c0 -20 3 -60 62 -60zM186 329
c45 0 72 26 72 73c0 31 -15 70 -72 70s-72 -39 -72 -70c0 -47 27 -73 72 -73z" />
    <glyph glyph-name="uni2079" unicode="&#x2079;" horiz-adv-x="372" 
d="M34 375h70c7 -29 33 -46 68 -46c40 0 88 18 93 121h-1c-29 -32 -79 -33 -90 -33c-99 0 -144 63 -144 143c0 73 43 153 154 153c144 0 158 -121 158 -209c0 -99 -14 -237 -171 -237c-96 0 -127 61 -137 108zM266 562c0 37 -13 89 -81 89c-61 0 -81 -48 -81 -85
c0 -52 31 -87 78 -87c53 0 84 35 84 83z" />
    <glyph glyph-name="uni207D" unicode="&#x207d;" horiz-adv-x="266" 
d="M162 700h62c-61 -88 -100 -165 -100 -265s39 -177 100 -265h-62c-64 80 -112 159 -112 265s48 185 112 265z" />
    <glyph glyph-name="uni207E" unicode="&#x207e;" horiz-adv-x="266" 
d="M104 170h-62c61 88 100 165 100 265s-39 177 -100 265h62c64 -80 112 -159 112 -265s-48 -185 -112 -265z" />
    <glyph glyph-name="uni207F" unicode="&#x207f;" horiz-adv-x="360" 
d="M43 586h70v-42c23 39 67 54 103 54c96 0 101 -80 101 -119v-199h-70v182c0 35 -3 80 -54 80c-75 0 -80 -69 -80 -103v-159h-70v306z" />
    <glyph glyph-name="uni2080" unicode="&#x2080;" horiz-adv-x="372" 
d="M186 -13c-61 0 -158 23 -158 223s97 223 158 223c59 0 158 -23 158 -223s-99 -223 -158 -223zM186 49c40 0 84 25 84 161s-44 161 -84 161s-84 -25 -84 -161s44 -161 84 -161z" />
    <glyph glyph-name="uni2081" unicode="&#x2081;" horiz-adv-x="372" 
d="M82 309v42h12c64 0 94 33 101 69h57v-420h-74v309h-96z" />
    <glyph glyph-name="uni2082" unicode="&#x2082;" horiz-adv-x="372" 
d="M335 62v-62h-300c3 109 67 142 145 191c35 24 83 52 83 107c0 26 -13 73 -77 73c-78 0 -81 -61 -81 -80v-12h-70v13c0 61 33 141 152 141c103 0 150 -64 150 -131c0 -88 -66 -119 -133 -162c-37 -23 -67 -39 -86 -78h217z" />
    <glyph glyph-name="uni2083" unicode="&#x2083;" horiz-adv-x="372" 
d="M34 135h70c0 -28 12 -86 80 -86c59 0 80 33 80 72c0 64 -62 65 -74 65h-31v64h27c53 0 70 30 70 65c0 41 -35 56 -71 56c-40 0 -67 -19 -70 -86h-70c0 72 30 148 142 148c72 0 139 -33 139 -116c0 -59 -41 -83 -72 -93v-4c36 -5 84 -27 84 -103c0 -94 -75 -130 -155 -130
c-118 0 -149 91 -149 148z" />
    <glyph glyph-name="uni2084" unicode="&#x2084;" horiz-adv-x="372" 
d="M220 94h-202v62l202 264h74v-264h60v-62h-60v-94h-74v94zM98 156h122v164z" />
    <glyph glyph-name="uni2085" unicode="&#x2085;" horiz-adv-x="372" 
d="M29 113h70c3 -35 26 -68 81 -68c13 0 89 0 89 90c0 91 -65 94 -81 94c-21 0 -58 -2 -74 -33h-70l30 224h235v-62h-181l-13 -96c17 21 55 29 82 29c88 0 146 -51 146 -150c0 -96 -55 -154 -164 -154c-119 0 -147 80 -150 126z" />
    <glyph glyph-name="uni2086" unicode="&#x2086;" horiz-adv-x="372" 
d="M338 325h-70c-7 29 -33 46 -68 46c-38 0 -90 -18 -93 -121h1c27 32 80 33 90 33c99 0 144 -63 144 -143c0 -73 -43 -153 -154 -153c-144 0 -158 121 -158 209c0 98 14 237 171 237c96 0 127 -61 137 -108zM106 138c0 -88 72 -89 85 -89c67 0 77 61 77 85
c0 40 -22 87 -78 87c-53 0 -84 -35 -84 -83z" />
    <glyph glyph-name="uni2087" unicode="&#x2087;" horiz-adv-x="372" 
d="M26 358v62h320v-52c-51 -53 -90 -121 -113 -177c-21 -52 -39 -135 -42 -191h-74c9 88 32 151 43 178c15 39 47 111 112 180h-246z" />
    <glyph glyph-name="uni2088" unicode="&#x2088;" horiz-adv-x="372" 
d="M109 225c-39 17 -55 54 -55 93c0 26 8 115 132 115s132 -89 132 -115c0 -39 -16 -76 -55 -93c43 -19 69 -51 69 -104s-28 -134 -146 -134s-146 81 -146 134s26 85 69 104zM186 254c59 0 62 40 62 60c0 57 -50 57 -62 57s-62 0 -62 -57c0 -20 3 -60 62 -60zM186 49
c45 0 72 26 72 73c0 31 -15 70 -72 70s-72 -39 -72 -70c0 -47 27 -73 72 -73z" />
    <glyph glyph-name="uni2089" unicode="&#x2089;" horiz-adv-x="372" 
d="M34 95h70c7 -29 33 -46 68 -46c40 0 88 18 93 121h-1c-29 -32 -79 -33 -90 -33c-99 0 -144 63 -144 143c0 73 43 153 154 153c144 0 158 -121 158 -209c0 -99 -14 -237 -171 -237c-96 0 -127 61 -137 108zM266 282c0 37 -13 89 -81 89c-61 0 -81 -48 -81 -85
c0 -52 31 -87 78 -87c53 0 84 35 84 83z" />
    <glyph glyph-name="uni208D" unicode="&#x208d;" horiz-adv-x="266" 
d="M162 420h62c-61 -88 -100 -165 -100 -265s39 -177 100 -265h-62c-64 80 -112 159 -112 265s48 185 112 265z" />
    <glyph glyph-name="uni208E" unicode="&#x208e;" horiz-adv-x="266" 
d="M104 -110h-62c61 88 100 165 100 265s-39 177 -100 265h62c64 -80 112 -159 112 -265s-48 -185 -112 -265z" />
    <glyph glyph-name="colonmonetary" unicode="&#x20a1;" horiz-adv-x="734" 
d="M282 -100v91c-151 34 -237 173 -237 347c0 161 65 330 237 370v77h66v-68c13 3 27 4 42 4c17 0 32 -1 45 -4v68h66v-79c144 -32 177 -160 185 -232h-120c0 41 -24 101 -65 117v-478c38 19 70 74 75 126h120c-16 -103 -76 -220 -195 -246v-93h-66v82c-14 -2 -28 -3 -43 -3
s-29 1 -44 3v-82h-66zM348 611v-519c15 -4 29 -7 44 -7s28 1 43 5v520c-17 3 -32 5 -45 5c-15 0 -29 -1 -42 -4zM282 118v474c-96 -56 -100 -196 -100 -249c0 -75 28 -177 100 -225z" />
    <glyph glyph-name="Euro" unicode="&#x20ac;" 
d="M560 152v-116c-19 -11 -45 -27 -70 -36c-36 -13 -84 -20 -119 -20c-84 0 -149 27 -198 75c-43 43 -76 106 -83 183h-80l32 74h43c-3 23 -3 48 0 74h-75l32 74h52c4 37 13 70 28 100c16 35 38 66 67 93c65 60 140 67 199 67c21 0 42 -1 62 -5c25 -4 48 -12 69 -24
c14 -9 28 -19 42 -32l19 -21l-55 -97c-7 10 -13 18 -19 24c-9 10 -20 19 -35 28c-25 15 -51 21 -83 21c-35 0 -71 -7 -106 -40c-29 -29 -47 -73 -52 -114h258l-32 -74h-234c-3 -26 -3 -51 0 -74h207l-32 -74h-169c5 -43 23 -83 52 -111c15 -15 32 -25 51 -32
c20 -7 41 -9 62 -9c31 0 59 6 94 21c15 7 42 20 73 45z" />
    <glyph glyph-name="afii61352" unicode="&#x2116;" horiz-adv-x="1169" 
d="M213 497v-497h-128v700h136l336 -497v497h128v-700h-136zM759 470c0 117 74 191 176 191s176 -74 176 -191c0 -118 -74 -191 -176 -191s-176 73 -176 191zM859 470c0 -41 11 -110 76 -110s76 69 76 110s-11 110 -76 110s-76 -69 -76 -110zM772 112v106h326v-106h-326z
" />
    <glyph glyph-name="uni2117" unicode="&#x2117;" horiz-adv-x="800" 
d="M50 350c0 193 157 350 350 350c195 0 350 -157 350 -350s-155 -350 -350 -350c-193 0 -350 157 -350 350zM130 350c0 -155 121 -280 270 -280s269 125 269 280s-120 280 -269 280s-270 -125 -270 -280zM282 178v350h141c35 0 74 -3 103 -30c23 -21 29 -48 29 -73
c0 -39 -14 -63 -29 -78c-31 -31 -76 -33 -107 -33h-57v-136h-80zM362 466v-90h52c15 0 31 1 44 12s13 25 13 36c0 9 0 23 -13 32c-11 8 -31 10 -44 10h-52z" />
    <glyph glyph-name="trademark" unicode="&#x2122;" horiz-adv-x="973" 
d="M163 630h-113v70h324v-70h-113v-280h-98v280zM652 350l-103 261h-2l2 -45v-216h-98v350h132l93 -231l10 -35h2l10 35l93 231h132v-350h-98v216l2 45h-2l-103 -261h-70z" />
    <glyph glyph-name="onethird" unicode="&#x2153;" horiz-adv-x="844" 
d="M82 589v42h12c64 0 94 33 101 69h57v-420h-74v309h-96zM152 0l428 700h72l-428 -700h-72zM506 135h70c0 -28 12 -86 80 -86c59 0 80 33 80 72c0 64 -62 65 -74 65h-31v64h27c53 0 70 30 70 65c0 41 -35 56 -71 56c-59 0 -66 -47 -69 -72c0 -5 -1 -9 -1 -14h-70
c0 72 30 148 142 148c72 0 139 -33 139 -116c0 -59 -41 -83 -72 -93v-4c36 -5 84 -27 84 -103c0 -94 -75 -130 -155 -130c-118 0 -149 91 -149 148z" />
    <glyph glyph-name="twothirds" unicode="&#x2154;" horiz-adv-x="844" 
d="M335 342v-62h-300c3 109 67 142 145 191c35 24 83 52 83 107c0 26 -13 73 -77 73c-78 0 -81 -61 -81 -80v-12h-70v13c0 61 33 141 152 141c103 0 150 -64 150 -131c0 -88 -66 -119 -133 -162c-37 -23 -67 -39 -86 -78h217zM192 0l428 700h72l-428 -700h-72zM506 135h70
c0 -28 12 -86 80 -86c59 0 80 33 80 72c0 64 -62 65 -74 65h-31v64h27c53 0 70 30 70 65c0 41 -35 56 -71 56c-40 0 -67 -19 -70 -86h-70c0 72 30 148 142 148c72 0 139 -33 139 -116c0 -59 -41 -83 -72 -93v-4c36 -5 84 -27 84 -103c0 -94 -75 -130 -155 -130
c-118 0 -149 91 -149 148z" />
    <glyph glyph-name="oneeighth" unicode="&#x215b;" horiz-adv-x="844" 
d="M82 589v42h12c64 0 94 33 101 69h57v-420h-74v309h-96zM152 0l428 700h72l-428 -700h-72zM581 225c-39 17 -55 54 -55 93c0 26 8 115 132 115s132 -89 132 -115c0 -39 -16 -76 -55 -93c43 -19 69 -51 69 -104s-28 -134 -146 -134s-146 81 -146 134s26 85 69 104zM658 254
c59 0 62 40 62 60c0 57 -50 57 -62 57s-62 0 -62 -57c0 -20 3 -60 62 -60zM658 49c45 0 72 26 72 73c0 31 -15 70 -72 70s-72 -39 -72 -70c0 -47 27 -73 72 -73z" />
    <glyph glyph-name="threeeighths" unicode="&#x215c;" horiz-adv-x="844" 
d="M34 415h70c0 -28 12 -86 80 -86c59 0 80 33 80 72c0 64 -62 65 -74 65h-31v64h27c53 0 70 30 70 65c0 41 -35 56 -71 56c-40 0 -67 -19 -70 -86h-70c0 72 30 148 142 148c72 0 139 -33 139 -116c0 -59 -41 -83 -72 -93v-4c36 -5 84 -27 84 -103c0 -94 -75 -130 -155 -130
c-118 0 -149 91 -149 148zM182 0l428 700h72l-428 -700h-72zM581 225c-39 17 -55 54 -55 93c0 26 8 115 132 115s132 -89 132 -115c0 -39 -16 -76 -55 -93c43 -19 69 -51 69 -104s-28 -134 -146 -134s-146 81 -146 134s26 85 69 104zM658 254c59 0 62 40 62 60
c0 57 -50 57 -62 57s-62 0 -62 -57c0 -20 3 -60 62 -60zM658 49c45 0 72 26 72 73c0 31 -15 70 -72 70s-72 -39 -72 -70c0 -47 27 -73 72 -73z" />
    <glyph glyph-name="fiveeighths" unicode="&#x215d;" horiz-adv-x="844" 
d="M29 393h70c3 -35 26 -68 81 -68c13 0 89 0 89 90c0 91 -65 94 -81 94c-21 0 -58 -2 -74 -33h-70l30 224h235v-62h-181l-13 -96c17 21 55 29 82 29c88 0 146 -51 146 -150c0 -96 -55 -154 -164 -154c-119 0 -147 80 -150 126zM182 0l428 700h72l-428 -700h-72zM581 225
c-39 17 -55 54 -55 93c0 26 8 115 132 115s132 -89 132 -115c0 -39 -16 -76 -55 -93c43 -19 69 -51 69 -104s-28 -134 -146 -134s-146 81 -146 134s26 85 69 104zM658 254c59 0 62 40 62 60c0 57 -50 57 -62 57s-62 0 -62 -57c0 -20 3 -60 62 -60zM658 49c45 0 72 26 72 73
c0 31 -15 70 -72 70s-72 -39 -72 -70c0 -47 27 -73 72 -73z" />
    <glyph glyph-name="seveneighths" unicode="&#x215e;" horiz-adv-x="844" 
d="M26 638v62h320v-52c-51 -53 -90 -121 -113 -177c-21 -52 -39 -135 -42 -191h-74c9 88 32 151 43 178c15 39 47 111 112 180h-246zM142 0l428 700h72l-428 -700h-72zM581 225c-39 17 -55 54 -55 93c0 26 8 115 132 115s132 -89 132 -115c0 -39 -16 -76 -55 -93
c43 -19 69 -51 69 -104s-28 -134 -146 -134s-146 81 -146 134s26 85 69 104zM658 254c59 0 62 40 62 60c0 57 -50 57 -62 57s-62 0 -62 -57c0 -20 3 -60 62 -60zM658 49c45 0 72 26 72 73c0 31 -15 70 -72 70s-72 -39 -72 -70c0 -47 27 -73 72 -73z" />
    <glyph glyph-name="partialdiff" unicode="&#x2202;" 
d="M230 671l23 62c291 -37 333 -167 333 -284c0 -112 -30 -469 -338 -469c-156 0 -214 88 -214 199c0 146 91 329 305 329c57 0 130 -16 149 -80h2c3 155 -90 213 -260 243zM254 62c101 0 178 103 178 243c0 104 -50 121 -90 121c-118 0 -178 -139 -178 -247
c0 -40 7 -117 90 -117z" />
    <glyph glyph-name="product" unicode="&#x220f;" horiz-adv-x="722" 
d="M206 594v-594h-128v594h-33v106h632v-106h-32v-594h-128v594h-311z" />
    <glyph glyph-name="summation" unicode="&#x2211;" horiz-adv-x="586" 
d="M548 700v-106h-330l197 -229l-214 -259h368v-106h-536v89l234 276l-215 243v92h496z" />
    <glyph glyph-name="minus" unicode="&#x2212;" 
d="M50 398h500v-86h-500v86z" />
    <glyph glyph-name="uni2215" unicode="&#x2215;" horiz-adv-x="100" 
d="M-200 0l428 700h72l-428 -700h-72z" />
    <glyph glyph-name="uni2219" unicode="&#x2219;" horiz-adv-x="250" 
d="M59 200v135h132v-135h-132z" />
    <glyph glyph-name="radical" unicode="&#x221a;" horiz-adv-x="680" 
d="M252 500l100 -343l110 672h198v-86h-122l-144 -843h-84l-158 514h-132v86h232z" />
    <glyph glyph-name="infinity" unicode="&#x221e;" horiz-adv-x="960" 
d="M457 287c-55 -67 -139 -115 -227 -115c-123 0 -180 94 -180 178c0 80 57 179 217 179c76 0 151 -20 227 -117c86 113 200 116 232 116c133 0 184 -84 184 -168c0 -101 -70 -188 -207 -188c-96 0 -186 39 -246 115zM426 336c-56 67 -103 131 -183 131
c-64 0 -113 -44 -113 -117c0 -64 44 -111 116 -111c32 0 100 9 180 97zM530 371c47 -68 108 -137 188 -137c64 0 112 49 112 126c0 30 -14 101 -117 101c-67 0 -117 -18 -183 -90z" />
    <glyph glyph-name="integral" unicode="&#x222b;" horiz-adv-x="342" 
d="M154 130l-85 236c-35 93 -35 151 -35 182c0 29 3 173 160 173c80 0 107 -48 107 -77c0 -27 -16 -54 -56 -54c-11 0 -37 2 -47 33c-4 13 -8 32 -33 32c-8 0 -45 -5 -45 -56c0 -39 21 -88 67 -214l85 -236c16 -45 36 -114 36 -182c0 -28 -4 -173 -159 -173
c-82 0 -108 48 -108 77c0 20 11 54 56 54c12 0 37 -2 48 -33c4 -13 6 -32 33 -32c8 0 45 5 45 56c0 46 -29 106 -69 214z" />
    <glyph glyph-name="approxequal" unicode="&#x2248;" horiz-adv-x="614" 
d="M96 383l-46 19c43 125 103 142 140 142c31 0 65 -8 90 -23l103 -55c17 -9 33 -13 50 -13c24 0 61 15 85 84l46 -19c-26 -76 -68 -142 -140 -142c-28 0 -65 8 -90 23l-103 55c-15 9 -33 13 -52 13c-43 0 -70 -41 -83 -84zM96 173l-46 19c43 125 103 142 140 142
c31 0 65 -8 90 -23l103 -55c17 -9 33 -13 50 -13c24 0 61 15 85 84l46 -19c-26 -76 -68 -142 -140 -142c-28 0 -65 8 -90 23l-103 55c-15 9 -33 13 -52 13c-43 0 -70 -41 -83 -84z" />
    <glyph glyph-name="notequal" unicode="&#x2260;" 
d="M50 402v86h284l66 114l70 -42l-42 -72h122v-86h-172l-63 -114h235v-86h-285l-66 -114l-70 42l42 72h-121v86h171l63 114h-234z" />
    <glyph glyph-name="lessequal" unicode="&#x2264;" horiz-adv-x="678" 
d="M161 411l433 -237l-40 -72l-494 278v62l494 278l40 -72zM60 220l40 72l494 -278l-40 -72z" />
    <glyph glyph-name="greaterequal" unicode="&#x2265;" horiz-adv-x="678" 
d="M517 411l-433 237l40 72l494 -278v-62l-494 -278l-40 72zM618 220l-494 -278l-40 72l494 278z" />
    <glyph glyph-name="dotmath" unicode="&#x22c5;" horiz-adv-x="250" 
d="M59 200v135h132v-135h-132z" />
    <glyph glyph-name="lozenge" unicode="&#x25ca;" horiz-adv-x="440" 
d="M306 350l-86 189l-86 -189l86 -189zM390 350l-170 -375l-170 375l170 375z" />
    <glyph glyph-name="openbullet" unicode="&#x25e6;" horiz-adv-x="300" 
d="M50 600c0 55 43 100 100 100c55 0 100 -45 100 -100c0 -57 -45 -100 -100 -100c-57 0 -100 43 -100 100zM104 600c0 -27 19 -46 46 -46s46 19 46 46s-19 46 -46 46s-46 -19 -46 -46z" />
    <glyph glyph-name="uniF401" unicode="&#xf401;" horiz-adv-x="2" 
d="M-362 900h136l-118 -140h-96z" />
    <glyph glyph-name="uniF406" unicode="&#xf406;" horiz-adv-x="520" 
d="M50 913h103c5 -53 51 -81 107 -81s102 28 107 81h103c-16 -85 -85 -153 -210 -153s-194 68 -210 153z" />
    <glyph glyph-name="uniF407" unicode="&#xf407;" horiz-adv-x="320" 
d="M50 -232l19 61c25 -8 45 -9 58 -9c48 0 53 23 53 34c0 28 -33 28 -52 28h-43l18 60h46c27 0 121 0 121 -90c0 -69 -63 -92 -141 -92c-19 0 -44 1 -79 8z" />
    <glyph glyph-name="uniF408" unicode="&#xf408;" horiz-adv-x="540" 
d="M270 854l-100 -94h-120l134 140h172l134 -140h-120z" />
    <glyph glyph-name="uniF409" unicode="&#xf409;" horiz-adv-x="232" 
d="M50 -60h132v-99c0 -103 -104 -111 -132 -111v64c33 -1 67 10 67 37v9h-67v100z" />
    <glyph glyph-name="uniF40A" unicode="&#xf40a;" horiz-adv-x="232" 
d="M50 700h132v-139c0 -114 -71 -149 -132 -154v69c39 3 67 33 67 78v11h-67v135z" />
    <glyph glyph-name="uniF40B" unicode="&#xf40b;" horiz-adv-x="228" 
d="M50 772v88h128v-88h-128z" />
    <glyph glyph-name="uniF40C" unicode="&#xf40c;" horiz-adv-x="300" 
d="M50 820c0 55 43 100 100 100c55 0 100 -45 100 -100c0 -57 -45 -100 -100 -100c-57 0 -100 43 -100 100zM106 820c0 -24 20 -44 44 -44s44 20 44 44s-20 44 -44 44s-44 -20 -44 -44z" />
    <glyph glyph-name="uniF40D" unicode="&#xf40d;" horiz-adv-x="522" 
d="M392 880h80c-11 -51 -40 -116 -129 -116c-31 0 -50 7 -85 22c-27 11 -50 22 -77 22s-48 -13 -51 -36h-80c8 55 45 116 129 116c32 0 50 -5 85 -20c35 -13 46 -24 77 -24c32 0 48 17 51 36z" />
    <glyph glyph-name="uniF40E" unicode="&#xf40e;" horiz-adv-x="370" 
d="M123 0h100c-53 -17 -83 -63 -83 -120c0 -35 19 -60 51 -60c35 0 50 29 49 57h80c-3 -28 -22 -117 -143 -117c-92 0 -127 61 -127 116c0 45 21 97 73 124z" />
    <glyph glyph-name="uniF430" unicode="&#xf430;" horiz-adv-x="320" 
d="M100 508h120v-179l-26 -154h-68l-26 154v179zM100 0v120h120v-120h-120z" />
    <glyph glyph-name="uniF431" unicode="&#xf431;" horiz-adv-x="500" 
d="M167 0v120h120v-120h-120zM155 367h-110c0 76 42 161 206 161c77 0 204 -22 204 -135c0 -71 -53 -104 -89 -126c-36 -21 -89 -46 -89 -79v-13h-100v15c0 37 4 68 73 110c39 24 85 47 85 88c0 26 -18 58 -86 58c-83 0 -97 -49 -94 -79z" />
    <glyph glyph-name="uniF432" unicode="&#xf432;" horiz-adv-x="320" 
d="M220 0h-120v179l26 154h68l26 -154v-179zM220 508v-120h-120v120h120z" />
    <glyph glyph-name="uniF433" unicode="&#xf433;" horiz-adv-x="500" 
d="M333 508v-120h-120v120h120zM345 141h110c0 -76 -42 -161 -206 -161c-77 0 -204 22 -204 135c0 70 52 105 89 126c36 22 89 45 89 79v13h100v-15c0 -38 -5 -67 -73 -110c-39 -24 -85 -47 -85 -88c0 -26 18 -58 86 -58c83 0 97 49 94 79z" />
    <glyph glyph-name="uniF47E" unicode="&#xf47e;" horiz-adv-x="722" 
d="M72 700h128v-411c0 -140 41 -204 161 -204s161 64 161 204v411h128v-431c0 -113 -20 -290 -289 -290s-289 177 -289 290v431zM297 772v88h128v-88h-128z" />
    <glyph glyph-name="uniF47F" unicode="&#xf47f;" horiz-adv-x="606" 
d="M534 0h-120v67h-2c-33 -60 -104 -87 -169 -87c-168 0 -171 149 -171 188v340h120v-302c0 -58 3 -144 95 -144c126 0 127 138 127 162v284h120v-508zM243 594v106h120v-106h-120z" />
    <glyph glyph-name="uniF485" unicode="&#xf485;" horiz-adv-x="1350" 
d="M720 225h127c3 -53 35 -140 182 -140c47 0 148 6 148 105c0 84 -82 100 -126 108c-28 5 -55 10 -82 17c-114 26 -217 60 -217 202c0 198 218 204 275 204c184 0 263 -98 271 -206h-127c-13 98 -109 100 -147 100c-19 0 -135 0 -135 -93c0 -72 79 -86 156 -99
c162 -29 269 -65 269 -220c0 -198 -175 -224 -293 -224c-239 0 -298 135 -301 246zM45 225h127c3 -53 35 -140 182 -140c47 0 148 6 148 105c0 84 -82 100 -126 108c-28 5 -55 10 -82 17c-114 26 -217 60 -217 202c0 198 218 204 275 204c184 0 263 -98 271 -206h-127
c-13 98 -109 100 -147 100c-19 0 -135 0 -135 -93c0 -72 79 -86 156 -99c162 -29 269 -65 269 -220c0 -198 -175 -224 -293 -224c-239 0 -298 135 -301 246z" />
    <glyph glyph-name="uniF4C4" unicode="&#xf4c4;" horiz-adv-x="594" 
d="M233 594h-220v106h568v-106h-220v-594h-128v594zM188 -232l19 61c25 -8 45 -9 58 -9c48 0 53 23 53 34c0 28 -33 28 -52 28h-43l18 60h46c27 0 121 0 121 -90c0 -69 -63 -92 -141 -92c-19 0 -44 1 -79 8z" />
    <glyph glyph-name="uniF4C5" unicode="&#xf4c5;" horiz-adv-x="494" 
d="M187 426h-174v82h468v-82h-174v-426h-120v426zM134 -232l19 61c25 -8 45 -9 58 -9c48 0 53 23 53 34c0 28 -33 28 -52 28h-43l18 60h46c27 0 121 0 121 -90c0 -69 -63 -92 -141 -92c-19 0 -44 1 -79 8z" />
    <glyph glyph-name="uniF4C6" unicode="&#xf4c6;" horiz-adv-x="698" 
d="M58 700h128v-189c0 -67 4 -117 147 -117c56 0 116 7 127 7v299h128v-618c51 0 150 -22 150 -141c0 -170 -160 -171 -194 -171v82c33 0 88 12 88 79c0 65 -49 69 -73 69h-99v295c-39 -3 -98 -7 -143 -7c-149 0 -259 37 -259 194v218z" />
    <glyph glyph-name="uniF4C7" unicode="&#xf4c7;" horiz-adv-x="570" 
d="M44 508h120v-140c0 -49 -1 -86 106 -86c15 0 28 1 80 2v224h120v-426c52 -3 130 -32 130 -142c0 -140 -114 -170 -178 -170v82c31 0 88 16 88 79c0 39 -25 69 -66 69h-94v202c-9 0 -29 -1 -50 -1s-45 -1 -64 -1c-178 0 -192 65 -192 145v163z" />
    <glyph glyph-name="uniF4C8" unicode="&#xf4c8;" horiz-adv-x="733" 
d="M257 -232l19 61c25 -8 45 -9 58 -9c48 0 53 23 53 34c0 28 -33 28 -52 28h-43l18 60h46c27 0 121 0 121 -90c0 -69 -63 -92 -141 -92c-19 0 -44 1 -79 8zM568 239h127c-11 -107 -66 -260 -303 -260c-54 0 -347 5 -347 359c0 288 166 383 340 383c240 0 295 -147 300 -247
h-127c-8 58 -42 141 -173 141c-156 0 -203 -127 -203 -272c0 -165 90 -258 216 -258c116 0 165 79 170 154z" />
    <glyph glyph-name="uniF4C9" unicode="&#xf4c9;" horiz-adv-x="574" 
d="M424 186h114c-8 -74 -54 -206 -240 -206c-173 0 -255 112 -255 273c0 260 185 275 251 275c156 0 231 -91 242 -189h-114c-5 52 -42 107 -121 107c-99 0 -130 -89 -130 -193c0 -159 80 -191 137 -191c89 0 113 77 116 124zM175 -232l19 61c25 -8 45 -9 58 -9
c48 0 53 23 53 34c0 28 -33 28 -52 28h-43l18 60h46c27 0 121 0 121 -90c0 -69 -63 -92 -141 -92c-19 0 -44 1 -79 8z" />
    <glyph glyph-name="uniF4CC" unicode="&#xf4cc;" horiz-adv-x="623" 
d="M345 322l148 378h134l-235 -564c-59 -144 -137 -146 -198 -146c-33 0 -56 0 -91 11v111c23 -7 46 -12 73 -12c45 0 84 15 100 84l-267 516h157zM308 900h136l-118 -140h-96z" />
    <glyph glyph-name="uniF4CD" unicode="&#xf4cd;" horiz-adv-x="541" 
d="M266 700h130l-110 -132h-90zM105 -183v82c12 -3 27 -6 46 -6c47 0 63 24 80 84l7 24l-231 507h144l153 -378l117 378h120l-194 -552c-16 -46 -42 -145 -167 -145c-23 0 -51 2 -75 6z" />
    <glyph glyph-name="dollar.fitted" unicode="&#xf5f5;" horiz-adv-x="578" 
d="M24 205h110c1 -31 10 -66 30 -93c15 -20 42 -43 85 -46v250c-51 8 -122 32 -160 67c-25 23 -51 65 -51 134c0 73 29 123 74 158c36 27 86 43 137 44v58h82v-58c56 -1 115 -21 154 -57c33 -31 59 -84 59 -147h-110c3 35 -11 64 -30 84c-5 5 -30 30 -73 34v-218
c68 -11 113 -26 148 -51c56 -40 73 -90 73 -161c0 -44 -6 -118 -73 -171c-39 -31 -95 -49 -148 -52v-73h-82v73c-51 -1 -107 13 -146 41c-70 52 -79 142 -79 184zM249 432v201c-23 -2 -41 -10 -55 -24c-16 -16 -28 -43 -28 -82c0 -72 57 -92 83 -95zM331 299v-233
c24 1 44 9 60 24c24 23 33 63 33 98c0 27 -5 57 -32 82c-8 8 -28 25 -61 29z" />
    <glyph glyph-name="Euro.fitted" unicode="&#xf5f6;" horiz-adv-x="627" 
d="M571 152v-116c-19 -11 -45 -27 -70 -36c-36 -13 -84 -20 -119 -20c-84 0 -149 27 -198 75c-43 43 -76 106 -83 183h-80l32 74h43c-3 23 -3 48 0 74h-75l32 74h52c4 37 13 70 28 100c16 35 38 66 67 93c65 60 140 67 199 67c21 0 42 -1 62 -5c25 -4 48 -12 69 -24
c14 -9 28 -19 42 -32l19 -21l-55 -97c-7 10 -13 18 -19 24c-9 10 -20 19 -35 28c-25 15 -51 21 -83 21c-35 0 -71 -7 -106 -40c-29 -29 -47 -73 -52 -114h258l-32 -74h-234c-3 -26 -3 -51 0 -74h207l-32 -74h-169c5 -43 23 -83 52 -111c15 -15 32 -25 51 -32
c20 -7 41 -9 62 -9c31 0 59 6 94 21c15 7 42 20 73 45z" />
    <glyph glyph-name="cent.fitted" unicode="&#xf5f7;" horiz-adv-x="538" 
d="M406 186h114c-11 -96 -73 -193 -201 -204v-74h-67v73c-107 3 -227 76 -227 272c0 233 150 271 227 274v67h67v-68c87 -11 186 -66 199 -187h-114c-5 42 -32 92 -85 103v-377c69 16 87 85 87 121zM252 67v375c-75 -16 -99 -98 -99 -189c0 -147 71 -178 99 -186z" />
    <glyph glyph-name="sterling.fitted" unicode="&#xf5f8;" horiz-adv-x="609" 
d="M516 140l61 -84c-56 -60 -104 -77 -149 -77c-55 0 -93 19 -125 34c-27 11 -52 20 -84 20c-37 0 -73 -11 -113 -38l-59 87c100 65 104 123 104 160c0 33 -9 46 -12 51h-109v82h75c-28 40 -37 90 -37 125c0 117 72 221 253 221c151 0 238 -77 238 -229v-18h-112v16
c0 112 -53 149 -125 149c-91 0 -126 -74 -126 -133c0 -45 19 -78 42 -131h130v-82h-98c3 -11 3 -26 3 -41c0 -52 -32 -98 -67 -129l2 -4c16 8 34 11 65 11c32 0 54 -4 86 -19c19 -9 43 -24 72 -24c33 0 60 18 85 53z" />
    <glyph glyph-name="yen.fitted" unicode="&#xf5f9;" horiz-adv-x="636" 
d="M318 393l149 307h151l-236 -421v-4h100v-54h-100v-52h100v-54h-100v-115h-128v115h-100v54h100v52h-100v54h100v4l-236 421h151z" />
    <glyph glyph-name="florin.fitted" unicode="&#xf5fa;" horiz-adv-x="521" 
d="M474 508l-17 -82h-110l-93 -446c-16 -77 -29 -169 -173 -169c-24 0 -56 3 -71 4l19 87h18c62 3 72 24 85 82l93 442h-93l18 82h92l11 54c13 64 40 138 182 138c29 0 55 -3 79 -7l-16 -78c-15 5 -34 7 -53 7c-37 0 -62 -25 -70 -61l-11 -53h110z" />
    <glyph glyph-name="numbersign.fitted" unicode="&#xf5ff;" horiz-adv-x="669" 
d="M434 10h-92l24 153h-120l-24 -153h-92l24 153h-134l15 100h134l28 179h-134l15 100h134l24 152h92l-24 -152h120l24 152h92l-24 -152h134l-15 -100h-134l-28 -179h134l-15 -100h-134zM381 263l28 179h-120l-28 -179h120z" />
    <glyph glyph-name="uniF639" unicode="&#xf639;" horiz-adv-x="579" 
d="M289 -21c-220 0 -255 226 -255 371s35 371 255 371s255 -226 255 -371s-35 -371 -255 -371zM289 85c40 0 125 13 125 265s-85 265 -125 265s-125 -13 -125 -265s85 -265 125 -265z" />
    <glyph glyph-name="uniF63A" unicode="&#xf63a;" horiz-adv-x="586" 
d="M543 106v-106h-505c-3 187 123 251 235 320c75 45 147 90 147 182c0 29 -9 113 -126 113c-127 0 -133 -95 -133 -131v-17h-123v18c0 233 224 236 259 236c143 0 253 -68 253 -219c0 -152 -105 -207 -212 -271c-112 -69 -138 -88 -154 -125h359z" />
    <glyph glyph-name="uniF63B" unicode="&#xf63b;" horiz-adv-x="578" 
d="M29 226h123v-13c0 -4 0 -8 1 -13c5 -51 33 -122 129 -122c15 0 28 1 43 5c80 21 88 94 88 123c0 100 -79 105 -122 105h-51v106h27c43 0 132 2 132 101c0 40 -16 97 -104 97s-119 -48 -120 -136h-123c-3 101 38 242 241 242c173 0 236 -88 236 -195
c0 -76 -47 -137 -120 -152v-2c69 -8 134 -62 134 -177c0 -138 -102 -216 -258 -216c-241 0 -256 175 -256 247z" />
    <glyph glyph-name="uniF63C" unicode="&#xf63c;" horiz-adv-x="588" 
d="M338 153h-329v106l330 441h127v-441h97v-106h-97v-153h-128v153zM138 259h200v278z" />
    <glyph glyph-name="uniF63D" unicode="&#xf63d;" horiz-adv-x="582" 
d="M33 189h123c5 -52 40 -111 127 -111c57 0 136 25 136 156c0 139 -99 144 -131 144c-34 0 -91 -10 -118 -58h-121l48 380h409v-106h-315l-23 -162c12 12 55 52 154 52c134 0 227 -86 227 -249c0 -245 -219 -256 -274 -256c-186 0 -231 122 -242 210z" />
    <glyph glyph-name="uniF63E" unicode="&#xf63e;" horiz-adv-x="587" 
d="M548 541h-123c-16 68 -73 74 -111 74c-50 0 -145 -19 -153 -203h2c22 30 62 63 158 63c143 0 232 -86 232 -242c0 -160 -100 -254 -259 -254c-235 0 -259 201 -259 332c0 360 159 410 279 410c151 0 221 -89 234 -180zM165 227c0 -61 21 -142 129 -142
c92 0 129 64 129 142s-37 142 -129 142c-108 0 -129 -83 -129 -142z" />
    <glyph glyph-name="uniF63F" unicode="&#xf63f;" horiz-adv-x="580" 
d="M25 594v106h540v-88c-93 -96 -148 -184 -196 -299c-48 -109 -63 -186 -74 -313h-134c12 95 43 203 82 295c36 81 94 186 205 299h-423z" />
    <glyph glyph-name="uniF640" unicode="&#xf640;" horiz-adv-x="558" 
d="M148 375c-57 25 -93 78 -93 154c0 85 39 192 224 192s224 -107 224 -192c0 -76 -36 -129 -93 -154c43 -13 114 -57 114 -179c0 -188 -154 -217 -245 -217s-245 29 -245 217c0 121 70 166 114 179zM279 424c83 0 104 56 104 97c0 27 -11 94 -104 94s-104 -67 -104 -94
c0 -41 21 -97 104 -97zM279 85c84 0 115 61 115 117c0 47 -23 116 -115 116s-115 -69 -115 -116c0 -56 31 -117 115 -117z" />
    <glyph glyph-name="uniF641" unicode="&#xf641;" horiz-adv-x="587" 
d="M39 159h123c16 -68 73 -74 111 -74c50 0 145 19 153 203h-2c-22 -30 -62 -63 -158 -63c-143 0 -232 86 -232 242c0 160 100 254 259 254c235 0 259 -201 259 -332c0 -360 -156 -410 -279 -410c-151 0 -221 89 -234 180zM422 473c0 59 -21 142 -129 142
c-92 0 -129 -64 -129 -142s37 -142 129 -142c108 0 129 81 129 142z" />
    <glyph glyph-name="uniF643" unicode="&#xf643;" horiz-adv-x="578" 
d="M289 -20c-244 0 -255 210 -255 274s11 274 255 274s255 -210 255 -274s-11 -274 -255 -274zM289 62c36 0 135 8 135 192s-99 192 -135 192s-135 -8 -135 -192s99 -192 135 -192z" />
    <glyph glyph-name="uniF644" unicode="&#xf644;" horiz-adv-x="337" 
d="M0 338v62h23c85 0 161 39 180 108h87v-508h-120v338h-170z" />
    <glyph glyph-name="uniF645" unicode="&#xf645;" horiz-adv-x="584" 
d="M541 82v-82h-505c0 134 116 181 242 227c61 21 148 49 148 124c0 21 -8 95 -134 95c-95 0 -143 -54 -143 -117v-16h-110v15c0 193 201 200 256 200c156 0 251 -60 251 -176c0 -109 -85 -147 -160 -179c-116 -48 -156 -55 -181 -91h336z" />
    <glyph glyph-name="uniF646" unicode="&#xf646;" horiz-adv-x="576" 
d="M29 24h114v-12c0 -4 0 -8 1 -12c5 -51 36 -123 141 -123c87 0 136 53 136 133c0 112 -84 122 -137 122h-46v82h27c59 0 148 8 148 116c0 77 -51 116 -119 116c-133 0 -131 -121 -131 -149h-110c-5 97 29 231 238 231c161 0 236 -75 236 -188c0 -106 -72 -147 -120 -158
v-2c72 -13 134 -69 134 -177c0 -153 -131 -208 -254 -208c-229 0 -254 165 -258 229z" />
    <glyph glyph-name="uniF647" unicode="&#xf647;" horiz-adv-x="584" 
d="M335 0h-327v106l320 402h127v-426h107v-82h-107v-185h-120v185zM114 82h221v284z" />
    <glyph glyph-name="uniF648" unicode="&#xf648;" horiz-adv-x="577" 
d="M32 -8h110c5 -43 34 -115 138 -115c76 0 148 41 148 160c0 88 -38 166 -141 166c-47 0 -111 -21 -127 -73h-110l47 378h409v-82h-323l-25 -191c35 35 103 50 151 50c133 0 239 -87 239 -244c0 -239 -209 -246 -267 -246c-84 0 -228 21 -249 197z" />
    <glyph glyph-name="uniF649" unicode="&#xf649;" horiz-adv-x="587" 
d="M548 541h-110c-21 87 -81 97 -124 97c-55 0 -153 -20 -161 -227h2c15 23 54 63 166 63c143 0 232 -86 232 -241c0 -160 -100 -253 -259 -253c-235 0 -259 201 -259 331c0 401 203 409 279 409c151 0 221 -89 234 -179zM155 227c0 -140 78 -165 139 -165
c123 0 139 106 139 165c0 44 -10 165 -139 165c-95 0 -139 -65 -139 -165z" />
    <glyph glyph-name="uniF64A" unicode="&#xf64a;" horiz-adv-x="564" 
d="M18 426v82h532v-82c-96 -99 -145 -183 -196 -300c-24 -56 -66 -163 -74 -311h-128c11 95 40 203 85 302c48 107 116 213 208 309h-427z" />
    <glyph glyph-name="uniF64B" unicode="&#xf64b;" horiz-adv-x="558" 
d="M148 375c-59 25 -93 78 -93 154c0 84 39 191 224 191s224 -107 224 -191c0 -76 -34 -129 -93 -154c43 -13 114 -57 114 -179c0 -187 -154 -216 -245 -216s-245 29 -245 216c0 123 69 163 114 179zM279 412c75 0 110 52 110 113c0 34 -11 113 -110 113s-110 -79 -110 -113
c0 -61 35 -113 110 -113zM279 62c92 0 125 73 125 140c0 51 -25 128 -125 128s-125 -77 -125 -128c0 -67 33 -140 125 -140z" />
    <glyph glyph-name="uniF64C" unicode="&#xf64c;" horiz-adv-x="587" 
d="M39 -33h110c8 -39 38 -90 124 -90c55 0 153 19 161 220h-2c-15 -23 -54 -63 -166 -63c-143 0 -232 86 -232 241c0 157 99 253 262 253c234 0 256 -200 256 -331c0 -352 -155 -402 -279 -402c-151 0 -221 87 -234 172zM432 281c0 140 -78 165 -139 165
c-123 0 -139 -106 -139 -165c0 -44 10 -165 139 -165c95 0 139 65 139 165z" />
    <glyph glyph-name="uniF653" unicode="&#xf653;" horiz-adv-x="513" 
d="M21 155h120c0 -55 48 -89 91 -92v159c-99 16 -184 39 -184 153c0 124 125 152 184 152v61h66v-61c156 -5 178 -105 178 -154h-113c0 55 -46 67 -65 72v-142c124 -24 191 -45 191 -157c0 -115 -104 -162 -191 -165v-58h-66v58c-88 0 -203 47 -211 174zM232 316v129
c-27 -3 -68 -17 -68 -65c0 -42 35 -58 68 -64zM298 210v-147c39 4 71 33 71 77c0 25 -6 56 -71 70z" />
    <glyph glyph-name="uniF654" unicode="&#xf654;" horiz-adv-x="537" 
d="M405 166h114c-16 -127 -115 -181 -202 -186v-72h-67v72c-106 3 -226 68 -226 243c0 182 119 245 226 245v66h67v-66c88 -5 187 -62 200 -169h-114c-5 43 -41 80 -86 87v-324c63 10 85 63 88 104zM250 62v324c-56 -8 -106 -54 -106 -163c0 -47 10 -140 106 -161z" />
    <glyph glyph-name="uniF6BA" unicode="&#xf6ba;" horiz-adv-x="420" 
d="M80 307v106h260v-106h-260z" />
    <glyph glyph-name="uniF6BB" unicode="&#xf6bb;" 
d="M50 401h500v-82h-500v82z" />
    <glyph glyph-name="uniF6BC" unicode="&#xf6bc;" horiz-adv-x="980" 
d="M50 319v82h880v-82h-880z" />
    <glyph glyph-name="uniF6C3" unicode="&#xf6c3;" horiz-adv-x="232" 
d="M50 -60h132v-99c0 -103 -104 -111 -132 -111v64c33 -1 67 10 67 37v9h-67v100z" />
    <glyph glyph-name="uniF6C9" unicode="&#xf6c9;" horiz-adv-x="350" 
d="M172 900h136l-118 -140h-96z" />
    <glyph glyph-name="uniF6CA" unicode="&#xf6ca;" horiz-adv-x="540" 
d="M270 806l100 94h120l-134 -140h-172l-134 140h120z" />
    <glyph glyph-name="uniF6CB" unicode="&#xf6cb;" horiz-adv-x="466" 
d="M50 772v88h128v-88h-128zM288 772v88h128v-88h-128z" />
    <glyph glyph-name="uniF6CE" unicode="&#xf6ce;" horiz-adv-x="350" 
d="M178 900l78 -140h-96l-118 140h136z" />
    <glyph glyph-name="uniF6CF" unicode="&#xf6cf;" horiz-adv-x="480" 
d="M128 900h130l-118 -140h-90zM300 900h130l-118 -140h-90z" />
    <glyph glyph-name="uniF6D0" unicode="&#xf6d0;" horiz-adv-x="430" 
d="M50 760v80h330v-80h-165h-165z" />
    <glyph glyph-name="uniF6D1" unicode="&#xf6d1;" horiz-adv-x="520" 
d="M50 883h103c5 -53 51 -81 107 -81s102 28 107 81h103c-16 -85 -85 -153 -210 -153s-194 68 -210 153z" />
    <glyph glyph-name="uniF6D4" unicode="&#xf6d4;" horiz-adv-x="494" 
d="M50 700h102c3 -47 44 -73 95 -73s92 26 95 73h102c-13 -56 -51 -143 -197 -143c-144 0 -186 87 -197 143z" />
    <glyph glyph-name="uniF6DC" unicode="&#xf6dc;" horiz-adv-x="337" 
d="M0 510v65h14c99 0 171 53 182 125h94v-700h-128v510h-162z" />
    <glyph glyph-name="uniF6DD" unicode="&#xf6dd;" horiz-adv-x="1284" 
d="M85 0v700h313c85 0 253 -11 253 -195c0 -104 -61 -154 -117 -170v-2c99 -32 103 -119 103 -182c0 -93 0 -120 26 -151h-132c-21 31 -22 56 -22 146c0 64 -5 132 -148 132h-148v-278h-128zM213 594v-210h160c65 0 146 10 146 105c0 101 -91 105 -143 105h-163zM720 508
h110v-50h2c45 56 112 70 164 70c116 0 245 -74 245 -271c0 -108 -41 -277 -241 -277c-13 0 -120 0 -160 72v-237h-120v693zM831 253c0 -115 47 -191 135 -191c53 0 147 25 147 188c0 144 -69 196 -142 196c-53 0 -140 -28 -140 -193z" />
    <glyph glyph-name="uniF6DE" unicode="&#xf6de;" horiz-adv-x="735" 
d="M37 228v82h660v-82h-660z" />
    <glyph glyph-name="uniF6DF" unicode="&#xf6df;" horiz-adv-x="348" 
d="M256 113h70c-3 -59 -43 -120 -123 -120v-43h-40v43c-52 0 -137 27 -137 161c0 117 70 158 137 163v39h40v-39c62 0 118 -44 121 -115h-70c-3 27 -20 53 -51 53v-200c31 3 50 31 53 58zM163 55v200c-48 -3 -63 -56 -63 -101c0 -55 23 -90 63 -99z" />
    <glyph glyph-name="uniF6E0" unicode="&#xf6e0;" horiz-adv-x="348" 
d="M256 393h70c-3 -59 -43 -120 -123 -120v-43h-40v43c-52 0 -137 27 -137 161c0 117 70 158 137 163v39h40v-39c62 0 118 -44 121 -115h-70c-3 27 -20 53 -51 53v-200c31 3 50 31 53 58zM163 335v200c-48 -3 -63 -56 -63 -101c0 -55 23 -90 63 -99z" />
    <glyph glyph-name="uniF6E1" unicode="&#xf6e1;" horiz-adv-x="200" 
d="M63 81h74v-91c0 -58 -42 -82 -74 -85v42c15 5 34 16 34 43v10h-34v81z" />
    <glyph glyph-name="uniF6E2" unicode="&#xf6e2;" horiz-adv-x="200" 
d="M63 361h74v-91c0 -58 -42 -82 -74 -85v42c15 5 34 16 34 43v10h-34v81z" />
    <glyph glyph-name="uniF6E3" unicode="&#xf6e3;" horiz-adv-x="378" 
d="M32 125h70c4 -37 27 -71 67 -70v127c-116 16 -130 80 -130 128c0 101 88 117 130 117v43h40v-43c106 -5 123 -71 123 -114h-70c0 12 -3 52 -53 52v-116c56 -5 137 -25 137 -127c0 -112 -102 -129 -137 -129v-50h-40v50c-107 0 -134 80 -137 132zM209 176v-121
c31 -1 64 20 64 59c0 48 -41 62 -64 62zM169 256v109c-27 3 -60 -12 -60 -54c0 -35 29 -54 60 -55z" />
    <glyph glyph-name="uniF6E4" unicode="&#xf6e4;" horiz-adv-x="378" 
d="M32 405h70c4 -37 27 -71 67 -70v127c-116 16 -130 80 -130 128c0 101 88 117 130 117v43h40v-43c106 -5 123 -71 123 -114h-70c0 12 -3 52 -53 52v-116c56 -5 137 -25 137 -127c0 -112 -102 -129 -137 -129v-50h-40v50c-107 0 -134 80 -137 132zM209 456v-121
c31 -1 64 20 64 59c0 48 -41 62 -64 62zM169 536v109c-27 3 -60 -12 -60 -54c0 -35 29 -54 60 -55z" />
    <glyph glyph-name="uniF6E5" unicode="&#xf6e5;" horiz-adv-x="240" 
d="M40 128v62h160v-62h-160z" />
    <glyph glyph-name="uniF6E6" unicode="&#xf6e6;" horiz-adv-x="254" 
d="M47 408v62h160v-62h-160z" />
    <glyph glyph-name="uniF6E7" unicode="&#xf6e7;" horiz-adv-x="200" 
d="M63 0v81h74v-81h-74z" />
    <glyph glyph-name="uniF6E8" unicode="&#xf6e8;" horiz-adv-x="200" 
d="M63 280v81h74v-81h-74z" />
    <glyph glyph-name="uniF6E9" unicode="&#xf6e9;" horiz-adv-x="340" 
d="M91 489h-64c0 33 14 109 140 109c123 0 126 -81 126 -109v-116c0 -8 0 -39 20 -39c3 0 6 1 9 2v-56c-7 -1 -22 -2 -31 -2c-27 0 -49 5 -57 38c-28 -29 -64 -43 -107 -43c-49 0 -105 22 -105 90c0 69 47 88 139 99c37 5 62 1 62 36c0 29 -16 44 -61 44
c-64 0 -71 -36 -71 -53zM223 409v16c-5 -5 -11 -9 -54 -14c-46 -5 -77 -8 -77 -45c0 -25 15 -37 44 -37c21 0 87 8 87 80z" />
    <glyph glyph-name="uniF6EA" unicode="&#xf6ea;" horiz-adv-x="380" 
d="M43 700h70v-141c25 32 68 39 97 39c109 0 144 -92 144 -168c0 -116 -69 -162 -141 -162c-43 0 -84 16 -105 47h-2v-35h-63v420zM108 433c0 -76 41 -109 88 -109s88 33 88 109s-41 109 -88 109s-88 -33 -88 -109z" />
    <glyph glyph-name="uniF6EB" unicode="&#xf6eb;" horiz-adv-x="380" 
d="M267 700h70v-420h-63v35h-2c-21 -31 -62 -47 -105 -47c-72 0 -141 46 -141 162c0 76 35 168 144 168c29 0 72 -7 97 -39v141zM96 433c0 -76 41 -109 88 -109s88 33 88 109s-41 109 -88 109s-88 -33 -88 -109z" />
    <glyph glyph-name="uniF6EC" unicode="&#xf6ec;" horiz-adv-x="360" 
d="M266 368h60c-11 -61 -65 -100 -137 -100c-88 0 -163 47 -163 159c0 29 1 171 157 171c72 0 148 -27 151 -167v-18h-238c0 -35 20 -89 91 -89c47 0 70 20 79 44zM96 465h168c-5 68 -48 77 -81 77c-73 0 -84 -58 -87 -77z" />
    <glyph glyph-name="uniF6ED" unicode="&#xf6ed;" horiz-adv-x="154" 
d="M42 586h70v-306h-70v306zM42 637v63h70v-63h-70z" />
    <glyph glyph-name="uniF6EE" unicode="&#xf6ee;" horiz-adv-x="156" 
d="M43 700h70v-420h-70v420z" />
    <glyph glyph-name="uniF6EF" unicode="&#xf6ef;" horiz-adv-x="544" 
d="M43 586h70v-40c17 31 53 52 94 52c68 0 86 -47 92 -61c32 56 87 61 106 61c72 0 96 -46 96 -125v-193h-70v187c0 28 1 77 -53 77c-44 0 -71 -37 -71 -88v-176h-70v187c0 59 -22 75 -51 75c-53 0 -73 -54 -73 -83v-179h-70v306z" />
    <glyph glyph-name="uniF6F0" unicode="&#xf6f0;" horiz-adv-x="360" 
d="M180 598c93 0 154 -64 154 -165s-61 -165 -154 -165s-154 64 -154 165s61 165 154 165zM180 542c-72 0 -84 -71 -84 -109s12 -109 84 -109s84 71 84 109s-12 109 -84 109z" />
    <glyph glyph-name="uniF6F1" unicode="&#xf6f1;" horiz-adv-x="238" 
d="M230 592v-56c-69 3 -106 -19 -115 -84c-1 -6 -2 -12 -2 -18v-17v-137h-70v306h70v-53h1c15 29 44 59 101 59h15z" />
    <glyph glyph-name="uniF6F2" unicode="&#xf6f2;" horiz-adv-x="319" 
d="M22 374h64c3 -23 19 -50 78 -50c53 0 63 24 63 43c0 24 -16 32 -59 39c-11 3 -20 2 -31 5c-92 19 -99 65 -99 96c0 85 99 90 130 90c97 0 121 -53 121 -93h-64c-5 33 -38 37 -59 37s-58 -3 -58 -34c0 -34 41 -38 77 -43c47 -8 112 -20 112 -94c0 -28 -9 -102 -132 -102
c-110 0 -140 60 -143 106z" />
    <glyph glyph-name="uniF6F3" unicode="&#xf6f3;" horiz-adv-x="206" 
d="M8 586h52v90h70v-90h64v-56h-64v-152c0 -43 18 -45 33 -45c13 0 24 2 31 3v-56c-19 -4 -43 -8 -59 -8c-69 0 -75 39 -75 66v192h-52v56z" />
    <glyph glyph-name="uniF724" unicode="&#xf724;" horiz-adv-x="540" 
d="M36 155h120c0 -55 48 -89 91 -92v159c-99 16 -184 39 -184 153c0 124 125 152 184 152v61h66v-61c156 -5 178 -105 178 -154h-113c0 55 -46 67 -65 72v-142c124 -24 191 -45 191 -157c0 -115 -104 -162 -191 -165v-58h-66v58c-88 0 -203 47 -211 174zM247 316v129
c-27 -3 -68 -17 -68 -65c0 -42 35 -58 68 -64zM313 210v-147c39 4 71 33 71 77c0 25 -6 56 -71 70z" />
    <glyph glyph-name="uniF726" unicode="&#xf726;" horiz-adv-x="545" 
d="M430 228h90c-19 -43 -46 -87 -71 -114l96 -114h-135l-36 46c-54 -51 -123 -61 -163 -61c-61 0 -165 25 -165 154c0 35 8 116 125 156c-41 49 -43 91 -43 102c0 109 113 111 150 111c140 0 149 -81 149 -111c0 -56 -43 -93 -110 -124l81 -95c17 23 24 29 32 50zM325 106
l-106 125c-31 -12 -53 -42 -53 -90c0 -47 29 -74 70 -74c27 0 60 12 89 39zM271 332c33 19 46 33 46 57c0 37 -34 37 -41 37c-25 0 -38 -16 -38 -39c0 -21 10 -32 33 -55z" />
    <glyph glyph-name="uniF730" unicode="&#xf730;" 
d="M300 -20c-244 0 -255 210 -255 274s11 274 255 274s255 -210 255 -274s-11 -274 -255 -274zM300 62c36 0 135 8 135 192s-99 192 -135 192s-135 -8 -135 -192s99 -192 135 -192z" />
    <glyph glyph-name="uniF731" unicode="&#xf731;" 
d="M110 338v62h23c85 0 161 39 180 108h87v-508h-120v338h-170z" />
    <glyph glyph-name="uniF732" unicode="&#xf732;" 
d="M555 82v-82h-505c0 134 116 181 242 227c61 21 148 49 148 124c0 21 -8 95 -134 95c-95 0 -143 -54 -143 -117v-16h-110v15c0 193 201 200 256 200c156 0 251 -60 251 -176c0 -109 -85 -147 -160 -179c-116 -48 -156 -55 -181 -91h336z" />
    <glyph glyph-name="uniF733" unicode="&#xf733;" 
d="M38 24h114v-12c0 -4 0 -8 1 -12c5 -51 36 -123 141 -123c87 0 136 53 136 133c0 112 -84 122 -137 122h-46v82h27c59 0 148 8 148 116c0 77 -51 116 -119 116c-133 0 -131 -121 -131 -149h-110c-5 97 29 231 238 231c161 0 236 -75 236 -188c0 -106 -72 -147 -120 -158
v-2c72 -13 134 -69 134 -177c0 -153 -131 -208 -254 -208c-229 0 -254 165 -258 229z" />
    <glyph glyph-name="uniF734" unicode="&#xf734;" 
d="M350 0h-327v106l320 402h127v-426h107v-82h-107v-185h-120v185zM129 82h221v284z" />
    <glyph glyph-name="uniF735" unicode="&#xf735;" 
d="M41 -8h110c5 -43 34 -115 138 -115c76 0 148 41 148 160c0 88 -38 166 -141 166c-47 0 -111 -21 -127 -73h-110l47 378h409v-82h-323l-25 -191c35 35 103 50 151 50c133 0 239 -87 239 -244c0 -239 -209 -246 -267 -246c-84 0 -228 21 -249 197z" />
    <glyph glyph-name="uniF736" unicode="&#xf736;" 
d="M555 541h-110c-21 87 -81 97 -124 97c-55 0 -153 -20 -161 -227h2c15 23 54 63 166 63c143 0 232 -86 232 -241c0 -160 -100 -253 -259 -253c-235 0 -259 201 -259 331c0 401 203 409 279 409c151 0 221 -89 234 -179zM162 227c0 -140 78 -165 139 -165
c123 0 139 106 139 165c0 44 -10 165 -139 165c-95 0 -139 -65 -139 -165z" />
    <glyph glyph-name="uniF737" unicode="&#xf737;" 
d="M34 426v82h532v-82c-96 -99 -145 -183 -196 -300c-24 -56 -66 -163 -74 -311h-128c11 95 40 203 85 302c48 107 116 213 208 309h-427z" />
    <glyph glyph-name="uniF738" unicode="&#xf738;" 
d="M169 375c-59 25 -93 78 -93 154c0 84 39 191 224 191s224 -107 224 -191c0 -76 -34 -129 -93 -154c43 -13 114 -57 114 -179c0 -187 -154 -216 -245 -216s-245 29 -245 216c0 123 69 163 114 179zM300 412c75 0 110 52 110 113c0 34 -11 113 -110 113s-110 -79 -110 -113
c0 -61 35 -113 110 -113zM300 62c92 0 125 73 125 140c0 51 -25 128 -125 128s-125 -77 -125 -128c0 -67 33 -140 125 -140z" />
    <glyph glyph-name="uniF739" unicode="&#xf739;" 
d="M47 -33h110c8 -39 38 -90 124 -90c55 0 153 19 161 220h-2c-15 -23 -54 -63 -166 -63c-143 0 -232 86 -232 241c0 157 99 253 262 253c234 0 256 -200 256 -331c0 -352 -155 -402 -279 -402c-151 0 -221 87 -234 172zM440 281c0 140 -78 165 -139 165
c-123 0 -139 -106 -139 -165c0 -44 10 -165 139 -165c95 0 139 65 139 165z" />
    <glyph glyph-name="uniF7A2" unicode="&#xf7a2;" horiz-adv-x="574" 
d="M424 166h114c-16 -127 -115 -181 -202 -186v-72h-67v72c-106 3 -226 68 -226 243c0 182 119 245 226 245v66h67v-66c88 -5 187 -62 200 -169h-114c-5 43 -41 80 -86 87v-324c63 10 85 63 88 104zM269 62v324c-56 -8 -106 -54 -106 -163c0 -47 10 -140 106 -161z" />
    <glyph glyph-name="uniF8FF" unicode="&#xf8ff;" horiz-adv-x="833" 
d="M808 656c-72 -55 -108 -120 -108 -195c0 -96 52 -175 137 -208c-17 -47 -41 -95 -72 -144c-53 -83 -105 -124 -158 -124c-20 0 -48 6 -83 19s-66 19 -92 19c-19 0 -37 -3 -53 -9l-57 -21c-17 -7 -36 -10 -55 -10c-43 0 -84 26 -125 79c-95 119 -142 247 -142 382
c0 91 22 164 67 221s104 86 175 86c27 0 67 -8 120 -23c28 -9 50 -13 66 -13c18 0 48 7 90 22c36 13 69 19 100 19c78 0 141 -33 190 -100zM608 982c1 -9 2 -18 2 -27c0 -58 -22 -110 -67 -157c-15 -16 -30 -29 -46 -38c-20 -12 -49 -19 -87 -20l3 42c13 97 80 179 195 200z
" />
    <glyph glyph-name="mu1" 
d="M205 45v-230h-120v693h120v-277c0 -40 0 -160 95 -160c40 0 95 24 95 160v277h120v-365c0 -25 0 -64 40 -61l13 1v-83c-21 -3 -56 -5 -77 -5c-39 0 -86 8 -96 60c-16 -34 -45 -75 -98 -75c-40 0 -76 30 -92 65z" />
    <glyph glyph-name="uni021B" horiz-adv-x="342" 
d="M14 508h82v152h120v-152h106v-82h-106v-287c0 -35 0 -63 59 -63c20 0 34 2 47 6v-82c-30 -8 -63 -12 -98 -12c-125 0 -128 75 -128 111v327h-82v82zM151 -60h132v-99c0 -103 -104 -111 -132 -111v64c33 -1 67 10 67 37v9h-67v100z" />
    <glyph glyph-name="onefitted" horiz-adv-x="416" 
d="M41 510v65h14c99 0 171 53 182 125h94v-700h-128v510h-162z" />
    <glyph glyph-name="colonmonetary.fitted" horiz-adv-x="701" 
d="M264 -100v91c-151 34 -237 173 -237 347c0 161 65 330 237 370v77h66v-68c13 3 27 4 42 4c17 0 32 -1 45 -4v68h66v-79c144 -32 177 -160 185 -232h-120c0 41 -24 101 -65 117v-478c38 19 70 74 75 126h120c-16 -103 -76 -220 -195 -246v-93h-66v82c-14 -2 -28 -3 -43 -3
s-29 1 -44 3v-82h-66zM330 611v-519c15 -4 29 -7 44 -7s28 1 43 5v520c-17 3 -32 5 -45 5c-15 0 -29 -1 -42 -4zM264 118v474c-96 -56 -100 -196 -100 -249c0 -75 28 -177 100 -225z" />
    <glyph glyph-name="dotlessi1" horiz-adv-x="264" 
d="M72 508h120v-508h-120v508z" />
    <glyph glyph-name="uni021A" horiz-adv-x="594" 
d="M233 594h-220v106h568v-106h-220v-594h-128v594zM231 -60h132v-99c0 -103 -104 -111 -132 -111v64c33 -1 67 10 67 37v9h-67v100z" />
    </font>
</defs>
</svg>
